{
.appVersion = "939";
copyright = "Copyright 2016 Google Inc. All Rights Reserved.";
customParameters = (
{
name = description;
value = "Designed by Monotype design team.";
},
{
name = license;
value = "This Font Software is licensed under the SIL Open Font License, Version 1.1. This Font Software is distributed on an \"AS IS\" BASIS, WITHOUT WARRANTIES OR CONDITIONS OF ANY KIND, either express or implied. See the SIL Open Font License for the specific language, permissions and limitations governing your use of this Font Software.";
},
{
name = licenseURL;
value = "http://scripts.sil.org/OFL";
},
{
name = vendorID;
value = GOOG;
},
{
name = trademark;
value = "Noto is a trademark of Google Inc.";
},
{
name = fsType;
value = (
);
},
{
name = panose;
value = (
2,
11,
5,
2,
4,
5,
4,
2,
2,
4
);
},
{
name = unicodeRanges;
value = (
57
);
},
{
name = codePageRanges;
value = (
1252
);
},
{
name = glyphOrder;
value = (
.notdef,
null,
nonmarkingreturn,
space,
ktVSCBindu,
ktVSAnusvara,
ktVSVisarga,
ktA,
ktAA,
ktI,
ktII,
ktU,
ktUU,
ktE,
ktAI,
ktO,
ktAU,
ktKa,
ktKHa,
ktGa,
ktGHa,
ktNGa,
ktCa,
ktCHa,
ktJa,
ktJHa,
ktNYa,
ktTTa,
ktTTHa,
ktDDa,
ktDDDHa,
ktDDHa,
ktRHa,
ktNNa,
ktTa,
ktTHa,
ktDa,
ktDHa,
ktNa,
ktPa,
ktPHa,
ktBa,
ktBHa,
ktMa,
ktYa,
ktRa,
ktLa,
ktVa,
ktSHa,
ktSSa,
ktSa,
ktHa,
ktVSAA,
ktVSI,
ktVSII,
ktVSU,
ktVSUU,
ktVSE,
ktVSAI,
ktVSO,
ktVSAU,
ktVirama,
ktNukta,
ktABB,
ktENU,
ktNUM,
ktDanda,
ktDDanda,
ktKII,
ktKU,
ktKUU,
ktMU,
ktMUU,
ktBHU,
ktBHUU,
ktRU,
ktRUU,
ktKHU,
ktKHUU,
ktPII,
ktPU,
ktPUU,
ktSU,
ktSUU,
ktVSI.alt1,
ktVSAIm,
ktVSEm,
ktA.alt1,
ktGII,
ktGU,
ktGUU,
ktNNa.alt1,
ktKHU.alt1,
ktKU.alt1,
ktGU.alt1,
ktVSOm,
ktVSAUm,
ktKHII,
ktRII,
ktJII,
ktCHII,
ktHU,
ktHUU,
ktSII,
ktCU,
ktBU,
ktHII,
ktZero,
ktOne,
ktTwo,
ktThree,
ktFour,
ktFive,
ktSix,
ktSeven,
ktEight,
ktNine,
ktPTa,
ktKKa,
ktPRa,
ktGa.half,
ktGHU,
ktGHUU,
ktGHII,
ktGHU.alt1,
ktCUU,
ktCII,
ktJU,
ktJUU,
ktJU.alt1,
ktJHU,
ktJHUU,
ktJHII,
ktTTII,
ktTTHII,
ktDDII,
ktDDHII,
ktTII,
ktTHII,
ktDII,
ktDHII,
ktNII,

glyphs = (
{
glyphname = .notdef;
lastChange = "2016-11-10 17:42:20 +0000";
layers = (
{
layerId = "CE2B0BEB-5EFE-47CF-A34E-B4149D2EF609";
paths = (
{
closed = 1;
nodes = (
"1034 0 LINE",
"1034 1462 LINE",
"193 1462 LINE",
"193 0 LINE"
);
},
{
closed = 1;
nodes = (
"297 1358 LINE",
"930 1358 LINE",
"930 104 LINE",
"297 104 LINE"
);
}
);
width = 1229;
}
);
note = .notdef;
},
{
glyphname = ktVSCBindu;
lastChange = "2016-11-10 17:42:20 +0000";
layers = (
{
layerId = "CE2B0BEB-5EFE-47CF-A34E-B4149D2EF609";
paths = (
{
closed = 1;
nodes = (
"-158 1437 OFFCURVE",
"-49 1498 OFFCURVE",
"51 1665 CURVE",
"-88 1750 LINE",
"-118 1702 OFFCURVE",
"-144 1668 OFFCURVE",
"-166 1647 CURVE SMOOTH",
"-210 1606 OFFCURVE",
"-263 1582 OFFCURVE",
"-335 1582 CURVE SMOOTH",
"-432 1582 OFFCURVE",
"-515 1624 OFFCURVE",
"-656 1759 CURVE",
"-743 1678 LINE",
"-612 1525 OFFCURVE",
"-457 1437 OFFCURVE",
"-309 1437 CURVE SMOOTH"
);
},
{
closed = 1;
nodes = (
"-287 1738 OFFCURVE",
"-245 1778 OFFCURVE",
"-245 1841 CURVE SMOOTH",
"-245 1908 OFFCURVE",
"-287 1946 OFFCURVE",
"-348 1946 CURVE SMOOTH",
"-413 1946 OFFCURVE",
"-452 1908 OFFCURVE",
"-452 1841 CURVE SMOOTH",
"-452 1778 OFFCURVE",
"-413 1738 OFFCURVE",
"-348 1738 CURVE SMOOTH"
);
}
);
width = 0;
}
);
note = ktVSCBindu;
unicode = 11080;
},
{
glyphname = ktVSAnusvara;
lastChange = "2016-11-10 17:42:20 +0000";
layers = (
{
layerId = "CE2B0BEB-5EFE-47CF-A34E-B4149D2EF609";
paths = (
{
closed = 1;
nodes = (
"-148 1500 OFFCURVE",
"-107 1546 OFFCURVE",
"-107 1623 CURVE SMOOTH",
"-107 1700 OFFCURVE",
"-148 1743 OFFCURVE",
"-220 1743 CURVE SMOOTH",
"-291 1743 OFFCURVE",
"-330 1700 OFFCURVE",
"-330 1623 CURVE SMOOTH",
"-330 1546 OFFCURVE",
"-289 1500 OFFCURVE",
"-220 1500 CURVE SMOOTH"
);
}
);
width = 0;
}
);
note = ktVSAnusvara;
unicode = 11081;
},
{
glyphname = ktVSVisarga;
lastChange = "2016-11-10 17:42:20 +0000";
layers = (
{
layerId = "CE2B0BEB-5EFE-47CF-A34E-B4149D2EF609";
paths = (
{
closed = 1;
nodes = (
"282 840 OFFCURVE",
"323 886 OFFCURVE",
"323 963 CURVE SMOOTH",
"323 1040 OFFCURVE",
"282 1083 OFFCURVE",
"210 1083 CURVE SMOOTH",
"139 1083 OFFCURVE",
"100 1040 OFFCURVE",
"100 963 CURVE SMOOTH",
"100 886 OFFCURVE",
"141 840 OFFCURVE",
"210 840 CURVE SMOOTH"
);
},
{
closed = 1;
nodes = (
"282 220 OFFCURVE",
"323 266 OFFCURVE",
"323 343 CURVE SMOOTH",
"323 420 OFFCURVE",
"282 463 OFFCURVE",
"210 463 CURVE SMOOTH",
"139 463 OFFCURVE",
"100 420 OFFCURVE",
"100 343 CURVE SMOOTH",
"100 266 OFFCURVE",
"141 220 OFFCURVE",
"210 220 CURVE SMOOTH"
);
}
);
width = 463;
}
);
note = ktVSVisarga;
unicode = 11082;
},
{
glyphname = ktA;
lastChange = "2016-11-10 17:42:20 +0000";
layers = (
{
layerId = "CE2B0BEB-5EFE-47CF-A34E-B4149D2EF609";
paths = (
{
closed = 1;
nodes = (
"1097 0 LINE",
"1097 1274 LINE",
"932 1274 LINE",
"932 576 LINE",
"798 496 LINE",
"705 566 OFFCURVE",
"633 624 OFFCURVE",
"580 671 CURVE",
"695 769 OFFCURVE",
"753 877 OFFCURVE",
"753 995 CURVE SMOOTH",
"753 1045 OFFCURVE",
"741 1093 OFFCURVE",
"718 1138 CURVE SMOOTH",
"670 1228 OFFCURVE",
"582 1284 OFFCURVE",
"470 1284 CURVE SMOOTH",
"321 1284 OFFCURVE",
"217 1179 OFFCURVE",
"217 1031 CURVE SMOOTH",
"217 926 OFFCURVE",
"266 820 OFFCURVE",
"365 711 CURVE",
"297 670 OFFCURVE",
"202 623 OFFCURVE",
"80 572 CURVE",
"153 427 LINE",
"302 496 OFFCURVE",
"412 553 OFFCURVE",
"481 598 CURVE",
"537 549 OFFCURVE",
"606 494 OFFCURVE",
"689 431 CURVE",
"315 210 LINE",
"403 80 LINE",
"932 419 LINE",
"937 419 LINE",
"934 408 OFFCURVE",
"932 369 OFFCURVE",
"932 303 CURVE SMOOTH",
"932 0 LINE"
);
},
{
closed = 1;
nodes = (
"411 858 OFFCURVE",
"382 929 OFFCURVE",
"382 1000 CURVE SMOOTH",
"382 1080 OFFCURVE",
"423 1139 OFFCURVE",
"490 1139 CURVE SMOOTH",
"554 1139 OFFCURVE",
"588 1083 OFFCURVE",
"588 1015 CURVE SMOOTH",
"588 931 OFFCURVE",
"548 855 OFFCURVE",
"468 786 CURVE"
);
}
);
width = 1267;
}
);
note = ktA;
unicode = 11083;
},
{
glyphname = ktAA;
lastChange = "2016-11-10 17:42:20 +0000";
layers = (
{
layerId = "CE2B0BEB-5EFE-47CF-A34E-B4149D2EF609";
paths = (
{
closed = 1;
nodes = (
"1097 0 LINE",
"1097 1274 LINE",
"932 1274 LINE",
"932 576 LINE",
"798 496 LINE",
"705 566 OFFCURVE",
"633 624 OFFCURVE",
"580 671 CURVE",
"695 769 OFFCURVE",
"753 877 OFFCURVE",
"753 995 CURVE SMOOTH",
"753 1045 OFFCURVE",
"741 1093 OFFCURVE",
"718 1138 CURVE SMOOTH",
"670 1228 OFFCURVE",
"582 1284 OFFCURVE",
"470 1284 CURVE SMOOTH",
"321 1284 OFFCURVE",
"217 1179 OFFCURVE",
"217 1031 CURVE SMOOTH",
"217 926 OFFCURVE",
"266 820 OFFCURVE",
"365 711 CURVE",
"297 670 OFFCURVE",
"202 623 OFFCURVE",
"80 572 CURVE",
"153 427 LINE",
"302 496 OFFCURVE",
"412 553 OFFCURVE",
"481 598 CURVE",
"537 549 OFFCURVE",
"606 494 OFFCURVE",
"689 431 CURVE",
"315 210 LINE",
"403 80 LINE",
"932 419 LINE",
"937 419 LINE",
"934 408 OFFCURVE",
"932 369 OFFCURVE",
"932 303 CURVE SMOOTH",
"932 0 LINE"
);
},
{
closed = 1;
nodes = (
"411 858 OFFCURVE",
"382 929 OFFCURVE",
"382 1000 CURVE SMOOTH",
"382 1080 OFFCURVE",
"423 1139 OFFCURVE",
"490 1139 CURVE SMOOTH",
"554 1139 OFFCURVE",
"588 1083 OFFCURVE",
"588 1015 CURVE SMOOTH",
"588 931 OFFCURVE",
"548 855 OFFCURVE",
"468 786 CURVE"
);
},
{
closed = 1;
nodes = (
"1602 0 LINE",
"1602 1274 LINE",
"1437 1274 LINE",
"1437 0 LINE"
);
}
);
width = 1762;
}
);
note = ktAA;
unicode = 11084;
},
{
glyphname = ktI;
lastChange = "2016-11-10 17:42:20 +0000";
layers = (
{
layerId = "CE2B0BEB-5EFE-47CF-A34E-B4149D2EF609";
paths = (
{
closed = 1;
nodes = (
"915 -302 LINE",
"852 -143 OFFCURVE",
"801 -25 OFFCURVE",
"761 52 CURVE",
"872 112 OFFCURVE",
"946 213 OFFCURVE",
"946 346 CURVE SMOOTH",
"946 434 OFFCURVE",
"912 502 OFFCURVE",
"861 556 CURVE SMOOTH",
"810 610 OFFCURVE",
"742 652 OFFCURVE",
"674 690 CURVE SMOOTH",
"605 728 OFFCURVE",
"537 763 OFFCURVE",
"486 804 CURVE SMOOTH",
"435 844 OFFCURVE",
"401 891 OFFCURVE",
"401 952 CURVE SMOOTH",
"401 1071 OFFCURVE",
"522 1139 OFFCURVE",
"727 1139 CURVE",
"716 1284 LINE",
"415 1284 OFFCURVE",
"236 1170 OFFCURVE",
"236 967 CURVE SMOOTH",
"236 917 OFFCURVE",
"246 873 OFFCURVE",
"265 834 CURVE SMOOTH",
"303 757 OFFCURVE",
"357 702 OFFCURVE",
"509 622 CURVE SMOOTH",
"609 568 LINE SMOOTH",
"724 507 OFFCURVE",
"781 437 OFFCURVE",
"781 356 CURVE SMOOTH",
"781 281 OFFCURVE",
"749 224 OFFCURVE",
"686 184 CURVE",
"575 361 OFFCURVE",
"454 449 OFFCURVE",
"325 449 CURVE SMOOTH",
"209 449 OFFCURVE",
"120 368 OFFCURVE",
"120 256 CURVE SMOOTH",
"120 103 OFFCURVE",
"288 -10 OFFCURVE",
"499 -10 CURVE SMOOTH",
"542 -10 OFFCURVE",
"583 -6 OFFCURVE",
"623 2 CURVE",
"672 -91 OFFCURVE",
"725 -210 OFFCURVE",
"783 -357 CURVE"
);
},
{
closed = 1;
nodes = (
"368 135 OFFCURVE",
"285 176 OFFCURVE",
"285 236 CURVE SMOOTH",
"285 267 OFFCURVE",
"306 294 OFFCURVE",
"346 294 CURVE SMOOTH",
"407 294 OFFCURVE",
"473 242 OFFCURVE",
"544 138 CURVE",
"489 135 LINE"
);
}
);
width = 1061;
}
);
note = ktI;
unicode = 11085;
},
{
glyphname = ktII;
lastChange = "2016-11-10 17:42:20 +0000";
layers = (
{
layerId = "CE2B0BEB-5EFE-47CF-A34E-B4149D2EF609";
paths = (
{
closed = 1;
nodes = (
"915 -302 LINE",
"852 -143 OFFCURVE",
"801 -25 OFFCURVE",
"761 52 CURVE",
"872 112 OFFCURVE",
"946 213 OFFCURVE",
"946 346 CURVE SMOOTH",
"946 434 OFFCURVE",
"912 502 OFFCURVE",
"861 556 CURVE SMOOTH",
"810 610 OFFCURVE",
"742 652 OFFCURVE",
"674 690 CURVE SMOOTH",
"605 728 OFFCURVE",
"537 763 OFFCURVE",
"486 804 CURVE SMOOTH",
"435 844 OFFCURVE",
"401 891 OFFCURVE",
"401 952 CURVE SMOOTH",
"401 1071 OFFCURVE",
"522 1139 OFFCURVE",
"727 1139 CURVE",
"713 1281 LINE",
"551 1362 OFFCURVE",
"470 1452 OFFCURVE",
"470 1552 CURVE SMOOTH",
"470 1620 OFFCURVE",
"518 1665 OFFCURVE",
"598 1665 CURVE SMOOTH",
"653 1665 OFFCURVE",
"717 1644 OFFCURVE",
"788 1602 CURVE",
"857 1694 LINE",
"772 1770 OFFCURVE",
"667 1810 OFFCURVE",
"568 1810 CURVE SMOOTH",
"417 1810 OFFCURVE",
"305 1718 OFFCURVE",
"305 1581 CURVE SMOOTH",
"305 1470 OFFCURVE",
"384 1356 OFFCURVE",
"523 1265 CURVE",
"336 1224 OFFCURVE",
"236 1120 OFFCURVE",
"236 967 CURVE SMOOTH",
"236 917 OFFCURVE",
"246 873 OFFCURVE",
"265 834 CURVE SMOOTH",
"303 757 OFFCURVE",
"357 702 OFFCURVE",
"509 622 CURVE SMOOTH",
"609 568 LINE SMOOTH",
"724 507 OFFCURVE",
"781 437 OFFCURVE",
"781 356 CURVE SMOOTH",
"781 281 OFFCURVE",
"749 224 OFFCURVE",
"686 184 CURVE",
"575 361 OFFCURVE",
"454 449 OFFCURVE",
"325 449 CURVE SMOOTH",
"209 449 OFFCURVE",
"120 368 OFFCURVE",
"120 256 CURVE SMOOTH",
"120 103 OFFCURVE",
"288 -10 OFFCURVE",
"499 -10 CURVE SMOOTH",
"542 -10 OFFCURVE",
"583 -6 OFFCURVE",
"623 2 CURVE",
"672 -91 OFFCURVE",
"725 -210 OFFCURVE",
"783 -357 CURVE"
);
},
{
closed = 1;
nodes = (
"368 135 OFFCURVE",
"285 176 OFFCURVE",
"285 236 CURVE SMOOTH",
"285 267 OFFCURVE",
"306 294 OFFCURVE",
"346 294 CURVE SMOOTH",
"407 294 OFFCURVE",
"473 242 OFFCURVE",
"544 138 CURVE",
"489 135 LINE"
);
}
);
width = 1061;
}
);
note = ktII;
unicode = 11086;
},
{
glyphname = ktU;
lastChange = "2016-11-10 17:42:20 +0000";
layers = (
{
layerId = "CE2B0BEB-5EFE-47CF-A34E-B4149D2EF609";
paths = (
{
closed = 1;
nodes = (
"789 -10 OFFCURVE",
"948 135 OFFCURVE",
"948 335 CURVE SMOOTH",
"948 475 OFFCURVE",
"889 586 OFFCURVE",
"742 695 CURVE",
"843 760 OFFCURVE",
"893 848 OFFCURVE",
"893 959 CURVE SMOOTH",
"893 1147 OFFCURVE",
"750 1284 OFFCURVE",
"539 1284 CURVE SMOOTH",
"439 1284 OFFCURVE",
"335 1245 OFFCURVE",
"227 1168 CURVE",
"302 1048 LINE",
"425 1131 OFFCURVE",
"476 1148 OFFCURVE",
"551 1148 CURVE SMOOTH",
"658 1148 OFFCURVE",
"728 1083 OFFCURVE",
"728 984 CURVE SMOOTH",
"728 879 OFFCURVE",
"679 817 OFFCURVE",
"583 773 CURVE SMOOTH",
"534 751 OFFCURVE",
"445 728 OFFCURVE",
"316 703 CURVE",
"360 568 LINE",
"462 587 OFFCURVE",
"550 609 OFFCURVE",
"623 636 CURVE",
"740 552 OFFCURVE",
"782 463 OFFCURVE",
"782 355 CURVE SMOOTH",
"782 226 OFFCURVE",
"684 135 OFFCURVE",
"553 135 CURVE SMOOTH",
"505 135 OFFCURVE",
"461 145 OFFCURVE",
"422 165 CURVE SMOOTH",
"342 205 OFFCURVE",
"286 255 OFFCURVE",
"173 419 CURVE",
"70 352 LINE",
"215 104 OFFCURVE",
"382 -10 OFFCURVE",
"573 -10 CURVE SMOOTH"
);
}
);
width = 1028;
}
);
note = ktU;
unicode = 11087;
},
{
glyphname = ktUU;
lastChange = "2016-11-10 17:42:20 +0000";
layers = (
{
layerId = "CE2B0BEB-5EFE-47CF-A34E-B4149D2EF609";
paths = (
{
closed = 1;
nodes = (
"789 -10 OFFCURVE",
"948 135 OFFCURVE",
"948 335 CURVE SMOOTH",
"948 474 OFFCURVE",
"890 574 OFFCURVE",
"783 663 CURVE",
"870 688 OFFCURVE",
"951 700 OFFCURVE",
"1024 700 CURVE SMOOTH",
"1149 700 OFFCURVE",
"1222 627 OFFCURVE",
"1222 490 CURVE SMOOTH",
"1222 373 OFFCURVE",
"1177 228 OFFCURVE",
"1088 56 CURVE",
"1251 5 LINE",
"1331 165 OFFCURVE",
"1387 318 OFFCURVE",
"1387 482 CURVE SMOOTH",
"1387 698 OFFCURVE",
"1243 845 OFFCURVE",
"1014 845 CURVE SMOOTH",
"964 845 OFFCURVE",
"913 836 OFFCURVE",
"860 818 CURVE",
"882 859 OFFCURVE",
"893 906 OFFCURVE",
"893 959 CURVE SMOOTH",
"893 1147 OFFCURVE",
"750 1284 OFFCURVE",
"539 1284 CURVE SMOOTH",
"439 1284 OFFCURVE",
"335 1245 OFFCURVE",
"227 1168 CURVE",
"302 1048 LINE",
"425 1131 OFFCURVE",
"476 1148 OFFCURVE",
"551 1148 CURVE SMOOTH",
"658 1148 OFFCURVE",
"728 1083 OFFCURVE",
"728 984 CURVE SMOOTH",
"728 879 OFFCURVE",
"679 817 OFFCURVE",
"583 773 CURVE SMOOTH",
"534 751 OFFCURVE",
"445 728 OFFCURVE",
"316 703 CURVE",
"360 568 LINE",
"462 587 OFFCURVE",
"550 609 OFFCURVE",
"623 636 CURVE",
"740 552 OFFCURVE",
"782 463 OFFCURVE",
"782 355 CURVE SMOOTH",
"782 226 OFFCURVE",
"684 135 OFFCURVE",
"553 135 CURVE SMOOTH",
"505 135 OFFCURVE",
"461 145 OFFCURVE",
"422 165 CURVE SMOOTH",
"342 205 OFFCURVE",
"286 255 OFFCURVE",
"173 419 CURVE",
"70 352 LINE",
"215 104 OFFCURVE",
"382 -10 OFFCURVE",
"573 -10 CURVE SMOOTH"
);
}
);
width = 1487;
}
);
note = ktUU;
unicode = 11088;
},
{
glyphname = ktE;
lastChange = "2016-11-10 17:42:20 +0000";
layers = (
{
layerId = "CE2B0BEB-5EFE-47CF-A34E-B4149D2EF609";
paths = (
{
closed = 1;
nodes = (
"1125 -175 LINE",
"890 -68 OFFCURVE",
"732 9 OFFCURVE",
"652 58 CURVE SMOOTH",
"571 106 OFFCURVE",
"508 154 OFFCURVE",
"462 202 CURVE SMOOTH",
"369 297 OFFCURVE",
"322 408 OFFCURVE",
"315 548 CURVE",
"435 444 OFFCURVE",
"552 384 OFFCURVE",
"697 384 CURVE SMOOTH",
"878 384 OFFCURVE",
"995 501 OFFCURVE",
"995 690 CURVE SMOOTH",
"995 1274 LINE",
"830 1274 LINE",
"830 717 LINE SMOOTH",
"830 592 OFFCURVE",
"777 529 OFFCURVE",
"671 529 CURVE SMOOTH",
"561 529 OFFCURVE",
"442 593 OFFCURVE",
"315 720 CURVE",
"315 1274 LINE",
"150 1274 LINE",
"150 601 LINE SMOOTH",
"150 428 OFFCURVE",
"194 297 OFFCURVE",
"273 188 CURVE SMOOTH",
"352 79 OFFCURVE",
"468 -10 OFFCURVE",
"625 -97 CURVE SMOOTH",
"703 -140 OFFCURVE",
"848 -209 OFFCURVE",
"1061 -303 CURVE"
);
}
);
width = 1165;
}
);
note = ktE;
unicode = 11089;
},
{
glyphname = ktAI;
lastChange = "2016-11-10 17:42:20 +0000";
layers = (
{
layerId = "CE2B0BEB-5EFE-47CF-A34E-B4149D2EF609";
paths = (
{
closed = 1;
nodes = (
"1121 -175 LINE",
"886 -68 OFFCURVE",
"728 9 OFFCURVE",
"648 58 CURVE SMOOTH",
"567 106 OFFCURVE",
"504 154 OFFCURVE",
"458 202 CURVE SMOOTH",
"365 297 OFFCURVE",
"318 408 OFFCURVE",
"311 548 CURVE",
"431 444 OFFCURVE",
"548 384 OFFCURVE",
"693 384 CURVE SMOOTH",
"874 384 OFFCURVE",
"991 501 OFFCURVE",
"991 690 CURVE SMOOTH",
"991 1274 LINE",
"826 1274 LINE",
"826 717 LINE SMOOTH",
"826 592 OFFCURVE",
"773 529 OFFCURVE",
"667 529 CURVE SMOOTH",
"557 529 OFFCURVE",
"438 593 OFFCURVE",
"311 720 CURVE",
"311 1274 LINE",
"146 1274 LINE",
"146 601 LINE SMOOTH",
"146 428 OFFCURVE",
"190 297 OFFCURVE",
"269 188 CURVE SMOOTH",
"348 79 OFFCURVE",
"464 -10 OFFCURVE",
"621 -97 CURVE SMOOTH",
"699 -140 OFFCURVE",
"844 -209 OFFCURVE",
"1057 -303 CURVE"
);
},
{
closed = 1;
nodes = (
"989 1489 LINE",
"131 1856 LINE",
"60 1708 LINE",
"936 1380 LINE"
);
}
);
width = 1161;
}
);
note = ktAI;
unicode = 1108A;
},
{
glyphname = ktO;
lastChange = "2016-11-10 17:42:20 +0000";
layers = (
{
layerId = "CE2B0BEB-5EFE-47CF-A34E-B4149D2EF609";
paths = (
{
closed = 1;
nodes = (
"1097 0 LINE",
"1097 1274 LINE",
"932 1274 LINE",
"932 576 LINE",
"798 496 LINE",
"705 566 OFFCURVE",
"633 624 OFFCURVE",
"580 671 CURVE",
"695 769 OFFCURVE",
"753 877 OFFCURVE",
"753 995 CURVE SMOOTH",
"753 1045 OFFCURVE",
"741 1093 OFFCURVE",
"718 1138 CURVE SMOOTH",
"670 1228 OFFCURVE",
"582 1284 OFFCURVE",
"470 1284 CURVE SMOOTH",
"321 1284 OFFCURVE",
"217 1179 OFFCURVE",
"217 1031 CURVE SMOOTH",
"217 926 OFFCURVE",
"266 820 OFFCURVE",
"365 711 CURVE",
"297 670 OFFCURVE",
"202 623 OFFCURVE",
"80 572 CURVE",
"153 427 LINE",
"302 496 OFFCURVE",
"412 553 OFFCURVE",
"481 598 CURVE",
"537 549 OFFCURVE",
"606 494 OFFCURVE",
"689 431 CURVE",
"315 210 LINE",
"403 80 LINE",
"932 419 LINE",
"937 419 LINE",
"934 408 OFFCURVE",
"932 369 OFFCURVE",
"932 303 CURVE SMOOTH",
"932 0 LINE"
);
},
{
closed = 1;
nodes = (
"411 858 OFFCURVE",
"382 929 OFFCURVE",
"382 1000 CURVE SMOOTH",
"382 1080 OFFCURVE",
"423 1139 OFFCURVE",
"490 1139 CURVE SMOOTH",
"554 1139 OFFCURVE",
"588 1083 OFFCURVE",
"588 1015 CURVE SMOOTH",
"588 931 OFFCURVE",
"548 855 OFFCURVE",
"468 786 CURVE"
);
},
{
closed = 1;
nodes = (
"1602 0 LINE",
"1602 1274 LINE",
"1437 1274 LINE",
"1437 0 LINE"
);
},
{
closed = 1;
nodes = (
"1550 1489 LINE",
"692 1856 LINE",
"621 1708 LINE",
"1497 1380 LINE"
);
}
);
width = 1772;
}
);
note = ktO;
unicode = 1108B;
},
{
glyphname = ktAU;
lastChange = "2016-11-10 17:42:20 +0000";
layers = (
{
layerId = "CE2B0BEB-5EFE-47CF-A34E-B4149D2EF609";
paths = (
{
closed = 1;
nodes = (
"1097 0 LINE",
"1097 1274 LINE",
"932 1274 LINE",
"932 576 LINE",
"798 496 LINE",
"705 566 OFFCURVE",
"633 624 OFFCURVE",
"580 671 CURVE",
"695 769 OFFCURVE",
"753 877 OFFCURVE",
"753 995 CURVE SMOOTH",
"753 1045 OFFCURVE",
"741 1093 OFFCURVE",
"718 1138 CURVE SMOOTH",
"670 1228 OFFCURVE",
"582 1284 OFFCURVE",
"470 1284 CURVE SMOOTH",
"321 1284 OFFCURVE",
"217 1179 OFFCURVE",
"217 1031 CURVE SMOOTH",
"217 926 OFFCURVE",
"266 820 OFFCURVE",
"365 711 CURVE",
"297 670 OFFCURVE",
"202 623 OFFCURVE",
"80 572 CURVE",
"153 427 LINE",
"302 496 OFFCURVE",
"412 553 OFFCURVE",
"481 598 CURVE",
"537 549 OFFCURVE",
"606 494 OFFCURVE",
"689 431 CURVE",
"315 210 LINE",
"403 80 LINE",
"932 419 LINE",
"937 419 LINE",
"934 408 OFFCURVE",
"932 369 OFFCURVE",
"932 303 CURVE SMOOTH",
"932 0 LINE"
);
},
{
closed = 1;
nodes = (
"411 858 OFFCURVE",
"382 929 OFFCURVE",
"382 1000 CURVE SMOOTH",
"382 1080 OFFCURVE",
"423 1139 OFFCURVE",
"490 1139 CURVE SMOOTH",
"554 1139 OFFCURVE",
"588 1083 OFFCURVE",
"588 1015 CURVE SMOOTH",
"588 931 OFFCURVE",
"548 855 OFFCURVE",
"468 786 CURVE"
);
},
{
closed = 1;
nodes = (
"1602 0 LINE",
"1602 1274 LINE",
"1437 1274 LINE",
"1437 0 LINE"
);
},
{
closed = 1;
nodes = (
"1556 1489 LINE",
"1505 1673 OFFCURVE",
"1379 1845 OFFCURVE",
"1127 2097 CURVE",
"1015 1989 LINE",
"1168 1840 LINE SMOOTH",
"1256 1755 OFFCURVE",
"1317 1693 OFFCURVE",
"1351 1653 CURVE SMOOTH",
"1384 1613 OFFCURVE",
"1411 1574 OFFCURVE",
"1431 1535 CURVE",
"1423 1527 LINE",
"1360 1566 OFFCURVE",
"1303 1597 OFFCURVE",
"1252 1619 CURVE SMOOTH",
"698 1856 LINE",
"627 1708 LINE",
"1503 1380 LINE"
);
}
);
width = 1772;
}
);
note = ktAU;
unicode = 1108C;
},
{
glyphname = ktKa;
lastChange = "2016-11-10 17:37:31 +0000";
layers = (
{
layerId = "CE2B0BEB-5EFE-47CF-A34E-B4149D2EF609";
paths = (
{
closed = 1;
nodes = (
"892 0 LINE",
"892 603 LINE",
"995 720 OFFCURVE",
"1070 766 OFFCURVE",
"1146 766 CURVE SMOOTH",
"1225 766 OFFCURVE",
"1264 714 OFFCURVE",
"1264 611 CURVE SMOOTH",
"1264 492 OFFCURVE",
"1230 355 OFFCURVE",
"1163 202 CURVE",
"1320 151 LINE",
"1393 311 OFFCURVE",
"1429 458 OFFCURVE",
"1429 591 CURVE SMOOTH",
"1429 783 OFFCURVE",
"1311 911 OFFCURVE",
"1131 911 CURVE SMOOTH",
"1043 911 OFFCURVE",
"963 879 OFFCURVE",
"892 815 CURVE",
"887 815 LINE",
"890 842 OFFCURVE",
"892 887 OFFCURVE",
"892 951 CURVE SMOOTH",
"892 1274 LINE",
"727 1274 LINE",
"727 904 LINE",
"641 962 OFFCURVE",
"549 991 OFFCURVE",
"452 991 CURVE SMOOTH",
"248 991 OFFCURVE",
"95 859 OFFCURVE",
"95 678 CURVE SMOOTH",
"95 485 OFFCURVE",
"251 340 OFFCURVE",
"459 340 CURVE SMOOTH",
"554 340 OFFCURVE",
"644 373 OFFCURVE",
"727 438 CURVE",
"732 438 LINE",
"729 427 OFFCURVE",
"727 388 OFFCURVE",
"727 322 CURVE SMOOTH",
"727 0 LINE"
);
},
{
closed = 1;
nodes = (
"332 484 OFFCURVE",
"260 551 OFFCURVE",
"260 658 CURVE SMOOTH",
"260 769 OFFCURVE",
"355 846 OFFCURVE",
"472 846 CURVE SMOOTH",
"556 846 OFFCURVE",
"641 824 OFFCURVE",
"727 779 CURVE",
"727 637 LINE",
"632 535 OFFCURVE",
"536 484 OFFCURVE",
"439 484 CURVE SMOOTH"
);
}
);
width = 1549;
}
);
note = ktKa;
unicode = 1108D;
},
{
glyphname = ktKHa;
lastChange = "2016-11-10 17:42:20 +0000";
layers = (
{
layerId = "CE2B0BEB-5EFE-47CF-A34E-B4149D2EF609";
paths = (
{
closed = 1;
nodes = (
"1327 0 LINE",
"1327 1274 LINE",
"1162 1274 LINE",
"1162 701 LINE",
"1091 620 OFFCURVE",
"1015 579 OFFCURVE",
"932 579 CURVE SMOOTH",
"829 579 OFFCURVE",
"795 629 OFFCURVE",
"795 756 CURVE SMOOTH",
"795 1274 LINE",
"630 1274 LINE",
"630 821 LINE SMOOTH",
"630 770 OFFCURVE",
"635 723 OFFCURVE",
"644 680 CURVE",
"580 613 OFFCURVE",
"509 579 OFFCURVE",
"432 579 CURVE SMOOTH",
"341 579 OFFCURVE",
"295 638 OFFCURVE",
"295 756 CURVE SMOOTH",
"295 1274 LINE",
"130 1274 LINE",
"130 772 LINE SMOOTH",
"130 567 OFFCURVE",
"259 435 OFFCURVE",
"467 435 CURVE SMOOTH",
"567 435 OFFCURVE",
"664 471 OFFCURVE",
"720 522 CURVE",
"725 522 LINE",
"782 464 OFFCURVE",
"862 435 OFFCURVE",
"967 435 CURVE SMOOTH",
"1047 435 OFFCURVE",
"1119 466 OFFCURVE",
"1162 503 CURVE",
"1167 503 LINE",
"1164 480 OFFCURVE",
"1162 423 OFFCURVE",
"1162 332 CURVE SMOOTH",
"1162 0 LINE"
);
}
);
width = 1497;
}
);
note = ktKHa;
unicode = 1108E;
},
{
glyphname = ktGa;
lastChange = "2016-11-10 17:42:20 +0000";
layers = (
{
layerId = "CE2B0BEB-5EFE-47CF-A34E-B4149D2EF609";
paths = (
{
closed = 1;
nodes = (
"506 268 OFFCURVE",
"554 282 OFFCURVE",
"599 309 CURVE SMOOTH",
"688 364 OFFCURVE",
"742 470 OFFCURVE",
"742 605 CURVE SMOOTH",
"742 821 OFFCURVE",
"663 1048 OFFCURVE",
"506 1287 CURVE",
"375 1212 LINE",
"428 1128 OFFCURVE",
"468 1058 OFFCURVE",
"493 1002 CURVE SMOOTH",
"544 889 OFFCURVE",
"578 767 OFFCURVE",
"578 640 CURVE SMOOTH",
"578 501 OFFCURVE",
"528 413 OFFCURVE",
"436 413 CURVE SMOOTH",
"360 413 OFFCURVE",
"278 480 OFFCURVE",
"190 614 CURVE",
"80 542 LINE",
"179 374 OFFCURVE",
"318 268 OFFCURVE",
"453 268 CURVE SMOOTH"
);
},
{
closed = 1;
nodes = (
"1075 0 LINE",
"1075 1274 LINE",
"910 1274 LINE",
"910 0 LINE"
);
}
);
width = 1245;
}
);
note = ktGa;
unicode = 1108F;
},
{
glyphname = ktGHa;
lastChange = "2016-11-10 17:37:31 +0000";
layers = (
{
layerId = "CE2B0BEB-5EFE-47CF-A34E-B4149D2EF609";
paths = (
{
closed = 1;
nodes = (
"1068 0 LINE",
"1068 1274 LINE",
"903 1274 LINE",
"903 452 LINE",
"799 380 OFFCURVE",
"684 344 OFFCURVE",
"558 344 CURVE SMOOTH",
"409 344 OFFCURVE",
"305 404 OFFCURVE",
"305 504 CURVE SMOOTH",
"305 629 OFFCURVE",
"452 697 OFFCURVE",
"712 697 CURVE",
"692 862 LINE",
"592 862 OFFCURVE",
"501 849 OFFCURVE",
"420 824 CURVE",
"366 873 OFFCURVE",
"339 923 OFFCURVE",
"339 973 CURVE SMOOTH",
"339 1086 OFFCURVE",
"440 1139 OFFCURVE",
"657 1139 CURVE",
"646 1284 LINE",
"331 1284 OFFCURVE",
"173 1190 OFFCURVE",
"173 1003 CURVE SMOOTH",
"173 923 OFFCURVE",
"217 847 OFFCURVE",
"305 776 CURVE",
"195 713 OFFCURVE",
"140 630 OFFCURVE",
"140 525 CURVE SMOOTH",
"140 332 OFFCURVE",
"323 200 OFFCURVE",
"580 200 CURVE SMOOTH",
"699 200 OFFCURVE",
"807 226 OFFCURVE",
"903 277 CURVE",
"908 277 LINE",
"905 266 OFFCURVE",
"903 227 OFFCURVE",
"903 161 CURVE SMOOTH",
"903 0 LINE"
);
}
);
width = 1238;
}
);
note = ktGHa;
unicode = 11090;
},
{
glyphname = ktNGa;
lastChange = "2016-11-10 17:42:20 +0000";
layers = (
{
layerId = "CE2B0BEB-5EFE-47CF-A34E-B4149D2EF609";
paths = (
{
closed = 1;
nodes = (
"790 -10 OFFCURVE",
"860 6 OFFCURVE",
"923 38 CURVE SMOOTH",
"1050 101 OFFCURVE",
"1125 222 OFFCURVE",
"1125 358 CURVE SMOOTH",
"1125 545 OFFCURVE",
"1018 686 OFFCURVE",
"785 790 CURVE",
"943 1245 LINE",
"775 1284 LINE",
"599 739 LINE",
"848 642 OFFCURVE",
"960 516 OFFCURVE",
"960 368 CURVE SMOOTH",
"960 227 OFFCURVE",
"858 135 OFFCURVE",
"703 135 CURVE SMOOTH",
"628 135 OFFCURVE",
"561 154 OFFCURVE",
"502 193 CURVE SMOOTH",
"383 270 OFFCURVE",
"315 416 OFFCURVE",
"315 587 CURVE SMOOTH",
"315 775 OFFCURVE",
"353 932 OFFCURVE",
"508 1248 CURVE",
"351 1284 LINE",
"199 996 OFFCURVE",
"150 817 OFFCURVE",
"150 597 CURVE SMOOTH",
"150 484 OFFCURVE",
"175 381 OFFCURVE",
"224 288 CURVE SMOOTH",
"323 100 OFFCURVE",
"504 -10 OFFCURVE",
"713 -10 CURVE SMOOTH"
);
}
);
width = 1255;
}
);
note = ktNGa;
unicode = 11091;
},
{
glyphname = ktCa;
lastChange = "2016-11-10 17:37:31 +0000";
layers = (
{
layerId = "CE2B0BEB-5EFE-47CF-A34E-B4149D2EF609";
paths = (
{
closed = 1;
nodes = (
"979 0 LINE",
"979 1274 LINE",
"814 1274 LINE",
"814 495 LINE",
"742 440 OFFCURVE",
"654 413 OFFCURVE",
"549 413 CURVE SMOOTH",
"442 413 OFFCURVE",
"350 453 OFFCURVE",
"274 533 CURVE",
"349 596 OFFCURVE",
"403 648 OFFCURVE",
"438 689 CURVE SMOOTH",
"506 769 OFFCURVE",
"547 850 OFFCURVE",
"547 942 CURVE SMOOTH",
"547 1066 OFFCURVE",
"488 1167 OFFCURVE",
"323 1284 CURVE",
"236 1186 LINE",
"325 1118 OFFCURVE",
"382 1052 OFFCURVE",
"382 959 CURVE SMOOTH",
"382 870 OFFCURVE",
"315 775 OFFCURVE",
"174 663 CURVE SMOOTH",
"60 571 LINE",
"219 362 OFFCURVE",
"391 268 OFFCURVE",
"570 268 CURVE SMOOTH",
"663 268 OFFCURVE",
"745 285 OFFCURVE",
"814 318 CURVE",
"819 318 LINE",
"816 307 OFFCURVE",
"814 268 OFFCURVE",
"814 202 CURVE SMOOTH",
"814 0 LINE"
);
}
);
width = 1149;
}
);
note = ktCa;
unicode = 11092;
},
{
glyphname = ktCHa;
lastChange = "2016-11-10 17:42:20 +0000";
layers = (
{
layerId = "CE2B0BEB-5EFE-47CF-A34E-B4149D2EF609";
paths = (
{
closed = 1;
nodes = (
"1423 88 LINE",
"1342 159 OFFCURVE",
"1274 226 OFFCURVE",
"1217 289 CURVE",
"1336 448 OFFCURVE",
"1402 659 OFFCURVE",
"1402 863 CURVE SMOOTH",
"1402 940 OFFCURVE",
"1388 1011 OFFCURVE",
"1361 1076 CURVE SMOOTH",
"1305 1205 OFFCURVE",
"1200 1284 OFFCURVE",
"1069 1284 CURVE SMOOTH",
"881 1284 OFFCURVE",
"768 1149 OFFCURVE",
"768 914 CURVE SMOOTH",
"768 719 OFFCURVE",
"853 514 OFFCURVE",
"1023 301 CURVE",
"909 190 OFFCURVE",
"767 134 OFFCURVE",
"598 134 CURVE SMOOTH",
"415 134 OFFCURVE",
"295 224 OFFCURVE",
"295 364 CURVE SMOOTH",
"295 512 OFFCURVE",
"428 597 OFFCURVE",
"672 597 CURVE",
"652 762 LINE",
"559 762 OFFCURVE",
"475 749 OFFCURVE",
"400 722 CURVE",
"346 776 OFFCURVE",
"319 840 OFFCURVE",
"319 913 CURVE SMOOTH",
"319 1061 OFFCURVE",
"421 1139 OFFCURVE",
"617 1139 CURVE",
"606 1284 LINE",
"317 1284 OFFCURVE",
"153 1158 OFFCURVE",
"153 943 CURVE SMOOTH",
"153 840 OFFCURVE",
"203 742 OFFCURVE",
"287 665 CURVE",
"182 594 OFFCURVE",
"130 501 OFFCURVE",
"130 385 CURVE SMOOTH",
"130 146 OFFCURVE",
"333 -10 OFFCURVE",
"620 -10 CURVE SMOOTH",
"818 -10 OFFCURVE",
"986 55 OFFCURVE",
"1124 184 CURVE",
"1193 112 OFFCURVE",
"1262 47 OFFCURVE",
"1331 -11 CURVE"
);
},
{
closed = 1;
nodes = (
"993 575 OFFCURVE",
"933 731 OFFCURVE",
"933 904 CURVE SMOOTH",
"933 1055 OFFCURVE",
"987 1139 OFFCURVE",
"1079 1139 CURVE SMOOTH",
"1179 1139 OFFCURVE",
"1237 1040 OFFCURVE",
"1237 863 CURVE SMOOTH",
"1237 690 OFFCURVE",
"1196 539 OFFCURVE",
"1114 412 CURVE"
);
}
);
width = 1543;
}
);
note = ktCHa;
unicode = 11093;
},
{
glyphname = ktJa;
lastChange = "2016-11-10 17:42:20 +0000";
layers = (
{
layerId = "CE2B0BEB-5EFE-47CF-A34E-B4149D2EF609";
paths = (
{
closed = 1;
nodes = (
"1257 0 LINE",
"1257 872 LINE SMOOTH",
"1257 1111 OFFCURVE",
"1117 1284 OFFCURVE",
"917 1284 CURVE SMOOTH",
"711 1284 OFFCURVE",
"608 1160 OFFCURVE",
"608 913 CURVE SMOOTH",
"608 468 LINE SMOOTH",
"608 315 OFFCURVE",
"548 240 OFFCURVE",
"443 240 CURVE SMOOTH",
"345 240 OFFCURVE",
"296 316 OFFCURVE",
"296 467 CURVE SMOOTH",
"296 1274 LINE",
"131 1274 LINE",
"131 477 LINE SMOOTH",
"131 240 OFFCURVE",
"253 95 OFFCURVE",
"453 95 CURVE SMOOTH",
"650 95 OFFCURVE",
"773 235 OFFCURVE",
"773 458 CURVE SMOOTH",
"773 903 LINE SMOOTH",
"773 1055 OFFCURVE",
"828 1139 OFFCURVE",
"927 1139 CURVE SMOOTH",
"1035 1139 OFFCURVE",
"1092 1062 OFFCURVE",
"1092 882 CURVE SMOOTH",
"1092 0 LINE"
);
}
);
width = 1427;
}
);
note = ktJa;
unicode = 11094;
},
{
glyphname = ktJHa;
lastChange = "2016-11-10 17:42:20 +0000";
layers = (
{
layerId = "CE2B0BEB-5EFE-47CF-A34E-B4149D2EF609";
paths = (
{
closed = 1;
nodes = (
"851 -405 OFFCURVE",
"995 -376 OFFCURVE",
"1159 -300 CURVE",
"1110 -161 LINE",
"975 -228 OFFCURVE",
"828 -260 OFFCURVE",
"700 -260 CURVE SMOOTH",
"428 -260 OFFCURVE",
"250 -100 OFFCURVE",
"250 128 CURVE SMOOTH",
"250 257 OFFCURVE",
"282 349 OFFCURVE",
"389 448 CURVE",
"392 446 LINE",
"385 427 OFFCURVE",
"381 403 OFFCURVE",
"381 374 CURVE SMOOTH",
"381 143 OFFCURVE",
"553 -10 OFFCURVE",
"801 -10 CURVE SMOOTH",
"922 -10 OFFCURVE",
"1035 22 OFFCURVE",
"1140 87 CURVE",
"1090 234 LINE",
"990 167 OFFCURVE",
"886 134 OFFCURVE",
"779 134 CURVE SMOOTH",
"634 134 OFFCURVE",
"536 219 OFFCURVE",
"536 354 CURVE SMOOTH",
"536 523 OFFCURVE",
"664 597 OFFCURVE",
"993 597 CURVE",
"973 762 LINE",
"860 762 OFFCURVE",
"753 748 OFFCURVE",
"652 721 CURVE",
"597 774 OFFCURVE",
"570 838 OFFCURVE",
"570 913 CURVE SMOOTH",
"570 1069 OFFCURVE",
"698 1139 OFFCURVE",
"938 1139 CURVE",
"927 1284 LINE",
"584 1284 OFFCURVE",
"404 1164 OFFCURVE",
"404 943 CURVE SMOOTH",
"404 847 OFFCURVE",
"444 759 OFFCURVE",
"525 678 CURVE",
"254 569 OFFCURVE",
"85 362 OFFCURVE",
"85 138 CURVE SMOOTH",
"85 38 OFFCURVE",
"113 -54 OFFCURVE",
"168 -137 CURVE SMOOTH",
"278 -305 OFFCURVE",
"481 -405 OFFCURVE",
"710 -405 CURVE SMOOTH"
);
}
);
width = 1204;
}
);
note = ktJHa;
unicode = 11095;
},
{
glyphname = ktNYa;
lastChange = "2016-11-10 17:37:31 +0000";
layers = (
{
layerId = "CE2B0BEB-5EFE-47CF-A34E-B4149D2EF609";
paths = (
{
closed = 1;
nodes = (
"1149 0 LINE",
"1149 1274 LINE",
"984 1274 LINE",
"984 744 LINE",
"953 738 OFFCURVE",
"919 735 OFFCURVE",
"883 735 CURVE SMOOTH",
"853 735 OFFCURVE",
"825 736 OFFCURVE",
"798 739 CURVE",
"792 811 OFFCURVE",
"771 877 OFFCURVE",
"735 937 CURVE SMOOTH",
"662 1056 OFFCURVE",
"537 1128 OFFCURVE",
"392 1128 CURVE SMOOTH",
"281 1128 OFFCURVE",
"175 1085 OFFCURVE",
"76 1000 CURVE",
"172 885 LINE",
"247 950 OFFCURVE",
"324 983 OFFCURVE",
"402 983 CURVE SMOOTH",
"545 983 OFFCURVE",
"634 872 OFFCURVE",
"634 716 CURVE SMOOTH",
"634 529 OFFCURVE",
"544 414 OFFCURVE",
"397 414 CURVE SMOOTH",
"300 414 OFFCURVE",
"235 446 OFFCURVE",
"138 539 CURVE",
"50 454 LINE",
"143 343 OFFCURVE",
"267 269 OFFCURVE",
"411 269 CURVE SMOOTH",
"607 269 OFFCURVE",
"754 398 OFFCURVE",
"790 605 CURVE",
"823 598 OFFCURVE",
"859 595 OFFCURVE",
"898 595 CURVE",
"984 600 LINE",
"989 600 LINE",
"986 589 OFFCURVE",
"984 550 OFFCURVE",
"984 484 CURVE SMOOTH",
"984 0 LINE"
);
}
);
width = 1319;
}
);
note = ktNYa;
unicode = 11096;
},
{
glyphname = ktTTa;
lastChange = "2016-11-10 17:42:20 +0000";
layers = (
{
layerId = "CE2B0BEB-5EFE-47CF-A34E-B4149D2EF609";
paths = (
{
closed = 1;
nodes = (
"738 -10 OFFCURVE",
"916 62 OFFCURVE",
"1081 206 CURVE",
"976 331 LINE",
"808 187 OFFCURVE",
"673 135 OFFCURVE",
"533 135 CURVE SMOOTH",
"370 135 OFFCURVE",
"265 212 OFFCURVE",
"265 339 CURVE SMOOTH",
"265 442 OFFCURVE",
"331 532 OFFCURVE",
"502 668 CURVE SMOOTH",
"663 796 OFFCURVE",
"739 907 OFFCURVE",
"739 1032 CURVE SMOOTH",
"739 1274 LINE",
"574 1274 LINE",
"574 1062 LINE SMOOTH",
"574 961 OFFCURVE",
"512 876 OFFCURVE",
"337 736 CURVE SMOOTH",
"173 604 OFFCURVE",
"100 492 OFFCURVE",
"100 364 CURVE SMOOTH",
"100 297 OFFCURVE",
"120 234 OFFCURVE",
"161 176 CURVE SMOOTH",
"241 60 OFFCURVE",
"388 -10 OFFCURVE",
"548 -10 CURVE SMOOTH"
);
}
);
width = 1141;
}
);
note = ktTTa;
unicode = 11097;
},
{
glyphname = ktTTHa;
lastChange = "2016-11-10 17:42:20 +0000";
layers = (
{
layerId = "CE2B0BEB-5EFE-47CF-A34E-B4149D2EF609";
paths = (
{
closed = 1;
nodes = (
"648 -10 OFFCURVE",
"722 4 OFFCURVE",
"787 32 CURVE SMOOTH",
"918 88 OFFCURVE",
"994 196 OFFCURVE",
"994 336 CURVE SMOOTH",
"994 383 OFFCURVE",
"984 426 OFFCURVE",
"965 463 CURVE SMOOTH",
"926 537 OFFCURVE",
"868 591 OFFCURVE",
"707 679 CURVE SMOOTH",
"607 733 OFFCURVE",
"543 771 OFFCURVE",
"514 793 CURVE SMOOTH",
"456 837 OFFCURVE",
"419 887 OFFCURVE",
"419 952 CURVE SMOOTH",
"419 1069 OFFCURVE",
"522 1139 OFFCURVE",
"745 1139 CURVE",
"734 1284 LINE",
"439 1284 OFFCURVE",
"254 1163 OFFCURVE",
"254 967 CURVE SMOOTH",
"254 930 OFFCURVE",
"259 897 OFFCURVE",
"270 867 CURVE SMOOTH",
"290 806 OFFCURVE",
"333 749 OFFCURVE",
"402 698 CURVE SMOOTH",
"437 672 OFFCURVE",
"518 626 OFFCURVE",
"647 559 CURVE SMOOTH",
"768 496 OFFCURVE",
"829 429 OFFCURVE",
"829 346 CURVE SMOOTH",
"829 218 OFFCURVE",
"725 135 OFFCURVE",
"557 135 CURVE SMOOTH",
"401 135 OFFCURVE",
"265 212 OFFCURVE",
"265 317 CURVE SMOOTH",
"265 364 OFFCURVE",
"294 398 OFFCURVE",
"351 398 CURVE SMOOTH",
"400 398 OFFCURVE",
"444 366 OFFCURVE",
"485 303 CURVE",
"600 374 LINE",
"529 494 OFFCURVE",
"442 543 OFFCURVE",
"331 543 CURVE SMOOTH",
"199 543 OFFCURVE",
"100 457 OFFCURVE",
"100 337 CURVE SMOOTH",
"100 274 OFFCURVE",
"121 215 OFFCURVE",
"163 162 CURVE SMOOTH",
"247 54 OFFCURVE",
"399 -10 OFFCURVE",
"567 -10 CURVE SMOOTH"
);
}
);
width = 1094;
}
);
note = ktTTHa;
unicode = 11098;
},
{
glyphname = ktDDa;
lastChange = "2016-11-10 17:42:20 +0000";
layers = (
{
layerId = "CE2B0BEB-5EFE-47CF-A34E-B4149D2EF609";
paths = (
{
closed = 1;
nodes = (
"954 -10 OFFCURVE",
"1116 150 OFFCURVE",
"1116 378 CURVE SMOOTH",
"1116 593 OFFCURVE",
"985 758 OFFCURVE",
"806 758 CURVE SMOOTH",
"772 758 OFFCURVE",
"713 750 OFFCURVE",
"630 734 CURVE SMOOTH",
"547 718 OFFCURVE",
"481 710 OFFCURVE",
"433 710 CURVE",
"417 747 OFFCURVE",
"409 791 OFFCURVE",
"409 842 CURVE SMOOTH",
"409 1038 OFFCURVE",
"550 1139 OFFCURVE",
"809 1139 CURVE",
"798 1284 LINE",
"455 1284 OFFCURVE",
"244 1120 OFFCURVE",
"244 852 CURVE SMOOTH",
"244 683 OFFCURVE",
"364 565 OFFCURVE",
"543 565 CURVE SMOOTH",
"572 565 OFFCURVE",
"623 571 OFFCURVE",
"697 584 CURVE SMOOTH",
"771 597 OFFCURVE",
"824 603 OFFCURVE",
"857 603 CURVE",
"920 559 OFFCURVE",
"951 491 OFFCURVE",
"951 398 CURVE SMOOTH",
"951 234 OFFCURVE",
"849 135 OFFCURVE",
"685 135 CURVE SMOOTH",
"526 135 OFFCURVE",
"402 225 OFFCURVE",
"218 502 CURVE",
"100 427 LINE",
"295 108 OFFCURVE",
"481 -10 OFFCURVE",
"706 -10 CURVE SMOOTH"
);
}
);
width = 1216;
}
);
note = ktDDa;
unicode = 11099;
},
{
glyphname = ktDDDHa;
lastChange = "2016-11-10 17:42:20 +0000";
layers = (
{
layerId = "CE2B0BEB-5EFE-47CF-A34E-B4149D2EF609";
paths = (
{
closed = 1;
nodes = (
"954 -10 OFFCURVE",
"1116 150 OFFCURVE",
"1116 378 CURVE SMOOTH",
"1116 593 OFFCURVE",
"985 758 OFFCURVE",
"806 758 CURVE SMOOTH",
"772 758 OFFCURVE",
"713 750 OFFCURVE",
"630 734 CURVE SMOOTH",
"547 718 OFFCURVE",
"481 710 OFFCURVE",
"433 710 CURVE",
"417 747 OFFCURVE",
"409 791 OFFCURVE",
"409 842 CURVE SMOOTH",
"409 1038 OFFCURVE",
"550 1139 OFFCURVE",
"809 1139 CURVE",
"798 1284 LINE",
"455 1284 OFFCURVE",
"244 1120 OFFCURVE",
"244 852 CURVE SMOOTH",
"244 683 OFFCURVE",
"364 565 OFFCURVE",
"543 565 CURVE SMOOTH",
"572 565 OFFCURVE",
"623 571 OFFCURVE",
"697 584 CURVE SMOOTH",
"771 597 OFFCURVE",
"824 603 OFFCURVE",
"857 603 CURVE",
"920 559 OFFCURVE",
"951 491 OFFCURVE",
"951 398 CURVE SMOOTH",
"951 234 OFFCURVE",
"849 135 OFFCURVE",
"685 135 CURVE SMOOTH",
"526 135 OFFCURVE",
"402 225 OFFCURVE",
"218 502 CURVE",
"100 427 LINE",
"295 108 OFFCURVE",
"481 -10 OFFCURVE",
"706 -10 CURVE SMOOTH"
);
},
{
closed = 1;
nodes = (
"708 -410 OFFCURVE",
"749 -364 OFFCURVE",
"749 -287 CURVE SMOOTH",
"749 -210 OFFCURVE",
"708 -167 OFFCURVE",
"636 -167 CURVE SMOOTH",
"565 -167 OFFCURVE",
"526 -210 OFFCURVE",
"526 -287 CURVE SMOOTH",
"526 -364 OFFCURVE",
"567 -410 OFFCURVE",
"636 -410 CURVE SMOOTH"
);
}
);
width = 1216;
}
);
note = ktDDDHa;
unicode = 1109A;
},
{
glyphname = ktDDHa;
lastChange = "2016-11-10 17:42:20 +0000";
layers = (
{
layerId = "CE2B0BEB-5EFE-47CF-A34E-B4149D2EF609";
paths = (
{
closed = 1;
nodes = (
"700 -10 OFFCURVE",
"781 4 OFFCURVE",
"854 32 CURVE SMOOTH",
"1001 88 OFFCURVE",
"1091 193 OFFCURVE",
"1091 321 CURVE SMOOTH",
"1091 364 OFFCURVE",
"1079 406 OFFCURVE",
"1056 445 CURVE SMOOTH",
"1008 524 OFFCURVE",
"922 572 OFFCURVE",
"819 572 CURVE SMOOTH",
"670 572 OFFCURVE",
"557 476 OFFCURVE",
"557 347 CURVE SMOOTH",
"557 273 OFFCURVE",
"596 204 OFFCURVE",
"674 140 CURVE",
"593 135 LINE",
"397 135 OFFCURVE",
"265 225 OFFCURVE",
"265 369 CURVE SMOOTH",
"265 473 OFFCURVE",
"327 555 OFFCURVE",
"502 688 CURVE SMOOTH",
"662 809 OFFCURVE",
"739 925 OFFCURVE",
"739 1062 CURVE SMOOTH",
"739 1274 LINE",
"574 1274 LINE",
"574 1102 LINE SMOOTH",
"574 979 OFFCURVE",
"501 878 OFFCURVE",
"337 751 CURVE SMOOTH",
"172 623 OFFCURVE",
"100 518 OFFCURVE",
"100 389 CURVE SMOOTH",
"100 315 OFFCURVE",
"123 248 OFFCURVE",
"168 187 CURVE SMOOTH",
"259 65 OFFCURVE",
"428 -10 OFFCURVE",
"613 -10 CURVE SMOOTH"
);
},
{
closed = 1;
nodes = (
"744 217 OFFCURVE",
"722 267 OFFCURVE",
"722 318 CURVE SMOOTH",
"722 379 OFFCURVE",
"768 427 OFFCURVE",
"829 427 CURVE SMOOTH",
"889 427 OFFCURVE",
"926 383 OFFCURVE",
"926 331 CURVE SMOOTH",
"926 256 OFFCURVE",
"871 201 OFFCURVE",
"787 169 CURVE"
);
}
);
width = 1191;
}
);
note = ktDDHa;
unicode = 1109B;
},
{
glyphname = ktRHa;
lastChange = "2016-11-10 17:42:20 +0000";
layers = (
{
layerId = "CE2B0BEB-5EFE-47CF-A34E-B4149D2EF609";
paths = (
{
closed = 1;
nodes = (
"700 -10 OFFCURVE",
"781 4 OFFCURVE",
"854 32 CURVE SMOOTH",
"1001 88 OFFCURVE",
"1091 193 OFFCURVE",
"1091 321 CURVE SMOOTH",
"1091 364 OFFCURVE",
"1079 406 OFFCURVE",
"1056 445 CURVE SMOOTH",
"1008 524 OFFCURVE",
"922 572 OFFCURVE",
"819 572 CURVE SMOOTH",
"670 572 OFFCURVE",
"557 476 OFFCURVE",
"557 347 CURVE SMOOTH",
"557 273 OFFCURVE",
"596 204 OFFCURVE",
"674 140 CURVE",
"593 135 LINE",
"397 135 OFFCURVE",
"265 225 OFFCURVE",
"265 369 CURVE SMOOTH",
"265 473 OFFCURVE",
"327 555 OFFCURVE",
"502 688 CURVE SMOOTH",
"662 809 OFFCURVE",
"739 925 OFFCURVE",
"739 1062 CURVE SMOOTH",
"739 1274 LINE",
"574 1274 LINE",
"574 1102 LINE SMOOTH",
"574 979 OFFCURVE",
"501 878 OFFCURVE",
"337 751 CURVE SMOOTH",
"172 623 OFFCURVE",
"100 518 OFFCURVE",
"100 389 CURVE SMOOTH",
"100 315 OFFCURVE",
"123 248 OFFCURVE",
"168 187 CURVE SMOOTH",
"259 65 OFFCURVE",
"428 -10 OFFCURVE",
"613 -10 CURVE SMOOTH"
);
},
{
closed = 1;
nodes = (
"702 -392 OFFCURVE",
"743 -346 OFFCURVE",
"743 -269 CURVE SMOOTH",
"743 -192 OFFCURVE",
"702 -149 OFFCURVE",
"630 -149 CURVE SMOOTH",
"559 -149 OFFCURVE",
"520 -192 OFFCURVE",
"520 -269 CURVE SMOOTH",
"520 -346 OFFCURVE",
"561 -392 OFFCURVE",
"630 -392 CURVE SMOOTH"
);
},
{
closed = 1;
nodes = (
"744 217 OFFCURVE",
"722 267 OFFCURVE",
"722 318 CURVE SMOOTH",
"722 379 OFFCURVE",
"768 427 OFFCURVE",
"829 427 CURVE SMOOTH",
"889 427 OFFCURVE",
"926 383 OFFCURVE",
"926 331 CURVE SMOOTH",
"926 256 OFFCURVE",
"871 201 OFFCURVE",
"787 169 CURVE"
);
}
);
width = 1191;
}
);
note = ktRHa;
unicode = 1109C;
},
{
glyphname = ktNNa;
lastChange = "2016-11-10 17:42:20 +0000";
layers = (
{
layerId = "CE2B0BEB-5EFE-47CF-A34E-B4149D2EF609";
paths = (
{
closed = 1;
nodes = (
"345 0 LINE",
"345 562 LINE",
"685 562 LINE",
"685 0 LINE",
"850 0 LINE",
"850 562 LINE",
"1190 562 LINE",
"1190 0 LINE",
"1355 0 LINE",
"1355 1274 LINE",
"1190 1274 LINE",
"1190 707 LINE",
"850 707 LINE",
"850 1274 LINE",
"685 1274 LINE",
"685 707 LINE",
"345 707 LINE",
"345 1274 LINE",
"180 1274 LINE",
"180 0 LINE"
);
}
);
width = 1525;
}
);
note = ktNNa;
unicode = 1109D;
},
{
glyphname = ktTa;
lastChange = "2016-11-10 17:42:20 +0000";
layers = (
{
layerId = "CE2B0BEB-5EFE-47CF-A34E-B4149D2EF609";
paths = (
{
closed = 1;
nodes = (
"982 0 LINE",
"982 1274 LINE",
"862 1274 LINE",
"637 1201 OFFCURVE",
"479 1139 OFFCURVE",
"387 1090 CURVE SMOOTH",
"203 991 OFFCURVE",
"120 879 OFFCURVE",
"120 718 CURVE SMOOTH",
"120 583 OFFCURVE",
"194 410 OFFCURVE",
"342 199 CURVE",
"457 273 LINE",
"398 367 OFFCURVE",
"359 433 OFFCURVE",
"341 470 CURVE SMOOTH",
"305 545 OFFCURVE",
"285 614 OFFCURVE",
"285 691 CURVE SMOOTH",
"285 806 OFFCURVE",
"344 881 OFFCURVE",
"440 939 CURVE SMOOTH",
"536 997 OFFCURVE",
"670 1037 OFFCURVE",
"819 1082 CURVE",
"822 1079 LINE",
"819 1066 OFFCURVE",
"817 1021 OFFCURVE",
"817 944 CURVE SMOOTH",
"817 0 LINE"
);
}
);
width = 1152;
}
);
note = ktTa;
unicode = 1109E;
},
{
glyphname = ktTHa;
lastChange = "2016-11-10 17:42:20 +0000";
layers = (
{
layerId = "CE2B0BEB-5EFE-47CF-A34E-B4149D2EF609";
paths = (
{
closed = 1;
nodes = (
"1029 0 LINE",
"1029 1274 LINE",
"864 1274 LINE",
"864 507 LINE",
"791 444 OFFCURVE",
"699 413 OFFCURVE",
"589 413 CURVE SMOOTH",
"476 413 OFFCURVE",
"372 460 OFFCURVE",
"304 533 CURVE",
"381 587 LINE SMOOTH",
"600 738 OFFCURVE",
"687 869 OFFCURVE",
"687 1022 CURVE SMOOTH",
"687 1171 OFFCURVE",
"573 1284 OFFCURVE",
"416 1284 CURVE SMOOTH",
"287 1284 OFFCURVE",
"198 1198 OFFCURVE",
"198 1077 CURVE SMOOTH",
"198 966 OFFCURVE",
"258 875 OFFCURVE",
"383 779 CURVE",
"333 732 OFFCURVE",
"259 678 OFFCURVE",
"160 616 CURVE SMOOTH",
"90 571 LINE",
"246 366 OFFCURVE",
"425 268 OFFCURVE",
"610 268 CURVE SMOOTH",
"706 268 OFFCURVE",
"791 288 OFFCURVE",
"864 327 CURVE",
"869 327 LINE",
"866 316 OFFCURVE",
"864 277 OFFCURVE",
"864 212 CURVE SMOOTH",
"864 0 LINE"
);
},
{
closed = 1;
nodes = (
"388 933 OFFCURVE",
"353 990 OFFCURVE",
"353 1057 CURVE SMOOTH",
"353 1108 OFFCURVE",
"380 1149 OFFCURVE",
"431 1149 CURVE SMOOTH",
"482 1149 OFFCURVE",
"522 1102 OFFCURVE",
"522 1039 CURVE SMOOTH",
"522 982 OFFCURVE",
"503 926 OFFCURVE",
"464 869 CURVE"
);
}
);
width = 1199;
}
);
note = ktTHa;
unicode = 1109F;
},
{
glyphname = ktDa;
lastChange = "2016-11-10 17:42:20 +0000";
layers = (
{
layerId = "CE2B0BEB-5EFE-47CF-A34E-B4149D2EF609";
paths = (
{
closed = 1;
nodes = (
"671 -10 OFFCURVE",
"784 22 OFFCURVE",
"889 87 CURVE",
"839 234 LINE",
"741 167 OFFCURVE",
"637 134 OFFCURVE",
"528 134 CURVE SMOOTH",
"383 134 OFFCURVE",
"285 221 OFFCURVE",
"285 354 CURVE SMOOTH",
"285 523 OFFCURVE",
"413 597 OFFCURVE",
"742 597 CURVE",
"722 762 LINE",
"596 762 OFFCURVE",
"489 748 OFFCURVE",
"401 720 CURVE",
"346 775 OFFCURVE",
"319 839 OFFCURVE",
"319 913 CURVE SMOOTH",
"319 1069 OFFCURVE",
"447 1139 OFFCURVE",
"687 1139 CURVE",
"676 1284 LINE",
"333 1284 OFFCURVE",
"153 1164 OFFCURVE",
"153 943 CURVE SMOOTH",
"153 844 OFFCURVE",
"196 752 OFFCURVE",
"283 669 CURVE",
"174 602 OFFCURVE",
"120 504 OFFCURVE",
"120 375 CURVE SMOOTH",
"120 150 OFFCURVE",
"295 -10 OFFCURVE",
"550 -10 CURVE SMOOTH"
);
}
);
width = 909;
}
);
note = ktDa;
unicode = 110A0;
},
{
glyphname = ktDHa;
lastChange = "2016-11-10 17:37:31 +0000";
layers = (
{
layerId = "CE2B0BEB-5EFE-47CF-A34E-B4149D2EF609";
paths = (
{
closed = 1;
nodes = (
"1048 0 LINE",
"1048 1274 LINE",
"883 1274 LINE",
"883 512 LINE",
"779 440 OFFCURVE",
"664 404 OFFCURVE",
"538 404 CURVE SMOOTH",
"389 404 OFFCURVE",
"285 464 OFFCURVE",
"285 564 CURVE SMOOTH",
"285 689 OFFCURVE",
"432 757 OFFCURVE",
"692 757 CURVE",
"395 1284 LINE",
"261 1208 LINE",
"459 900 LINE",
"244 851 OFFCURVE",
"120 737 OFFCURVE",
"120 585 CURVE SMOOTH",
"120 392 OFFCURVE",
"303 260 OFFCURVE",
"560 260 CURVE SMOOTH",
"679 260 OFFCURVE",
"787 286 OFFCURVE",
"883 337 CURVE",
"888 337 LINE",
"885 326 OFFCURVE",
"883 287 OFFCURVE",
"883 221 CURVE SMOOTH",
"883 0 LINE"
);
}
);
width = 1218;
}
);
note = ktDHa;
unicode = 110A1;
},
{
glyphname = ktNa;
lastChange = "2016-11-10 17:42:20 +0000";
layers = (
{
layerId = "CE2B0BEB-5EFE-47CF-A34E-B4149D2EF609";
paths = (
{
closed = 1;
nodes = (
"1062 0 LINE",
"1062 1274 LINE",
"942 1274 LINE",
"766 1209 OFFCURVE",
"614 1135 OFFCURVE",
"485 1052 CURVE SMOOTH",
"227 885 OFFCURVE",
"90 701 OFFCURVE",
"90 525 CURVE SMOOTH",
"90 357 OFFCURVE",
"199 244 OFFCURVE",
"363 244 CURVE SMOOTH",
"515 244 OFFCURVE",
"618 356 OFFCURVE",
"618 512 CURVE SMOOTH",
"618 633 OFFCURVE",
"576 739 OFFCURVE",
"475 851 CURVE",
"595 948 OFFCURVE",
"736 1028 OFFCURVE",
"897 1089 CURVE",
"907 1089 LINE",
"900 1062 OFFCURVE",
"897 1017 OFFCURVE",
"897 954 CURVE SMOOTH",
"897 0 LINE"
);
},
{
closed = 1;
nodes = (
"289 389 OFFCURVE",
"255 434 OFFCURVE",
"255 498 CURVE SMOOTH",
"255 583 OFFCURVE",
"295 669 OFFCURVE",
"375 758 CURVE",
"427 699 OFFCURVE",
"453 630 OFFCURVE",
"453 551 CURVE SMOOTH",
"453 450 OFFCURVE",
"412 389 OFFCURVE",
"345 389 CURVE SMOOTH"
);
}
);
width = 1232;
}
);
note = ktNa;
unicode = 110A2;
},
{
glyphname = ktPa;
lastChange = "2016-11-10 17:42:20 +0000";
layers = (
{
layerId = "CE2B0BEB-5EFE-47CF-A34E-B4149D2EF609";
paths = (
{
closed = 1;
nodes = (
"937 0 LINE",
"937 1274 LINE",
"772 1274 LINE",
"772 661 LINE",
"704 582 OFFCURVE",
"602 529 OFFCURVE",
"517 529 CURVE SMOOTH",
"394 529 OFFCURVE",
"325 607 OFFCURVE",
"325 755 CURVE SMOOTH",
"325 1274 LINE",
"160 1274 LINE",
"160 775 LINE SMOOTH",
"160 531 OFFCURVE",
"301 385 OFFCURVE",
"532 385 CURVE SMOOTH",
"628 385 OFFCURVE",
"721 420 OFFCURVE",
"772 463 CURVE",
"777 463 LINE",
"774 440 OFFCURVE",
"772 383 OFFCURVE",
"772 292 CURVE SMOOTH",
"772 0 LINE"
);
}
);
width = 1107;
}
);
note = ktPa;
unicode = 110A3;
},
{
glyphname = ktPHa;
lastChange = "2016-11-10 17:42:20 +0000";
layers = (
{
layerId = "CE2B0BEB-5EFE-47CF-A34E-B4149D2EF609";
paths = (
{
closed = 1;
nodes = (
"1120 -50 OFFCURVE",
"1269 48 OFFCURVE",
"1269 195 CURVE SMOOTH",
"1269 331 OFFCURVE",
"1160 438 OFFCURVE",
"1013 438 CURVE SMOOTH",
"901 438 OFFCURVE",
"814 353 OFFCURVE",
"814 248 CURVE SMOOTH",
"814 184 OFFCURVE",
"842 126 OFFCURVE",
"898 75 CURVE",
"886 75 LINE SMOOTH",
"837 75 OFFCURVE",
"780 88 OFFCURVE",
"715 115 CURVE SMOOTH",
"583 167 OFFCURVE",
"427 277 OFFCURVE",
"320 388 CURVE",
"479 477 OFFCURVE",
"599 563 OFFCURVE",
"679 647 CURVE",
"800 589 OFFCURVE",
"945 537 OFFCURVE",
"1115 492 CURVE",
"1161 526 LINE",
"1161 1274 LINE",
"996 1274 LINE",
"996 667 LINE",
"918 690 OFFCURVE",
"840 718 OFFCURVE",
"762 752 CURVE",
"806 821 OFFCURVE",
"828 894 OFFCURVE",
"828 969 CURVE SMOOTH",
"828 1024 OFFCURVE",
"815 1077 OFFCURVE",
"789 1126 CURVE SMOOTH",
"737 1224 OFFCURVE",
"638 1284 OFFCURVE",
"519 1284 CURVE SMOOTH",
"380 1284 OFFCURVE",
"286 1196 OFFCURVE",
"286 1071 CURVE SMOOTH",
"286 946 OFFCURVE",
"370 831 OFFCURVE",
"537 724 CURVE",
"475 663 OFFCURVE",
"369 590 OFFCURVE",
"218 503 CURVE SMOOTH",
"94 430 LINE",
"358 131 OFFCURVE",
"661 -50 OFFCURVE",
"917 -50 CURVE SMOOTH"
);
},
{
closed = 1;
nodes = (
"979 136 OFFCURVE",
"959 175 OFFCURVE",
"959 216 CURVE SMOOTH",
"959 261 OFFCURVE",
"990 293 OFFCURVE",
"1033 293 CURVE SMOOTH",
"1080 293 OFFCURVE",
"1114 260 OFFCURVE",
"1114 215 CURVE SMOOTH",
"1114 161 OFFCURVE",
"1082 122 OFFCURVE",
"1019 97 CURVE"
);
},
{
closed = 1;
nodes = (
"507 898 OFFCURVE",
"451 973 OFFCURVE",
"451 1051 CURVE SMOOTH",
"451 1107 OFFCURVE",
"486 1139 OFFCURVE",
"535 1139 CURVE SMOOTH",
"610 1139 OFFCURVE",
"663 1074 OFFCURVE",
"663 987 CURVE SMOOTH",
"663 930 OFFCURVE",
"648 877 OFFCURVE",
"619 827 CURVE"
);
}
);
width = 1439;
}
);
note = ktPHa;
unicode = 110A4;
},
{
glyphname = ktBa;
lastChange = "2016-11-10 17:37:31 +0000";
layers = (
{
layerId = "CE2B0BEB-5EFE-47CF-A34E-B4149D2EF609";
paths = (
{
closed = 1;
nodes = (
"993 0 LINE",
"993 1274 LINE",
"828 1274 LINE",
"828 588 LINE",
"741 513 OFFCURVE",
"642 476 OFFCURVE",
"530 476 CURVE SMOOTH",
"370 476 OFFCURVE",
"255 581 OFFCURVE",
"255 742 CURVE SMOOTH",
"255 895 OFFCURVE",
"368 1002 OFFCURVE",
"524 1002 CURVE SMOOTH",
"570 1002 OFFCURVE",
"614 993 OFFCURVE",
"657 975 CURVE",
"712 1105 LINE",
"632 1146 OFFCURVE",
"577 1159 OFFCURVE",
"506 1159 CURVE SMOOTH",
"433 1159 OFFCURVE",
"364 1141 OFFCURVE",
"300 1104 CURVE SMOOTH",
"171 1031 OFFCURVE",
"90 897 OFFCURVE",
"90 757 CURVE SMOOTH",
"90 678 OFFCURVE",
"110 606 OFFCURVE",
"149 541 CURVE SMOOTH",
"227 409 OFFCURVE",
"375 331 OFFCURVE",
"550 331 CURVE SMOOTH",
"653 331 OFFCURVE",
"745 354 OFFCURVE",
"828 399 CURVE",
"833 399 LINE",
"830 388 OFFCURVE",
"828 349 OFFCURVE",
"828 283 CURVE SMOOTH",
"828 0 LINE"
);
}
);
width = 1163;
}
);
note = ktBa;
unicode = 110A5;
},
{
glyphname = ktBHa;
lastChange = "2016-11-10 17:42:20 +0000";
layers = (
{
layerId = "CE2B0BEB-5EFE-47CF-A34E-B4149D2EF609";
paths = (
{
closed = 1;
nodes = (
"1141 0 LINE",
"1141 1274 LINE",
"1021 1274 LINE",
"853 1187 OFFCURVE",
"715 1108 OFFCURVE",
"607 1037 CURVE",
"572 1112 OFFCURVE",
"525 1194 OFFCURVE",
"467 1284 CURVE",
"365 1275 OFFCURVE",
"246 1247 OFFCURVE",
"110 1201 CURVE",
"150 1073 LINE",
"238 1106 OFFCURVE",
"315 1128 OFFCURVE",
"382 1140 CURVE",
"422 1079 OFFCURVE",
"456 1016 OFFCURVE",
"485 950 CURVE",
"294 801 OFFCURVE",
"199 653 OFFCURVE",
"199 505 CURVE SMOOTH",
"199 340 OFFCURVE",
"315 214 OFFCURVE",
"472 214 CURVE SMOOTH",
"632 214 OFFCURVE",
"737 334 OFFCURVE",
"737 522 CURVE SMOOTH",
"737 639 OFFCURVE",
"713 764 OFFCURVE",
"666 895 CURVE",
"745 950 OFFCURVE",
"849 1011 OFFCURVE",
"978 1077 CURVE",
"981 1074 LINE",
"978 1049 OFFCURVE",
"976 999 OFFCURVE",
"976 924 CURVE SMOOTH",
"976 0 LINE"
);
},
{
closed = 1;
nodes = (
"398 359 OFFCURVE",
"364 402 OFFCURVE",
"364 478 CURVE SMOOTH",
"364 583 OFFCURVE",
"423 688 OFFCURVE",
"540 795 CURVE",
"561 711 OFFCURVE",
"572 633 OFFCURVE",
"572 561 CURVE SMOOTH",
"572 437 OFFCURVE",
"527 359 OFFCURVE",
"455 359 CURVE SMOOTH"
);
}
);
width = 1311;
}
);
note = ktBHa;
unicode = 110A6;
},
{
glyphname = ktMa;
lastChange = "2016-11-10 17:42:20 +0000";
layers = (
{
layerId = "CE2B0BEB-5EFE-47CF-A34E-B4149D2EF609";
paths = (
{
closed = 1;
nodes = (
"1056 0 LINE",
"1056 1274 LINE",
"936 1274 LINE",
"833 1141 OFFCURVE",
"739 1064 OFFCURVE",
"492 941 CURVE",
"430 1053 OFFCURVE",
"353 1167 OFFCURVE",
"262 1284 CURVE",
"145 1198 LINE",
"238 1080 OFFCURVE",
"313 970 OFFCURVE",
"370 869 CURVE",
"223 770 OFFCURVE",
"149 657 OFFCURVE",
"149 530 CURVE SMOOTH",
"149 377 OFFCURVE",
"256 274 OFFCURVE",
"397 274 CURVE SMOOTH",
"541 274 OFFCURVE",
"632 369 OFFCURVE",
"632 522 CURVE SMOOTH",
"632 602 OFFCURVE",
"608 695 OFFCURVE",
"561 802 CURVE",
"592 819 LINE SMOOTH",
"763 910 OFFCURVE",
"832 956 OFFCURVE",
"893 1017 CURVE",
"896 1014 LINE",
"893 996 OFFCURVE",
"891 951 OFFCURVE",
"891 879 CURVE SMOOTH",
"891 0 LINE"
);
},
{
closed = 1;
nodes = (
"343 419 OFFCURVE",
"314 453 OFFCURVE",
"314 513 CURVE SMOOTH",
"314 587 OFFCURVE",
"356 657 OFFCURVE",
"439 722 CURVE",
"464 653 OFFCURVE",
"477 595 OFFCURVE",
"477 546 CURVE SMOOTH",
"477 474 OFFCURVE",
"446 419 OFFCURVE",
"390 419 CURVE SMOOTH"
);
}
);
width = 1226;
}
);
note = ktMa;
unicode = 110A7;
},
{
glyphname = ktYa;
lastChange = "2016-11-10 17:42:20 +0000";
layers = (
{
layerId = "CE2B0BEB-5EFE-47CF-A34E-B4149D2EF609";
paths = (
{
closed = 1;
nodes = (
"965 0 LINE",
"965 1274 LINE",
"800 1274 LINE",
"800 484 LINE",
"705 423 OFFCURVE",
"602 393 OFFCURVE",
"493 393 CURVE SMOOTH",
"342 393 OFFCURVE",
"255 445 OFFCURVE",
"255 538 CURVE SMOOTH",
"255 603 OFFCURVE",
"307 665 OFFCURVE",
"416 742 CURVE SMOOTH",
"524 819 OFFCURVE",
"577 888 OFFCURVE",
"577 961 CURVE SMOOTH",
"577 1061 OFFCURVE",
"540 1133 OFFCURVE",
"383 1284 CURVE",
"285 1196 LINE",
"342 1139 OFFCURVE",
"378 1098 OFFCURVE",
"392 1073 CURVE",
"405 1047 OFFCURVE",
"412 1019 OFFCURVE",
"412 988 CURVE SMOOTH",
"412 960 OFFCURVE",
"400 932 OFFCURVE",
"376 904 CURVE SMOOTH",
"352 875 OFFCURVE",
"310 839 OFFCURVE",
"251 795 CURVE SMOOTH",
"142 712 OFFCURVE",
"90 640 OFFCURVE",
"90 563 CURVE SMOOTH",
"90 386 OFFCURVE",
"278 248 OFFCURVE",
"514 248 CURVE SMOOTH",
"609 248 OFFCURVE",
"705 268 OFFCURVE",
"800 309 CURVE",
"805 306 LINE",
"802 295 OFFCURVE",
"800 257 OFFCURVE",
"800 193 CURVE SMOOTH",
"800 0 LINE"
);
},
{
closed = 1;
nodes = (
"552 -169 OFFCURVE",
"593 -123 OFFCURVE",
"593 -46 CURVE SMOOTH",
"593 31 OFFCURVE",
"552 74 OFFCURVE",
"480 74 CURVE SMOOTH",
"409 74 OFFCURVE",
"370 31 OFFCURVE",
"370 -46 CURVE SMOOTH",
"370 -123 OFFCURVE",
"411 -169 OFFCURVE",
"480 -169 CURVE SMOOTH"
);
}
);
width = 1135;
}
);
note = ktYa;
unicode = 110A8;
},
{
glyphname = ktRa;
lastChange = "2016-11-10 17:42:20 +0000";
layers = (
{
layerId = "CE2B0BEB-5EFE-47CF-A34E-B4149D2EF609";
paths = (
{
closed = 1;
nodes = (
"757 0 LINE",
"757 1274 LINE",
"637 1274 LINE",
"70 758 LINE",
"190 631 LINE",
"594 1025 LINE",
"597 1023 LINE",
"594 1006 OFFCURVE",
"592 956 OFFCURVE",
"592 873 CURVE SMOOTH",
"592 0 LINE"
);
}
);
width = 927;
}
);
note = ktRa;
unicode = 110A9;
},
{
glyphname = ktLa;
lastChange = "2016-11-10 17:42:20 +0000";
layers = (
{
layerId = "CE2B0BEB-5EFE-47CF-A34E-B4149D2EF609";
paths = (
{
closed = 1;
nodes = (
"922 -10 OFFCURVE",
"1090 219 OFFCURVE",
"1090 620 CURVE SMOOTH",
"1090 1041 OFFCURVE",
"914 1284 OFFCURVE",
"609 1284 CURVE SMOOTH",
"512 1284 OFFCURVE",
"427 1259 OFFCURVE",
"352 1210 CURVE SMOOTH",
"202 1110 OFFCURVE",
"110 907 OFFCURVE",
"110 675 CURVE SMOOTH",
"110 250 OFFCURVE",
"302 -10 OFFCURVE",
"622 -10 CURVE SMOOTH"
);
},
{
closed = 1;
nodes = (
"445 135 OFFCURVE",
"319 260 OFFCURVE",
"292 452 CURVE",
"383 507 OFFCURVE",
"509 544 OFFCURVE",
"616 544 CURVE SMOOTH",
"719 544 OFFCURVE",
"819 519 OFFCURVE",
"915 469 CURVE",
"915 257 OFFCURVE",
"799 135 OFFCURVE",
"602 135 CURVE SMOOTH"
);
},
{
closed = 1;
nodes = (
"791 667 OFFCURVE",
"701 688 OFFCURVE",
"596 688 CURVE SMOOTH",
"495 688 OFFCURVE",
"365 657 OFFCURVE",
"276 609 CURVE",
"275 613 LINE",
"275 624 LINE SMOOTH",
"275 945 OFFCURVE",
"410 1139 OFFCURVE",
"626 1139 CURVE SMOOTH",
"827 1139 OFFCURVE",
"925 978 OFFCURVE",
"925 639 CURVE",
"924 613 LINE",
"924 598 LINE"
);
}
);
width = 1220;
}
);
note = ktLa;
unicode = 110AA;
},
{
glyphname = ktVa;
lastChange = "2016-11-10 17:42:20 +0000";
layers = (
{
layerId = "CE2B0BEB-5EFE-47CF-A34E-B4149D2EF609";
paths = (
{
closed = 1;
nodes = (
"1003 0 LINE",
"1003 1274 LINE",
"838 1274 LINE",
"838 588 LINE",
"751 513 OFFCURVE",
"652 476 OFFCURVE",
"540 476 CURVE SMOOTH",
"380 476 OFFCURVE",
"265 581 OFFCURVE",
"265 742 CURVE SMOOTH",
"265 895 OFFCURVE",
"378 1002 OFFCURVE",
"534 1002 CURVE SMOOTH",
"580 1002 OFFCURVE",
"624 993 OFFCURVE",
"667 975 CURVE",
"722 1105 LINE",
"642 1146 OFFCURVE",
"587 1159 OFFCURVE",
"516 1159 CURVE SMOOTH",
"443 1159 OFFCURVE",
"374 1141 OFFCURVE",
"310 1104 CURVE SMOOTH",
"181 1031 OFFCURVE",
"100 897 OFFCURVE",
"100 757 CURVE SMOOTH",
"100 678 OFFCURVE",
"120 606 OFFCURVE",
"159 541 CURVE SMOOTH",
"237 409 OFFCURVE",
"385 331 OFFCURVE",
"560 331 CURVE SMOOTH",
"663 331 OFFCURVE",
"755 354 OFFCURVE",
"838 399 CURVE",
"838 0 LINE"
);
},
{
closed = 1;
nodes = (
"582 -133 OFFCURVE",
"623 -87 OFFCURVE",
"623 -10 CURVE SMOOTH",
"623 67 OFFCURVE",
"582 110 OFFCURVE",
"510 110 CURVE SMOOTH",
"439 110 OFFCURVE",
"400 67 OFFCURVE",
"400 -10 CURVE SMOOTH",
"400 -87 OFFCURVE",
"441 -133 OFFCURVE",
"510 -133 CURVE SMOOTH"
);
}
);
width = 1173;
}
);
note = ktVa;
unicode = 110AB;
},
{
glyphname = ktSHa;
lastChange = "2016-11-10 17:42:20 +0000";
layers = (
{
layerId = "CE2B0BEB-5EFE-47CF-A34E-B4149D2EF609";
paths = (
{
closed = 1;
nodes = (
"799 76 LINE",
"688 234 OFFCURVE",
"604 346 OFFCURVE",
"547 411 CURVE",
"616 448 OFFCURVE",
"673 497 OFFCURVE",
"719 557 CURVE",
"783 528 OFFCURVE",
"882 489 OFFCURVE",
"1016 438 CURVE",
"1016 0 LINE",
"1181 0 LINE",
"1181 1274 LINE",
"1016 1274 LINE",
"1016 580 LINE",
"930 610 OFFCURVE",
"853 640 OFFCURVE",
"786 670 CURVE",
"814 736 OFFCURVE",
"828 806 OFFCURVE",
"828 879 CURVE SMOOTH",
"828 1130 OFFCURVE",
"710 1284 OFFCURVE",
"509 1284 CURVE SMOOTH",
"356 1284 OFFCURVE",
"256 1186 OFFCURVE",
"256 1046 CURVE SMOOTH",
"256 889 OFFCURVE",
"353 757 OFFCURVE",
"574 630 CURVE",
"537 583 OFFCURVE",
"490 546 OFFCURVE",
"433 519 CURVE",
"369 568 OFFCURVE",
"307 592 OFFCURVE",
"246 592 CURVE SMOOTH",
"169 592 OFFCURVE",
"120 552 OFFCURVE",
"120 488 CURVE SMOOTH",
"120 407 OFFCURVE",
"207 347 OFFCURVE",
"312 347 CURVE SMOOTH",
"343 347 OFFCURVE",
"373 350 OFFCURVE",
"402 357 CURVE",
"669 -22 LINE"
);
},
{
closed = 1;
nodes = (
"493 830 OFFCURVE",
"421 924 OFFCURVE",
"421 1026 CURVE SMOOTH",
"421 1094 OFFCURVE",
"456 1139 OFFCURVE",
"525 1139 CURVE SMOOTH",
"612 1139 OFFCURVE",
"663 1049 OFFCURVE",
"663 897 CURVE SMOOTH",
"663 842 OFFCURVE",
"655 791 OFFCURVE",
"638 745 CURVE"
);
}
);
width = 1351;
}
);
note = ktSHa;
unicode = 110AC;
},
{
glyphname = ktSSa;
lastChange = "2016-11-10 17:42:20 +0000";
layers = (
{
layerId = "CE2B0BEB-5EFE-47CF-A34E-B4149D2EF609";
paths = (
{
closed = 1;
nodes = (
"897 0 LINE",
"897 1274 LINE",
"732 1274 LINE",
"732 765 LINE",
"315 1274 LINE",
"150 1274 LINE",
"150 821 LINE SMOOTH",
"150 564 OFFCURVE",
"294 405 OFFCURVE",
"527 405 CURVE SMOOTH",
"607 405 OFFCURVE",
"689 436 OFFCURVE",
"732 473 CURVE",
"737 473 LINE",
"734 456 OFFCURVE",
"732 399 OFFCURVE",
"732 302 CURVE SMOOTH",
"732 0 LINE"
);
},
{
closed = 1;
nodes = (
"371 549 OFFCURVE",
"315 615 OFFCURVE",
"315 756 CURVE SMOOTH",
"315 1061 LINE",
"581 726 LINE SMOOTH",
"612 685 OFFCURVE",
"652 655 OFFCURVE",
"700 636 CURVE",
"639 578 OFFCURVE",
"573 549 OFFCURVE",
"502 549 CURVE SMOOTH"
);
}
);
width = 1067;
}
);
note = ktSSa;
unicode = 110AD;
},
{
glyphname = ktSa;
lastChange = "2016-11-10 17:42:20 +0000";
layers = (
{
layerId = "CE2B0BEB-5EFE-47CF-A34E-B4149D2EF609";
paths = (
{
closed = 1;
nodes = (
"853 57 LINE",
"707 277 LINE SMOOTH",
"650 364 OFFCURVE",
"600 434 OFFCURVE",
"559 487 CURVE",
"629 514 OFFCURVE",
"688 551 OFFCURVE",
"737 600 CURVE",
"808 567 OFFCURVE",
"885 550 OFFCURVE",
"968 550 CURVE SMOOTH",
"1023 550 OFFCURVE",
"1069 555 OFFCURVE",
"1106 564 CURVE",
"1106 0 LINE",
"1271 0 LINE",
"1271 1274 LINE",
"1106 1274 LINE",
"1106 716 LINE",
"1067 699 OFFCURVE",
"1016 690 OFFCURVE",
"953 690 CURVE SMOOTH",
"902 690 OFFCURVE",
"856 697 OFFCURVE",
"813 710 CURVE",
"836 761 OFFCURVE",
"848 817 OFFCURVE",
"848 879 CURVE SMOOTH",
"848 953 OFFCURVE",
"831 1021 OFFCURVE",
"797 1084 CURVE SMOOTH",
"729 1208 OFFCURVE",
"602 1284 OFFCURVE",
"445 1284 CURVE SMOOTH",
"336 1284 OFFCURVE",
"233 1243 OFFCURVE",
"136 1162 CURVE",
"224 1039 LINE",
"265 1071 OFFCURVE",
"295 1092 OFFCURVE",
"316 1103 CURVE SMOOTH",
"357 1124 OFFCURVE",
"404 1139 OFFCURVE",
"456 1139 CURVE SMOOTH",
"593 1139 OFFCURVE",
"683 1048 OFFCURVE",
"683 897 CURVE SMOOTH",
"683 766 OFFCURVE",
"607 661 OFFCURVE",
"452 608 CURVE",
"379 677 OFFCURVE",
"310 712 OFFCURVE",
"246 712 CURVE SMOOTH",
"165 712 OFFCURVE",
"120 667 OFFCURVE",
"120 603 CURVE SMOOTH",
"120 515 OFFCURVE",
"217 447 OFFCURVE",
"342 447 CURVE",
"422 452 LINE",
"709 -22 LINE"
);
}
);
width = 1441;
}
);
note = ktSa;
unicode = 110AE;
},
{
glyphname = ktHa;
lastChange = "2016-11-10 17:42:20 +0000";
layers = (
{
layerId = "CE2B0BEB-5EFE-47CF-A34E-B4149D2EF609";
paths = (
{
closed = 1;
nodes = (
"758 -75 LINE",
"623 8 OFFCURVE",
"525 76 OFFCURVE",
"463 130 CURVE SMOOTH",
"338 238 OFFCURVE",
"285 337 OFFCURVE",
"285 444 CURVE SMOOTH",
"285 605 OFFCURVE",
"400 705 OFFCURVE",
"585 705 CURVE SMOOTH",
"709 705 OFFCURVE",
"782 648 OFFCURVE",
"782 563 CURVE SMOOTH",
"782 487 OFFCURVE",
"730 424 OFFCURVE",
"659 424 CURVE SMOOTH",
"608 424 OFFCURVE",
"564 438 OFFCURVE",
"526 466 CURVE",
"462 373 LINE",
"526 310 OFFCURVE",
"598 279 OFFCURVE",
"679 279 CURVE SMOOTH",
"830 279 OFFCURVE",
"946 387 OFFCURVE",
"946 543 CURVE SMOOTH",
"946 602 OFFCURVE",
"930 655 OFFCURVE",
"899 702 CURVE SMOOTH",
"835 797 OFFCURVE",
"719 850 OFFCURVE",
"575 850 CURVE SMOOTH",
"511 850 OFFCURVE",
"448 839 OFFCURVE",
"387 818 CURVE",
"366 856 OFFCURVE",
"356 898 OFFCURVE",
"356 944 CURVE SMOOTH",
"356 1080 OFFCURVE",
"467 1139 OFFCURVE",
"704 1139 CURVE",
"693 1284 LINE",
"366 1284 OFFCURVE",
"190 1174 OFFCURVE",
"190 974 CURVE SMOOTH",
"190 899 OFFCURVE",
"217 826 OFFCURVE",
"270 755 CURVE",
"178 686 OFFCURVE",
"120 582 OFFCURVE",
"120 454 CURVE SMOOTH",
"120 386 OFFCURVE",
"138 319 OFFCURVE",
"173 254 CURVE SMOOTH",
"243 122 OFFCURVE",
"368 7 OFFCURVE",
"684 -185 CURVE"
);
}
);
width = 1056;
}
);
note = ktHa;
unicode = 110AF;
},
{
glyphname = ktVSAA;
lastChange = "2016-11-10 17:37:31 +0000";
layers = (
{
layerId = "CE2B0BEB-5EFE-47CF-A34E-B4149D2EF609";
paths = (
{
closed = 1;
nodes = (
"335 0 LINE",
"335 1274 LINE",
"170 1274 LINE",
"170 0 LINE"
);
}
);
width = 505;
}
);
note = ktVSAA;
unicode = 110B0;
},
{
glyphname = ktVSI;
lastChange = "2016-11-10 17:37:31 +0000";
layers = (
{
layerId = "CE2B0BEB-5EFE-47CF-A34E-B4149D2EF609";
paths = (
{
closed = 1;
nodes = (
"345 0 LINE",
"345 1184 LINE SMOOTH",
"345 1488 OFFCURVE",
"461 1640 OFFCURVE",
"714 1640 CURVE SMOOTH",
"917 1640 OFFCURVE",
"1135 1569 OFFCURVE",
"1438 1377 CURVE",
"1505 1473 LINE",
"1162 1698 OFFCURVE",
"916 1785 OFFCURVE",
"696 1785 CURVE SMOOTH",
"357 1785 OFFCURVE",
"180 1585 OFFCURVE",
"180 1204 CURVE SMOOTH",
"180 0 LINE"
);
}
);
width = 501;
}
);
note = ktVSI;
unicode = 110B1;
},
{
glyphname = ktVSII;
lastChange = "2016-11-10 17:42:20 +0000";
layers = (
{
layerId = "CE2B0BEB-5EFE-47CF-A34E-B4149D2EF609";
paths = (
{
closed = 1;
nodes = (
"346 0 LINE",
"346 1244 LINE SMOOTH",
"346 1641 OFFCURVE",
"203 1856 OFFCURVE",
"-65 1856 CURVE SMOOTH",
"-252 1856 OFFCURVE",
"-379 1740 OFFCURVE",
"-379 1564 CURVE SMOOTH",
"-379 1461 OFFCURVE",
"-330 1361 OFFCURVE",
"-243 1274 CURVE",
"-131 1348 LINE",
"-176 1405 OFFCURVE",
"-214 1465 OFFCURVE",
"-214 1544 CURVE SMOOTH",
"-214 1645 OFFCURVE",
"-153 1711 OFFCURVE",
"-45 1711 CURVE SMOOTH",
"103 1711 OFFCURVE",
"181 1577 OFFCURVE",
"181 1274 CURVE SMOOTH",
"181 0 LINE"
);
}
);
width = 516;
}
);
note = ktVSII;
unicode = 110B2;
},
{
glyphname = ktVSU;
lastChange = "2016-11-10 17:42:20 +0000";
layers = (
{
layerId = "CE2B0BEB-5EFE-47CF-A34E-B4149D2EF609";
paths = (
{
closed = 1;
nodes = (
"-489 -462 OFFCURVE",
"-363 -356 OFFCURVE",
"-363 -189 CURVE SMOOTH",
"-363 -25 OFFCURVE",
"-484 81 OFFCURVE",
"-668 81 CURVE SMOOTH",
"-757 81 LINE",
"-757 -20 LINE",
"-610 -20 OFFCURVE",
"-528 -76 OFFCURVE",
"-528 -172 CURVE SMOOTH",
"-528 -260 OFFCURVE",
"-599 -317 OFFCURVE",
"-704 -317 CURVE SMOOTH",
"-754 -317 OFFCURVE",
"-801 -307 OFFCURVE",
"-846 -286 CURVE SMOOTH",
"-935 -245 OFFCURVE",
"-1000 -196 OFFCURVE",
"-1141 -32 CURVE",
"-1244 -116 LINE",
"-1177 -200 OFFCURVE",
"-1115 -265 OFFCURVE",
"-1060 -311 CURVE SMOOTH",
"-949 -404 OFFCURVE",
"-827 -462 OFFCURVE",
"-688 -462 CURVE SMOOTH"
);
}
);
width = 0;
}
);
note = ktVSU;
unicode = 110B3;
},
{
glyphname = ktVSUU;
lastChange = "2016-11-10 17:42:20 +0000";
layers = (
{
layerId = "CE2B0BEB-5EFE-47CF-A34E-B4149D2EF609";
paths = (
{
closed = 1;
nodes = (
"-50 -488 LINE",
"-61 -464 OFFCURVE",
"-75 -435 OFFCURVE",
"-91 -401 CURVE SMOOTH",
"-107 -367 OFFCURVE",
"-126 -332 OFFCURVE",
"-149 -295 CURVE SMOOTH",
"-194 -222 OFFCURVE",
"-253 -144 OFFCURVE",
"-326 -87 CURVE SMOOTH",
"-399 -30 OFFCURVE",
"-489 10 OFFCURVE",
"-597 10 CURVE SMOOTH",
"-769 10 OFFCURVE",
"-883 -85 OFFCURVE",
"-883 -230 CURVE SMOOTH",
"-883 -381 OFFCURVE",
"-748 -491 OFFCURVE",
"-563 -491 CURVE",
"-539 -370 LINE",
"-646 -367 OFFCURVE",
"-718 -322 OFFCURVE",
"-718 -247 CURVE SMOOTH",
"-718 -183 OFFCURVE",
"-669 -135 OFFCURVE",
"-581 -135 CURVE SMOOTH",
"-438 -135 OFFCURVE",
"-310 -246 OFFCURVE",
"-197 -468 CURVE SMOOTH",
"-159 -543 LINE"
);
}
);
width = 0;
}
);
note = ktVSUU;
unicode = 110B4;
},
{
glyphname = ktVSE;
lastChange = "2016-11-10 17:42:20 +0000";
layers = (
{
layerId = "CE2B0BEB-5EFE-47CF-A34E-B4149D2EF609";
paths = (
{
closed = 1;
nodes = (
"-161 1489 LINE",
"-1019 1856 LINE",
"-1090 1708 LINE",
"-214 1380 LINE"
);
}
);
width = 0;
}
);
note = ktVSE;
unicode = 110B5;
},
{
glyphname = ktVSAI;
lastChange = "2016-11-10 17:42:20 +0000";
layers = (
{
layerId = "CE2B0BEB-5EFE-47CF-A34E-B4149D2EF609";
paths = (
{
closed = 1;
nodes = (
"-161 1489 LINE",
"-212 1673 OFFCURVE",
"-338 1845 OFFCURVE",
"-590 2097 CURVE",
"-702 1989 LINE",
"-549 1840 LINE SMOOTH",
"-461 1755 OFFCURVE",
"-400 1693 OFFCURVE",
"-366 1653 CURVE SMOOTH",
"-333 1613 OFFCURVE",
"-306 1574 OFFCURVE",
"-286 1535 CURVE",
"-294 1527 LINE",
"-357 1566 OFFCURVE",
"-414 1597 OFFCURVE",
"-465 1619 CURVE SMOOTH",
"-1019 1856 LINE",
"-1090 1708 LINE",
"-214 1380 LINE"
);
}
);
width = 0;
}
);
note = ktVSAI;
unicode = 110B6;
},
{
glyphname = ktVSO;
lastChange = "2016-11-10 17:42:20 +0000";
layers = (
{
layerId = "CE2B0BEB-5EFE-47CF-A34E-B4149D2EF609";
paths = (
{
closed = 1;
nodes = (
"299 1489 LINE",
"-559 1856 LINE",
"-630 1708 LINE",
"246 1380 LINE"
);
},
{
closed = 1;
nodes = (
"341 0 LINE",
"341 1274 LINE",
"176 1274 LINE",
"176 0 LINE"
);
}
);
width = 511;
}
);
note = ktVSO;
unicode = 110B7;
},
{
glyphname = ktVSAU;
lastChange = "2016-11-10 17:42:20 +0000";
layers = (
{
layerId = "CE2B0BEB-5EFE-47CF-A34E-B4149D2EF609";
paths = (
{
closed = 1;
nodes = (
"279 1489 LINE",
"228 1673 OFFCURVE",
"102 1845 OFFCURVE",
"-150 2097 CURVE",
"-262 1989 LINE",
"-109 1840 LINE SMOOTH",
"-21 1755 OFFCURVE",
"40 1693 OFFCURVE",
"74 1653 CURVE SMOOTH",
"107 1613 OFFCURVE",
"134 1574 OFFCURVE",
"154 1535 CURVE",
"146 1527 LINE",
"83 1566 OFFCURVE",
"26 1597 OFFCURVE",
"-25 1619 CURVE SMOOTH",
"-579 1856 LINE",
"-650 1708 LINE",
"226 1380 LINE"
);
},
{
closed = 1;
nodes = (
"325 0 LINE",
"325 1274 LINE",
"160 1274 LINE",
"160 0 LINE"
);
}
);
width = 495;
}
);
note = ktVSAU;
unicode = 110B8;
},
{
glyphname = ktVirama;
lastChange = "2016-11-10 17:42:20 +0000";
layers = (
{
layerId = "CE2B0BEB-5EFE-47CF-A34E-B4149D2EF609";
paths = (
{
closed = 1;
nodes = (
"746 -462 LINE",
"241 -134 LINE",
"149 -272 LINE",
"676 -572 LINE"
);
}
);
width = 0;
}
);
note = ktVirama;
unicode = 110B9;
},
{
glyphname = ktNukta;
lastChange = "2016-11-10 17:42:20 +0000";
layers = (
{
layerId = "CE2B0BEB-5EFE-47CF-A34E-B4149D2EF609";
paths = (
{
closed = 1;
nodes = (
"-148 -410 OFFCURVE",
"-107 -364 OFFCURVE",
"-107 -287 CURVE SMOOTH",
"-107 -210 OFFCURVE",
"-148 -167 OFFCURVE",
"-220 -167 CURVE SMOOTH",
"-291 -167 OFFCURVE",
"-330 -210 OFFCURVE",
"-330 -287 CURVE SMOOTH",
"-330 -364 OFFCURVE",
"-289 -410 OFFCURVE",
"-220 -410 CURVE SMOOTH"
);
}
);
width = 0;
}
);
note = ktNukta;
unicode = 110BA;
},
{
glyphname = ktABB;
lastChange = "2016-11-10 17:42:20 +0000";
layers = (
{
layerId = "CE2B0BEB-5EFE-47CF-A34E-B4149D2EF609";
paths = (
{
closed = 1;
nodes = (
"591 294 OFFCURVE",
"650 310 OFFCURVE",
"701 341 CURVE SMOOTH",
"804 404 OFFCURVE",
"866 521 OFFCURVE",
"866 642 CURVE SMOOTH",
"866 707 OFFCURVE",
"851 767 OFFCURVE",
"821 822 CURVE SMOOTH",
"761 932 OFFCURVE",
"646 998 OFFCURVE",
"509 998 CURVE SMOOTH",
"306 998 OFFCURVE",
"160 855 OFFCURVE",
"160 654 CURVE SMOOTH",
"160 443 OFFCURVE",
"319 294 OFFCURVE",
"524 294 CURVE SMOOTH"
);
},
{
closed = 1;
nodes = (
"394 439 OFFCURVE",
"325 507 OFFCURVE",
"325 644 CURVE SMOOTH",
"325 771 OFFCURVE",
"394 853 OFFCURVE",
"518 853 CURVE SMOOTH",
"640 853 OFFCURVE",
"701 786 OFFCURVE",
"701 652 CURVE SMOOTH",
"701 505 OFFCURVE",
"629 439 OFFCURVE",
"514 439 CURVE SMOOTH"
);
}
);
width = 996;
}
);
note = ktABB;
unicode = 110BB;
},
{
glyphname = ktENU;
lastChange = "2016-11-10 17:42:20 +0000";
layers = (
{
layerId = "CE2B0BEB-5EFE-47CF-A34E-B4149D2EF609";
paths = (
{
closed = 1;
nodes = (
"575 -10 OFFCURVE",
"692 100 OFFCURVE",
"692 247 CURVE SMOOTH",
"692 376 OFFCURVE",
"611 494 OFFCURVE",
"450 601 CURVE",
"569 717 OFFCURVE",
"733 824 OFFCURVE",
"943 921 CURVE",
"943 443 LINE SMOOTH",
"943 139 OFFCURVE",
"1098 0 OFFCURVE",
"1419 0 CURVE SMOOTH",
"2150 0 LINE",
"2150 145 LINE",
"1409 145 LINE SMOOTH",
"1322 145 OFFCURVE",
"1260 154 OFFCURVE",
"1222 172 CURVE SMOOTH",
"1145 207 OFFCURVE",
"1108 281 OFFCURVE",
"1108 421 CURVE SMOOTH",
"1108 1113 LINE",
"990 1113 LINE",
"430 850 OFFCURVE",
"120 558 OFFCURVE",
"120 295 CURVE SMOOTH",
"120 108 OFFCURVE",
"237 -10 OFFCURVE",
"424 -10 CURVE SMOOTH"
);
},
{
closed = 1;
nodes = (
"334 135 OFFCURVE",
"285 196 OFFCURVE",
"285 285 CURVE SMOOTH",
"285 351 OFFCURVE",
"309 419 OFFCURVE",
"356 490 CURVE",
"464 418 OFFCURVE",
"527 350 OFFCURVE",
"527 257 CURVE SMOOTH",
"527 176 OFFCURVE",
"478 135 OFFCURVE",
"414 135 CURVE SMOOTH"
);
}
);
width = 2150;
}
);
note = ktENU;
unicode = 110BC;
},
{
glyphname = ktNUM;
lastChange = "2016-11-10 17:42:20 +0000";
layers = (
{
layerId = "CE2B0BEB-5EFE-47CF-A34E-B4149D2EF609";
paths = (
{
closed = 1;
nodes = (
"575 -10 OFFCURVE",
"692 100 OFFCURVE",
"692 247 CURVE SMOOTH",
"692 376 OFFCURVE",
"611 494 OFFCURVE",
"450 601 CURVE",
"569 717 OFFCURVE",
"733 824 OFFCURVE",
"943 921 CURVE",
"943 443 LINE SMOOTH",
"943 139 OFFCURVE",
"1098 0 OFFCURVE",
"1419 0 CURVE SMOOTH",
"2150 0 LINE",
"2150 145 LINE",
"1409 145 LINE SMOOTH",
"1322 145 OFFCURVE",
"1260 154 OFFCURVE",
"1222 172 CURVE SMOOTH",
"1145 207 OFFCURVE",
"1108 281 OFFCURVE",
"1108 421 CURVE SMOOTH",
"1108 1113 LINE",
"990 1113 LINE",
"430 850 OFFCURVE",
"120 558 OFFCURVE",
"120 295 CURVE SMOOTH",
"120 108 OFFCURVE",
"237 -10 OFFCURVE",
"424 -10 CURVE SMOOTH"
);
},
{
closed = 1;
nodes = (
"334 135 OFFCURVE",
"285 196 OFFCURVE",
"285 285 CURVE SMOOTH",
"285 351 OFFCURVE",
"309 419 OFFCURVE",
"356 490 CURVE",
"464 418 OFFCURVE",
"527 350 OFFCURVE",
"527 257 CURVE SMOOTH",
"527 176 OFFCURVE",
"478 135 OFFCURVE",
"414 135 CURVE SMOOTH"
);
}
);
width = 2150;
}
);
note = ktNUM;
unicode = 110BD;
},
{
glyphname = ktDanda;
lastChange = "2016-11-10 17:37:31 +0000";
layers = (
{
layerId = "CE2B0BEB-5EFE-47CF-A34E-B4149D2EF609";
paths = (
{
closed = 1;
nodes = (
"325 -60 LINE",
"325 1334 LINE",
"180 1334 LINE",
"180 -60 LINE"
);
}
);
width = 505;
}
);
note = ktDanda;
unicode = 110C0;
},
{
glyphname = ktDDanda;
lastChange = "2016-11-10 17:37:31 +0000";
layers = (
{
layerId = "CE2B0BEB-5EFE-47CF-A34E-B4149D2EF609";
paths = (
{
closed = 1;
nodes = (
"725 -60 LINE",
"725 1334 LINE",
"580 1334 LINE",
"580 -60 LINE"
);
},
{
closed = 1;
nodes = (
"325 -60 LINE",
"325 1334 LINE",
"180 1334 LINE",
"180 -60 LINE"
);
}
);
width = 905;
}
);
note = ktDDanda;
unicode = 110C1;
},
{
glyphname = ktKII;
lastChange = "2016-11-10 17:42:20 +0000";
layers = (
{
layerId = "CE2B0BEB-5EFE-47CF-A34E-B4149D2EF609";
paths = (
{
closed = 1;
nodes = (
"892 0 LINE",
"892 603 LINE",
"995 720 OFFCURVE",
"1070 766 OFFCURVE",
"1146 766 CURVE SMOOTH",
"1225 766 OFFCURVE",
"1264 714 OFFCURVE",
"1264 611 CURVE SMOOTH",
"1264 492 OFFCURVE",
"1230 355 OFFCURVE",
"1163 202 CURVE",
"1320 151 LINE",
"1393 311 OFFCURVE",
"1429 458 OFFCURVE",
"1429 591 CURVE SMOOTH",
"1429 783 OFFCURVE",
"1311 911 OFFCURVE",
"1131 911 CURVE SMOOTH",
"1043 911 OFFCURVE",
"963 879 OFFCURVE",
"892 815 CURVE",
"887 815 LINE",
"890 842 OFFCURVE",
"892 887 OFFCURVE",
"892 951 CURVE SMOOTH",
"892 1214 LINE SMOOTH",
"892 1537 OFFCURVE",
"1031 1711 OFFCURVE",
"1300 1711 CURVE SMOOTH",
"1552 1711 OFFCURVE",
"1686 1551 OFFCURVE",
"1686 1234 CURVE SMOOTH",
"1686 0 LINE",
"1851 0 LINE",
"1851 1214 LINE SMOOTH",
"1851 1613 OFFCURVE",
"1635 1856 OFFCURVE",
"1280 1856 CURVE SMOOTH",
"935 1856 OFFCURVE",
"727 1633 OFFCURVE",
"727 1244 CURVE SMOOTH",
"727 904 LINE",
"641 962 OFFCURVE",
"549 991 OFFCURVE",
"452 991 CURVE SMOOTH",
"249 991 OFFCURVE",
"95 859 OFFCURVE",
"95 678 CURVE SMOOTH",
"95 616 OFFCURVE",
"111 559 OFFCURVE",
"144 507 CURVE SMOOTH",
"208 403 OFFCURVE",
"327 340 OFFCURVE",
"459 340 CURVE SMOOTH",
"554 340 OFFCURVE",
"644 373 OFFCURVE",
"727 438 CURVE",
"732 438 LINE",
"729 427 OFFCURVE",
"727 388 OFFCURVE",
"727 322 CURVE SMOOTH",
"727 0 LINE"
);
},
{
closed = 1;
nodes = (
"336 484 OFFCURVE",
"260 555 OFFCURVE",
"260 658 CURVE SMOOTH",
"260 767 OFFCURVE",
"349 846 OFFCURVE",
"472 846 CURVE SMOOTH",
"556 846 OFFCURVE",
"641 824 OFFCURVE",
"727 779 CURVE",
"727 637 LINE",
"632 535 OFFCURVE",
"536 484 OFFCURVE",
"439 484 CURVE SMOOTH"
);
}
);
width = 2021;
}
);
note = ktKII;
},
{
glyphname = ktKU;
lastChange = "2016-11-10 17:42:20 +0000";
layers = (
{
layerId = "CE2B0BEB-5EFE-47CF-A34E-B4149D2EF609";
paths = (
{
closed = 1;
nodes = (
"995 -462 OFFCURVE",
"1121 -356 OFFCURVE",
"1121 -189 CURVE SMOOTH",
"1121 -49 OFFCURVE",
"1033 52 OFFCURVE",
"882 76 CURVE",
"889 118 OFFCURVE",
"892 163 OFFCURVE",
"892 211 CURVE SMOOTH",
"892 603 LINE",
"995 720 OFFCURVE",
"1070 766 OFFCURVE",
"1146 766 CURVE SMOOTH",
"1225 766 OFFCURVE",
"1264 714 OFFCURVE",
"1264 611 CURVE SMOOTH",
"1264 492 OFFCURVE",
"1230 355 OFFCURVE",
"1163 202 CURVE",
"1320 151 LINE",
"1393 311 OFFCURVE",
"1429 458 OFFCURVE",
"1429 591 CURVE SMOOTH",
"1429 783 OFFCURVE",
"1311 911 OFFCURVE",
"1131 911 CURVE SMOOTH",
"1043 911 OFFCURVE",
"963 879 OFFCURVE",
"892 815 CURVE",
"887 815 LINE",
"890 842 OFFCURVE",
"892 887 OFFCURVE",
"892 951 CURVE SMOOTH",
"892 1274 LINE",
"727 1274 LINE",
"727 904 LINE",
"641 962 OFFCURVE",
"549 991 OFFCURVE",
"452 991 CURVE SMOOTH",
"249 991 OFFCURVE",
"95 859 OFFCURVE",
"95 678 CURVE SMOOTH",
"95 616 OFFCURVE",
"111 559 OFFCURVE",
"144 507 CURVE SMOOTH",
"208 403 OFFCURVE",
"327 340 OFFCURVE",
"459 340 CURVE SMOOTH",
"554 340 OFFCURVE",
"644 373 OFFCURVE",
"727 438 CURVE",
"732 438 LINE",
"729 427 OFFCURVE",
"727 388 OFFCURVE",
"727 322 CURVE SMOOTH",
"727 -20 LINE",
"874 -20 OFFCURVE",
"956 -76 OFFCURVE",
"956 -172 CURVE SMOOTH",
"956 -260 OFFCURVE",
"885 -317 OFFCURVE",
"780 -317 CURVE SMOOTH",
"730 -317 OFFCURVE",
"683 -307 OFFCURVE",
"638 -286 CURVE SMOOTH",
"549 -245 OFFCURVE",
"484 -196 OFFCURVE",
"343 -32 CURVE",
"240 -116 LINE",
"307 -200 OFFCURVE",
"369 -265 OFFCURVE",
"424 -311 CURVE SMOOTH",
"535 -404 OFFCURVE",
"657 -462 OFFCURVE",
"796 -462 CURVE SMOOTH"
);
},
{
closed = 1;
nodes = (
"336 484 OFFCURVE",
"260 555 OFFCURVE",
"260 658 CURVE SMOOTH",
"260 767 OFFCURVE",
"349 846 OFFCURVE",
"472 846 CURVE SMOOTH",
"556 846 OFFCURVE",
"641 824 OFFCURVE",
"727 779 CURVE",
"727 637 LINE",
"632 535 OFFCURVE",
"536 484 OFFCURVE",
"439 484 CURVE SMOOTH"
);
}
);
width = 1549;
}
);
note = ktKU;
},
{
glyphname = ktKUU;
lastChange = "2016-11-10 17:42:20 +0000";
layers = (
{
layerId = "CE2B0BEB-5EFE-47CF-A34E-B4149D2EF609";
paths = (
{
closed = 1;
nodes = (
"1307 -488 LINE",
"1176 -200 OFFCURVE",
"1045 -60 OFFCURVE",
"892 -11 CURVE",
"892 603 LINE",
"995 720 OFFCURVE",
"1070 766 OFFCURVE",
"1146 766 CURVE SMOOTH",
"1225 766 OFFCURVE",
"1264 714 OFFCURVE",
"1264 611 CURVE SMOOTH",
"1264 492 OFFCURVE",
"1230 355 OFFCURVE",
"1163 202 CURVE",
"1320 151 LINE",
"1393 311 OFFCURVE",
"1429 458 OFFCURVE",
"1429 591 CURVE SMOOTH",
"1429 783 OFFCURVE",
"1311 911 OFFCURVE",
"1131 911 CURVE SMOOTH",
"1043 911 OFFCURVE",
"963 879 OFFCURVE",
"892 815 CURVE",
"887 815 LINE",
"890 842 OFFCURVE",
"892 887 OFFCURVE",
"892 951 CURVE SMOOTH",
"892 1274 LINE",
"727 1274 LINE",
"727 904 LINE",
"641 962 OFFCURVE",
"549 991 OFFCURVE",
"452 991 CURVE SMOOTH",
"248 991 OFFCURVE",
"95 859 OFFCURVE",
"95 678 CURVE SMOOTH",
"95 485 OFFCURVE",
"251 340 OFFCURVE",
"459 340 CURVE SMOOTH",
"554 340 OFFCURVE",
"644 373 OFFCURVE",
"727 438 CURVE",
"732 438 LINE",
"729 427 OFFCURVE",
"727 388 OFFCURVE",
"727 322 CURVE SMOOTH",
"727 9 LINE",
"568 -4 OFFCURVE",
"474 -97 OFFCURVE",
"474 -230 CURVE SMOOTH",
"474 -381 OFFCURVE",
"609 -491 OFFCURVE",
"794 -491 CURVE",
"818 -370 LINE",
"711 -367 OFFCURVE",
"639 -322 OFFCURVE",
"639 -247 CURVE SMOOTH",
"639 -183 OFFCURVE",
"688 -135 OFFCURVE",
"776 -135 CURVE SMOOTH",
"919 -135 OFFCURVE",
"1047 -246 OFFCURVE",
"1160 -468 CURVE SMOOTH",
"1198 -543 LINE"
);
},
{
closed = 1;
nodes = (
"332 484 OFFCURVE",
"260 551 OFFCURVE",
"260 658 CURVE SMOOTH",
"260 769 OFFCURVE",
"355 846 OFFCURVE",
"472 846 CURVE SMOOTH",
"556 846 OFFCURVE",
"641 824 OFFCURVE",
"727 779 CURVE",
"727 637 LINE",
"632 535 OFFCURVE",
"536 484 OFFCURVE",
"439 484 CURVE SMOOTH"
);
}
);
width = 1549;
}
);
note = ktKUU;
},
{
glyphname = ktMU;
lastChange = "2016-11-10 17:42:20 +0000";
layers = (
{
layerId = "CE2B0BEB-5EFE-47CF-A34E-B4149D2EF609";
paths = (
{
closed = 1;
nodes = (
"1159 -462 OFFCURVE",
"1285 -356 OFFCURVE",
"1285 -189 CURVE SMOOTH",
"1285 -49 OFFCURVE",
"1197 52 OFFCURVE",
"1046 76 CURVE",
"1053 118 OFFCURVE",
"1056 163 OFFCURVE",
"1056 211 CURVE SMOOTH",
"1056 1274 LINE",
"936 1274 LINE",
"833 1141 OFFCURVE",
"739 1064 OFFCURVE",
"492 941 CURVE",
"430 1053 OFFCURVE",
"353 1167 OFFCURVE",
"262 1284 CURVE",
"145 1198 LINE",
"238 1080 OFFCURVE",
"313 970 OFFCURVE",
"370 869 CURVE",
"223 770 OFFCURVE",
"149 657 OFFCURVE",
"149 530 CURVE SMOOTH",
"149 377 OFFCURVE",
"256 274 OFFCURVE",
"397 274 CURVE SMOOTH",
"541 274 OFFCURVE",
"632 369 OFFCURVE",
"632 522 CURVE SMOOTH",
"632 602 OFFCURVE",
"608 695 OFFCURVE",
"561 802 CURVE",
"611 829 LINE SMOOTH",
"767 908 OFFCURVE",
"826 948 OFFCURVE",
"893 1017 CURVE",
"896 1014 LINE",
"893 996 OFFCURVE",
"891 951 OFFCURVE",
"891 879 CURVE SMOOTH",
"891 -20 LINE",
"1038 -20 OFFCURVE",
"1120 -76 OFFCURVE",
"1120 -172 CURVE SMOOTH",
"1120 -260 OFFCURVE",
"1049 -317 OFFCURVE",
"944 -317 CURVE SMOOTH",
"894 -317 OFFCURVE",
"847 -307 OFFCURVE",
"802 -286 CURVE SMOOTH",
"713 -245 OFFCURVE",
"648 -196 OFFCURVE",
"507 -32 CURVE",
"404 -116 LINE",
"471 -200 OFFCURVE",
"533 -265 OFFCURVE",
"588 -311 CURVE SMOOTH",
"699 -404 OFFCURVE",
"821 -462 OFFCURVE",
"960 -462 CURVE SMOOTH"
);
},
{
closed = 1;
nodes = (
"343 419 OFFCURVE",
"314 453 OFFCURVE",
"314 513 CURVE SMOOTH",
"314 587 OFFCURVE",
"356 657 OFFCURVE",
"439 722 CURVE",
"464 653 OFFCURVE",
"477 595 OFFCURVE",
"477 546 CURVE SMOOTH",
"477 474 OFFCURVE",
"446 419 OFFCURVE",
"390 419 CURVE SMOOTH"
);
}
);
width = 1235;
}
);
note = ktMU;
},
{
glyphname = ktMUU;
lastChange = "2016-11-10 17:42:20 +0000";
layers = (
{
layerId = "CE2B0BEB-5EFE-47CF-A34E-B4149D2EF609";
paths = (
{
closed = 1;
nodes = (
"1421 -488 LINE",
"1374 -387 OFFCURVE",
"1331 -308 OFFCURVE",
"1294 -251 CURVE SMOOTH",
"1219 -138 OFFCURVE",
"1126 -58 OFFCURVE",
"1029 -19 CURVE",
"1034 -4 LINE SMOOTH",
"1049 41 OFFCURVE",
"1056 106 OFFCURVE",
"1056 191 CURVE SMOOTH",
"1056 1274 LINE",
"936 1274 LINE",
"833 1141 OFFCURVE",
"739 1064 OFFCURVE",
"492 941 CURVE",
"430 1053 OFFCURVE",
"353 1167 OFFCURVE",
"262 1284 CURVE",
"145 1198 LINE",
"238 1080 OFFCURVE",
"313 970 OFFCURVE",
"370 869 CURVE",
"223 770 OFFCURVE",
"149 657 OFFCURVE",
"149 530 CURVE SMOOTH",
"149 377 OFFCURVE",
"256 274 OFFCURVE",
"397 274 CURVE SMOOTH",
"541 274 OFFCURVE",
"632 369 OFFCURVE",
"632 522 CURVE SMOOTH",
"632 602 OFFCURVE",
"608 695 OFFCURVE",
"561 802 CURVE",
"611 829 LINE SMOOTH",
"767 908 OFFCURVE",
"826 948 OFFCURVE",
"893 1017 CURVE",
"896 1014 LINE",
"893 996 OFFCURVE",
"891 951 OFFCURVE",
"891 879 CURVE SMOOTH",
"891 9 LINE",
"874 10 LINE",
"702 10 OFFCURVE",
"588 -85 OFFCURVE",
"588 -230 CURVE SMOOTH",
"588 -381 OFFCURVE",
"723 -491 OFFCURVE",
"908 -491 CURVE",
"932 -370 LINE",
"825 -367 OFFCURVE",
"753 -322 OFFCURVE",
"753 -247 CURVE SMOOTH",
"753 -183 OFFCURVE",
"802 -135 OFFCURVE",
"890 -135 CURVE SMOOTH",
"1033 -135 OFFCURVE",
"1161 -246 OFFCURVE",
"1274 -468 CURVE SMOOTH",
"1312 -543 LINE"
);
},
{
closed = 1;
nodes = (
"343 419 OFFCURVE",
"314 453 OFFCURVE",
"314 513 CURVE SMOOTH",
"314 587 OFFCURVE",
"356 657 OFFCURVE",
"439 722 CURVE",
"464 653 OFFCURVE",
"477 595 OFFCURVE",
"477 546 CURVE SMOOTH",
"477 474 OFFCURVE",
"446 419 OFFCURVE",
"390 419 CURVE SMOOTH"
);
}
);
width = 1248;
}
);
note = ktMUU;
},
{
glyphname = ktBHU;
lastChange = "2016-11-10 17:42:20 +0000";
layers = (
{
layerId = "CE2B0BEB-5EFE-47CF-A34E-B4149D2EF609";
paths = (
{
closed = 1;
nodes = (
"1244 -462 OFFCURVE",
"1370 -356 OFFCURVE",
"1370 -189 CURVE SMOOTH",
"1370 -49 OFFCURVE",
"1282 52 OFFCURVE",
"1131 76 CURVE",
"1138 118 OFFCURVE",
"1141 163 OFFCURVE",
"1141 211 CURVE SMOOTH",
"1141 1274 LINE",
"1021 1274 LINE",
"852 1185 OFFCURVE",
"714 1105 OFFCURVE",
"609 1033 CURVE",
"574 1107 OFFCURVE",
"527 1191 OFFCURVE",
"467 1284 CURVE",
"365 1275 OFFCURVE",
"246 1247 OFFCURVE",
"110 1201 CURVE",
"150 1073 LINE",
"238 1106 OFFCURVE",
"315 1128 OFFCURVE",
"382 1140 CURVE",
"427 1071 OFFCURVE",
"462 1006 OFFCURVE",
"488 944 CURVE",
"295 787 OFFCURVE",
"199 638 OFFCURVE",
"199 495 CURVE SMOOTH",
"199 332 OFFCURVE",
"315 214 OFFCURVE",
"472 214 CURVE SMOOTH",
"632 214 OFFCURVE",
"737 334 OFFCURVE",
"737 522 CURVE SMOOTH",
"737 637 OFFCURVE",
"715 755 OFFCURVE",
"672 878 CURVE",
"729 918 OFFCURVE",
"789 956 OFFCURVE",
"852 992 CURVE",
"976 1074 LINE",
"981 1074 LINE",
"978 1049 OFFCURVE",
"976 999 OFFCURVE",
"976 924 CURVE SMOOTH",
"976 -20 LINE",
"1123 -20 OFFCURVE",
"1205 -76 OFFCURVE",
"1205 -172 CURVE SMOOTH",
"1205 -260 OFFCURVE",
"1134 -317 OFFCURVE",
"1029 -317 CURVE SMOOTH",
"979 -317 OFFCURVE",
"932 -307 OFFCURVE",
"887 -286 CURVE SMOOTH",
"798 -245 OFFCURVE",
"733 -196 OFFCURVE",
"592 -32 CURVE",
"489 -116 LINE",
"556 -200 OFFCURVE",
"618 -265 OFFCURVE",
"673 -311 CURVE SMOOTH",
"784 -404 OFFCURVE",
"906 -462 OFFCURVE",
"1045 -462 CURVE SMOOTH"
);
},
{
closed = 1;
nodes = (
"395 359 OFFCURVE",
"364 400 OFFCURVE",
"364 468 CURVE SMOOTH",
"364 565 OFFCURVE",
"424 669 OFFCURVE",
"544 778 CURVE",
"563 703 OFFCURVE",
"572 631 OFFCURVE",
"572 561 CURVE SMOOTH",
"572 432 OFFCURVE",
"523 359 OFFCURVE",
"450 359 CURVE SMOOTH"
);
}
);
width = 1320;
}
);
note = ktBHU;
},
{
glyphname = ktBHUU;
lastChange = "2016-11-10 17:42:20 +0000";
layers = (
{
layerId = "CE2B0BEB-5EFE-47CF-A34E-B4149D2EF609";
paths = (
{
closed = 1;
nodes = (
"1505 -488 LINE",
"1456 -384 OFFCURVE",
"1415 -306 OFFCURVE",
"1381 -255 CURVE SMOOTH",
"1312 -153 OFFCURVE",
"1225 -64 OFFCURVE",
"1114 -20 CURVE",
"1132 37 OFFCURVE",
"1141 107 OFFCURVE",
"1141 191 CURVE SMOOTH",
"1141 1274 LINE",
"1021 1274 LINE",
"852 1185 OFFCURVE",
"714 1105 OFFCURVE",
"609 1033 CURVE",
"574 1107 OFFCURVE",
"527 1191 OFFCURVE",
"467 1284 CURVE",
"365 1275 OFFCURVE",
"246 1247 OFFCURVE",
"110 1201 CURVE",
"150 1073 LINE",
"238 1106 OFFCURVE",
"315 1128 OFFCURVE",
"382 1140 CURVE",
"427 1071 OFFCURVE",
"462 1006 OFFCURVE",
"488 944 CURVE",
"295 787 OFFCURVE",
"199 638 OFFCURVE",
"199 495 CURVE SMOOTH",
"199 332 OFFCURVE",
"315 214 OFFCURVE",
"472 214 CURVE SMOOTH",
"632 214 OFFCURVE",
"737 334 OFFCURVE",
"737 522 CURVE SMOOTH",
"737 637 OFFCURVE",
"715 755 OFFCURVE",
"672 878 CURVE",
"729 918 OFFCURVE",
"789 956 OFFCURVE",
"852 992 CURVE",
"976 1074 LINE",
"981 1074 LINE",
"978 1049 OFFCURVE",
"976 999 OFFCURVE",
"976 924 CURVE SMOOTH",
"976 9 LINE",
"958 10 LINE",
"786 10 OFFCURVE",
"672 -85 OFFCURVE",
"672 -230 CURVE SMOOTH",
"672 -381 OFFCURVE",
"807 -491 OFFCURVE",
"992 -491 CURVE",
"1016 -370 LINE",
"909 -367 OFFCURVE",
"837 -322 OFFCURVE",
"837 -247 CURVE SMOOTH",
"837 -183 OFFCURVE",
"886 -135 OFFCURVE",
"974 -135 CURVE SMOOTH",
"1117 -135 OFFCURVE",
"1245 -246 OFFCURVE",
"1358 -468 CURVE SMOOTH",
"1396 -543 LINE"
);
},
{
closed = 1;
nodes = (
"395 359 OFFCURVE",
"364 400 OFFCURVE",
"364 468 CURVE SMOOTH",
"364 565 OFFCURVE",
"424 669 OFFCURVE",
"544 778 CURVE",
"563 703 OFFCURVE",
"572 631 OFFCURVE",
"572 561 CURVE SMOOTH",
"572 432 OFFCURVE",
"523 359 OFFCURVE",
"450 359 CURVE SMOOTH"
);
}
);
width = 1332;
}
);
note = ktBHUU;
},
{
glyphname = ktRU;
lastChange = "2016-11-10 17:42:20 +0000";
layers = (
{
layerId = "CE2B0BEB-5EFE-47CF-A34E-B4149D2EF609";
paths = (
{
closed = 1;
nodes = (
"849 -462 OFFCURVE",
"975 -356 OFFCURVE",
"975 -189 CURVE SMOOTH",
"975 -49 OFFCURVE",
"887 52 OFFCURVE",
"736 76 CURVE",
"743 118 OFFCURVE",
"746 163 OFFCURVE",
"746 211 CURVE SMOOTH",
"746 1274 LINE",
"626 1274 LINE",
"70 766 LINE",
"179 631 LINE",
"457 882 LINE",
"581 1023 LINE",
"586 1023 LINE",
"583 998 OFFCURVE",
"581 914 OFFCURVE",
"581 770 CURVE SMOOTH",
"581 -20 LINE",
"728 -20 OFFCURVE",
"810 -76 OFFCURVE",
"810 -172 CURVE SMOOTH",
"810 -260 OFFCURVE",
"739 -317 OFFCURVE",
"634 -317 CURVE SMOOTH",
"584 -317 OFFCURVE",
"537 -307 OFFCURVE",
"492 -286 CURVE SMOOTH",
"403 -245 OFFCURVE",
"338 -196 OFFCURVE",
"197 -32 CURVE",
"94 -116 LINE",
"161 -200 OFFCURVE",
"223 -265 OFFCURVE",
"278 -311 CURVE SMOOTH",
"389 -404 OFFCURVE",
"511 -462 OFFCURVE",
"650 -462 CURVE SMOOTH"
);
}
);
width = 925;
}
);
note = ktRU;
},
{
glyphname = ktRUU;
lastChange = "2016-11-10 17:42:20 +0000";
layers = (
{
layerId = "CE2B0BEB-5EFE-47CF-A34E-B4149D2EF609";
paths = (
{
closed = 1;
nodes = (
"1111 -488 LINE",
"1064 -387 OFFCURVE",
"1021 -308 OFFCURVE",
"984 -251 CURVE SMOOTH",
"909 -138 OFFCURVE",
"816 -58 OFFCURVE",
"719 -19 CURVE",
"724 -4 LINE SMOOTH",
"739 41 OFFCURVE",
"746 106 OFFCURVE",
"746 191 CURVE SMOOTH",
"746 1274 LINE",
"626 1274 LINE",
"70 766 LINE",
"179 631 LINE",
"457 882 LINE",
"581 1023 LINE",
"586 1023 LINE",
"583 998 OFFCURVE",
"581 914 OFFCURVE",
"581 770 CURVE SMOOTH",
"581 9 LINE",
"564 10 LINE",
"387 10 OFFCURVE",
"258 -92 OFFCURVE",
"258 -239 CURVE SMOOTH",
"258 -391 OFFCURVE",
"407 -510 OFFCURVE",
"598 -510 CURVE",
"622 -389 LINE",
"499 -386 OFFCURVE",
"423 -340 OFFCURVE",
"423 -256 CURVE SMOOTH",
"423 -181 OFFCURVE",
"485 -135 OFFCURVE",
"580 -135 CURVE SMOOTH",
"723 -135 OFFCURVE",
"851 -246 OFFCURVE",
"964 -468 CURVE SMOOTH",
"1002 -543 LINE"
);
}
);
width = 938;
}
);
note = ktRUU;
},
{
glyphname = ktKHU;
lastChange = "2016-11-10 17:42:20 +0000";
layers = (
{
layerId = "CE2B0BEB-5EFE-47CF-A34E-B4149D2EF609";
paths = (
{
closed = 1;
nodes = (
"1430 -462 OFFCURVE",
"1556 -356 OFFCURVE",
"1556 -189 CURVE SMOOTH",
"1556 -49 OFFCURVE",
"1468 52 OFFCURVE",
"1317 76 CURVE",
"1324 118 OFFCURVE",
"1327 163 OFFCURVE",
"1327 211 CURVE SMOOTH",
"1327 1274 LINE",
"1162 1274 LINE",
"1162 701 LINE",
"1091 620 OFFCURVE",
"1015 579 OFFCURVE",
"932 579 CURVE SMOOTH",
"829 579 OFFCURVE",
"795 629 OFFCURVE",
"795 756 CURVE SMOOTH",
"795 1274 LINE",
"630 1274 LINE",
"630 821 LINE SMOOTH",
"630 770 OFFCURVE",
"635 723 OFFCURVE",
"644 680 CURVE",
"580 613 OFFCURVE",
"509 579 OFFCURVE",
"432 579 CURVE SMOOTH",
"329 579 OFFCURVE",
"295 629 OFFCURVE",
"295 756 CURVE SMOOTH",
"295 1274 LINE",
"130 1274 LINE",
"130 821 LINE SMOOTH",
"130 564 OFFCURVE",
"242 435 OFFCURVE",
"467 435 CURVE SMOOTH",
"567 435 OFFCURVE",
"664 471 OFFCURVE",
"720 522 CURVE",
"725 522 LINE",
"782 464 OFFCURVE",
"862 435 OFFCURVE",
"967 435 CURVE SMOOTH",
"1047 435 OFFCURVE",
"1119 466 OFFCURVE",
"1162 503 CURVE",
"1167 503 LINE",
"1164 480 OFFCURVE",
"1162 423 OFFCURVE",
"1162 332 CURVE SMOOTH",
"1162 -20 LINE",
"1309 -20 OFFCURVE",
"1391 -76 OFFCURVE",
"1391 -172 CURVE SMOOTH",
"1391 -260 OFFCURVE",
"1320 -317 OFFCURVE",
"1215 -317 CURVE SMOOTH",
"1165 -317 OFFCURVE",
"1118 -307 OFFCURVE",
"1073 -286 CURVE SMOOTH",
"984 -245 OFFCURVE",
"919 -196 OFFCURVE",
"778 -32 CURVE",
"675 -116 LINE",
"742 -200 OFFCURVE",
"804 -265 OFFCURVE",
"859 -311 CURVE SMOOTH",
"970 -404 OFFCURVE",
"1092 -462 OFFCURVE",
"1231 -462 CURVE SMOOTH"
);
}
);
width = 1506;
}
);
note = ktKHU;
},
{
glyphname = ktKHUU;
lastChange = "2016-11-10 17:42:20 +0000";
layers = (
{
layerId = "CE2B0BEB-5EFE-47CF-A34E-B4149D2EF609";
paths = (
{
closed = 1;
nodes = (
"1692 -488 LINE",
"1645 -387 OFFCURVE",
"1602 -308 OFFCURVE",
"1565 -251 CURVE SMOOTH",
"1490 -138 OFFCURVE",
"1397 -58 OFFCURVE",
"1300 -19 CURVE",
"1305 -4 LINE SMOOTH",
"1320 41 OFFCURVE",
"1327 106 OFFCURVE",
"1327 191 CURVE SMOOTH",
"1327 1274 LINE",
"1162 1274 LINE",
"1162 701 LINE",
"1091 620 OFFCURVE",
"1015 579 OFFCURVE",
"932 579 CURVE SMOOTH",
"829 579 OFFCURVE",
"795 629 OFFCURVE",
"795 756 CURVE SMOOTH",
"795 1274 LINE",
"630 1274 LINE",
"630 821 LINE SMOOTH",
"630 770 OFFCURVE",
"635 723 OFFCURVE",
"644 680 CURVE",
"580 613 OFFCURVE",
"509 579 OFFCURVE",
"432 579 CURVE SMOOTH",
"329 579 OFFCURVE",
"295 629 OFFCURVE",
"295 756 CURVE SMOOTH",
"295 1274 LINE",
"130 1274 LINE",
"130 821 LINE SMOOTH",
"130 564 OFFCURVE",
"242 435 OFFCURVE",
"467 435 CURVE SMOOTH",
"567 435 OFFCURVE",
"664 471 OFFCURVE",
"720 522 CURVE",
"725 522 LINE",
"782 464 OFFCURVE",
"862 435 OFFCURVE",
"967 435 CURVE SMOOTH",
"1047 435 OFFCURVE",
"1119 466 OFFCURVE",
"1162 503 CURVE",
"1167 503 LINE",
"1164 480 OFFCURVE",
"1162 423 OFFCURVE",
"1162 332 CURVE SMOOTH",
"1162 9 LINE",
"1145 10 LINE",
"973 10 OFFCURVE",
"859 -85 OFFCURVE",
"859 -230 CURVE SMOOTH",
"859 -381 OFFCURVE",
"994 -491 OFFCURVE",
"1179 -491 CURVE",
"1203 -370 LINE",
"1096 -367 OFFCURVE",
"1024 -322 OFFCURVE",
"1024 -247 CURVE SMOOTH",
"1024 -183 OFFCURVE",
"1073 -135 OFFCURVE",
"1161 -135 CURVE SMOOTH",
"1304 -135 OFFCURVE",
"1432 -246 OFFCURVE",
"1545 -468 CURVE SMOOTH",
"1583 -543 LINE"
);
}
);
width = 1519;
}
);
note = ktKHUU;
},
{
glyphname = ktPII;
lastChange = "2016-11-10 17:42:20 +0000";
layers = (
{
layerId = "CE2B0BEB-5EFE-47CF-A34E-B4149D2EF609";
paths = (
{
closed = 1;
nodes = (
"907 0 LINE",
"907 1244 LINE SMOOTH",
"907 1523 OFFCURVE",
"971 1651 OFFCURVE",
"1108 1651 CURVE SMOOTH",
"1175 1651 OFFCURVE",
"1223 1622 OFFCURVE",
"1251 1563 CURVE SMOOTH",
"1278 1504 OFFCURVE",
"1292 1401 OFFCURVE",
"1292 1254 CURVE SMOOTH",
"1292 0 LINE",
"1457 0 LINE",
"1457 1224 LINE SMOOTH",
"1457 1617 OFFCURVE",
"1343 1796 OFFCURVE",
"1098 1796 CURVE SMOOTH",
"861 1796 OFFCURVE",
"742 1622 OFFCURVE",
"742 1274 CURVE SMOOTH",
"742 671 LINE",
"671 590 OFFCURVE",
"595 549 OFFCURVE",
"512 549 CURVE SMOOTH",
"381 549 OFFCURVE",
"325 615 OFFCURVE",
"325 756 CURVE SMOOTH",
"325 1274 LINE",
"160 1274 LINE",
"160 821 LINE SMOOTH",
"160 564 OFFCURVE",
"304 405 OFFCURVE",
"537 405 CURVE SMOOTH",
"617 405 OFFCURVE",
"699 436 OFFCURVE",
"742 473 CURVE",
"747 473 LINE",
"744 450 OFFCURVE",
"742 393 OFFCURVE",
"742 302 CURVE SMOOTH",
"742 0 LINE"
);
}
);
width = 1627;
}
);
note = ktPII;
},
{
glyphname = ktPU;
lastChange = "2016-11-10 17:42:20 +0000";
layers = (
{
layerId = "CE2B0BEB-5EFE-47CF-A34E-B4149D2EF609";
paths = (
{
closed = 1;
nodes = (
"1010 -462 OFFCURVE",
"1136 -356 OFFCURVE",
"1136 -189 CURVE SMOOTH",
"1136 -49 OFFCURVE",
"1048 52 OFFCURVE",
"897 76 CURVE",
"904 118 OFFCURVE",
"907 163 OFFCURVE",
"907 211 CURVE SMOOTH",
"907 1274 LINE",
"742 1274 LINE",
"742 671 LINE",
"671 590 OFFCURVE",
"595 549 OFFCURVE",
"512 549 CURVE SMOOTH",
"381 549 OFFCURVE",
"325 615 OFFCURVE",
"325 756 CURVE SMOOTH",
"325 1274 LINE",
"160 1274 LINE",
"160 821 LINE SMOOTH",
"160 564 OFFCURVE",
"304 405 OFFCURVE",
"537 405 CURVE SMOOTH",
"617 405 OFFCURVE",
"699 436 OFFCURVE",
"742 473 CURVE",
"752 473 LINE",
"745 442 OFFCURVE",
"742 385 OFFCURVE",
"742 302 CURVE SMOOTH",
"742 -20 LINE",
"889 -20 OFFCURVE",
"971 -76 OFFCURVE",
"971 -172 CURVE SMOOTH",
"971 -260 OFFCURVE",
"900 -317 OFFCURVE",
"795 -317 CURVE SMOOTH",
"745 -317 OFFCURVE",
"698 -307 OFFCURVE",
"653 -286 CURVE SMOOTH",
"564 -245 OFFCURVE",
"499 -196 OFFCURVE",
"358 -32 CURVE",
"255 -116 LINE",
"322 -200 OFFCURVE",
"384 -265 OFFCURVE",
"439 -311 CURVE SMOOTH",
"550 -404 OFFCURVE",
"672 -462 OFFCURVE",
"811 -462 CURVE SMOOTH"
);
}
);
width = 1086;
}
);
note = ktPU;
},
{
glyphname = ktPUU;
lastChange = "2016-11-10 17:42:20 +0000";
layers = (
{
layerId = "CE2B0BEB-5EFE-47CF-A34E-B4149D2EF609";
paths = (
{
closed = 1;
nodes = (
"1273 -488 LINE",
"1189 -307 OFFCURVE",
"1141 -234 OFFCURVE",
"1083 -168 CURVE SMOOTH",
"1025 -102 OFFCURVE",
"957 -50 OFFCURVE",
"880 -19 CURVE",
"885 -14 OFFCURVE",
"890 10 OFFCURVE",
"897 53 CURVE SMOOTH",
"904 96 OFFCURVE",
"907 142 OFFCURVE",
"907 191 CURVE SMOOTH",
"907 1274 LINE",
"742 1274 LINE",
"742 671 LINE",
"671 590 OFFCURVE",
"595 549 OFFCURVE",
"512 549 CURVE SMOOTH",
"381 549 OFFCURVE",
"325 615 OFFCURVE",
"325 756 CURVE SMOOTH",
"325 1274 LINE",
"160 1274 LINE",
"160 821 LINE SMOOTH",
"160 564 OFFCURVE",
"304 405 OFFCURVE",
"537 405 CURVE SMOOTH",
"617 405 OFFCURVE",
"699 436 OFFCURVE",
"742 473 CURVE",
"752 473 LINE",
"745 442 OFFCURVE",
"742 385 OFFCURVE",
"742 302 CURVE SMOOTH",
"742 9 LINE",
"726 10 LINE",
"554 10 OFFCURVE",
"440 -85 OFFCURVE",
"440 -230 CURVE SMOOTH",
"440 -381 OFFCURVE",
"575 -491 OFFCURVE",
"760 -491 CURVE",
"784 -370 LINE",
"677 -367 OFFCURVE",
"605 -322 OFFCURVE",
"605 -247 CURVE SMOOTH",
"605 -183 OFFCURVE",
"654 -135 OFFCURVE",
"742 -135 CURVE SMOOTH",
"885 -135 OFFCURVE",
"1013 -246 OFFCURVE",
"1126 -468 CURVE SMOOTH",
"1164 -543 LINE"
);
}
);
width = 1100;
}
);
note = ktPUU;
},
{
glyphname = ktSU;
lastChange = "2016-11-10 17:42:20 +0000";
layers = (
{
layerId = "CE2B0BEB-5EFE-47CF-A34E-B4149D2EF609";
paths = (
{
closed = 1;
nodes = (
"1374 -462 OFFCURVE",
"1500 -356 OFFCURVE",
"1500 -189 CURVE SMOOTH",
"1500 -49 OFFCURVE",
"1412 52 OFFCURVE",
"1261 76 CURVE",
"1268 118 OFFCURVE",
"1271 163 OFFCURVE",
"1271 211 CURVE SMOOTH",
"1271 1274 LINE",
"1106 1274 LINE",
"1106 750 LINE",
"1063 730 OFFCURVE",
"1016 720 OFFCURVE",
"963 720 CURVE SMOOTH",
"917 720 OFFCURVE",
"871 728 OFFCURVE",
"826 744 CURVE",
"841 785 OFFCURVE",
"848 830 OFFCURVE",
"848 879 CURVE SMOOTH",
"848 953 OFFCURVE",
"831 1021 OFFCURVE",
"797 1084 CURVE SMOOTH",
"729 1208 OFFCURVE",
"602 1284 OFFCURVE",
"445 1284 CURVE SMOOTH",
"336 1284 OFFCURVE",
"233 1243 OFFCURVE",
"136 1162 CURVE",
"224 1039 LINE",
"265 1071 OFFCURVE",
"295 1092 OFFCURVE",
"316 1103 CURVE SMOOTH",
"357 1124 OFFCURVE",
"404 1139 OFFCURVE",
"456 1139 CURVE SMOOTH",
"593 1139 OFFCURVE",
"683 1048 OFFCURVE",
"683 897 CURVE SMOOTH",
"683 764 OFFCURVE",
"606 662 OFFCURVE",
"454 609 CURVE",
"383 678 OFFCURVE",
"313 712 OFFCURVE",
"246 712 CURVE SMOOTH",
"165 712 OFFCURVE",
"120 667 OFFCURVE",
"120 603 CURVE SMOOTH",
"120 515 OFFCURVE",
"217 447 OFFCURVE",
"342 447 CURVE",
"421 452 LINE",
"611 131 LINE",
"755 210 LINE",
"721 258 OFFCURVE",
"688 306 OFFCURVE",
"656 353 CURVE SMOOTH",
"624 400 OFFCURVE",
"592 445 OFFCURVE",
"560 487 CURVE",
"646 520 OFFCURVE",
"714 568 OFFCURVE",
"763 630 CURVE",
"831 597 OFFCURVE",
"903 580 OFFCURVE",
"978 580 CURVE SMOOTH",
"1029 580 OFFCURVE",
"1072 585 OFFCURVE",
"1106 595 CURVE",
"1106 -20 LINE",
"1253 -20 OFFCURVE",
"1335 -76 OFFCURVE",
"1335 -172 CURVE SMOOTH",
"1335 -260 OFFCURVE",
"1264 -317 OFFCURVE",
"1159 -317 CURVE SMOOTH",
"1109 -317 OFFCURVE",
"1062 -307 OFFCURVE",
"1017 -286 CURVE SMOOTH",
"928 -245 OFFCURVE",
"863 -196 OFFCURVE",
"722 -32 CURVE",
"619 -116 LINE",
"686 -200 OFFCURVE",
"748 -265 OFFCURVE",
"803 -311 CURVE SMOOTH",
"914 -404 OFFCURVE",
"1036 -462 OFFCURVE",
"1175 -462 CURVE SMOOTH"
);
}
);
width = 1450;
}
);
note = ktSU;
},
{
glyphname = ktSUU;
lastChange = "2016-11-10 17:42:20 +0000";
layers = (
{
layerId = "CE2B0BEB-5EFE-47CF-A34E-B4149D2EF609";
paths = (
{
closed = 1;
nodes = (
"1636 -488 LINE",
"1589 -387 OFFCURVE",
"1546 -308 OFFCURVE",
"1509 -251 CURVE SMOOTH",
"1434 -138 OFFCURVE",
"1341 -58 OFFCURVE",
"1244 -19 CURVE",
"1249 -4 LINE SMOOTH",
"1264 41 OFFCURVE",
"1271 106 OFFCURVE",
"1271 191 CURVE SMOOTH",
"1271 1274 LINE",
"1106 1274 LINE",
"1106 750 LINE",
"1063 730 OFFCURVE",
"1016 720 OFFCURVE",
"963 720 CURVE SMOOTH",
"917 720 OFFCURVE",
"871 728 OFFCURVE",
"826 744 CURVE",
"841 785 OFFCURVE",
"848 830 OFFCURVE",
"848 879 CURVE SMOOTH",
"848 953 OFFCURVE",
"831 1021 OFFCURVE",
"797 1084 CURVE SMOOTH",
"729 1208 OFFCURVE",
"602 1284 OFFCURVE",
"445 1284 CURVE SMOOTH",
"336 1284 OFFCURVE",
"233 1243 OFFCURVE",
"136 1162 CURVE",
"224 1039 LINE",
"265 1071 OFFCURVE",
"295 1092 OFFCURVE",
"316 1103 CURVE SMOOTH",
"357 1124 OFFCURVE",
"404 1139 OFFCURVE",
"456 1139 CURVE SMOOTH",
"593 1139 OFFCURVE",
"683 1048 OFFCURVE",
"683 897 CURVE SMOOTH",
"683 762 OFFCURVE",
"605 660 OFFCURVE",
"449 607 CURVE",
"374 677 OFFCURVE",
"307 712 OFFCURVE",
"246 712 CURVE SMOOTH",
"165 712 OFFCURVE",
"120 667 OFFCURVE",
"120 603 CURVE SMOOTH",
"120 515 OFFCURVE",
"217 447 OFFCURVE",
"342 447 CURVE SMOOTH",
"374 447 OFFCURVE",
"401 449 OFFCURVE",
"423 452 CURVE",
"672 44 LINE",
"816 123 LINE",
"772 186 OFFCURVE",
"729 249 OFFCURVE",
"686 312 CURVE SMOOTH",
"643 375 OFFCURVE",
"600 433 OFFCURVE",
"558 486 CURVE",
"645 519 OFFCURVE",
"713 567 OFFCURVE",
"763 630 CURVE",
"831 597 OFFCURVE",
"903 580 OFFCURVE",
"978 580 CURVE SMOOTH",
"1029 580 OFFCURVE",
"1072 585 OFFCURVE",
"1106 595 CURVE",
"1106 9 LINE",
"1089 10 LINE",
"917 10 OFFCURVE",
"803 -85 OFFCURVE",
"803 -230 CURVE SMOOTH",
"803 -381 OFFCURVE",
"938 -491 OFFCURVE",
"1123 -491 CURVE",
"1147 -370 LINE",
"1040 -367 OFFCURVE",
"968 -322 OFFCURVE",
"968 -247 CURVE SMOOTH",
"968 -183 OFFCURVE",
"1017 -135 OFFCURVE",
"1105 -135 CURVE SMOOTH",
"1248 -135 OFFCURVE",
"1376 -246 OFFCURVE",
"1489 -468 CURVE SMOOTH",
"1527 -543 LINE"
);
}
);
width = 1463;
}
);
note = ktSUU;
},
{
glyphname = ktVSI.alt1;
lastChange = "2016-11-10 17:37:31 +0000";
layers = (
{
layerId = "CE2B0BEB-5EFE-47CF-A34E-B4149D2EF609";
paths = (
{
closed = 1;
nodes = (
"345 0 LINE",
"345 1184 LINE SMOOTH",
"345 1491 OFFCURVE",
"446 1640 OFFCURVE",
"655 1640 CURVE SMOOTH",
"714 1640 OFFCURVE",
"770 1631 OFFCURVE",
"823 1612 CURVE SMOOTH",
"927 1575 OFFCURVE",
"998 1535 OFFCURVE",
"1178 1374 CURVE",
"1263 1460 LINE",
"1168 1551 OFFCURVE",
"1091 1616 OFFCURVE",
"1032 1655 CURVE SMOOTH",
"912 1734 OFFCURVE",
"782 1785 OFFCURVE",
"637 1785 CURVE SMOOTH",
"336 1785 OFFCURVE",
"180 1587 OFFCURVE",
"180 1204 CURVE SMOOTH",
"180 0 LINE"
);
}
);
width = 511;
}
);
note = ktVSI.alt1;
},
{
glyphname = ktVSAIm;
lastChange = "2016-11-10 17:42:20 +0000";
layers = (
{
layerId = "CE2B0BEB-5EFE-47CF-A34E-B4149D2EF609";
paths = (
{
closed = 1;
nodes = (
"-121 1489 LINE",
"-172 1673 OFFCURVE",
"-298 1845 OFFCURVE",
"-550 2097 CURVE",
"-662 1989 LINE",
"-509 1840 LINE SMOOTH",
"-421 1755 OFFCURVE",
"-360 1693 OFFCURVE",
"-326 1653 CURVE SMOOTH",
"-293 1613 OFFCURVE",
"-266 1574 OFFCURVE",
"-246 1535 CURVE",
"-254 1527 LINE",
"-317 1566 OFFCURVE",
"-374 1597 OFFCURVE",
"-425 1619 CURVE SMOOTH",
"-979 1856 LINE",
"-1050 1708 LINE",
"-174 1380 LINE"
);
},
{
closed = 1;
nodes = (
"33 1729 OFFCURVE",
"74 1775 OFFCURVE",
"74 1852 CURVE SMOOTH",
"74 1929 OFFCURVE",
"33 1972 OFFCURVE",
"-39 1972 CURVE SMOOTH",
"-110 1972 OFFCURVE",
"-149 1929 OFFCURVE",
"-149 1852 CURVE SMOOTH",
"-149 1775 OFFCURVE",
"-108 1729 OFFCURVE",
"-39 1729 CURVE SMOOTH"
);
}
);
width = 0;
}
);
note = ktVSAIm;
},
{
glyphname = ktVSEm;
lastChange = "2016-11-10 17:42:20 +0000";
layers = (
{
layerId = "CE2B0BEB-5EFE-47CF-A34E-B4149D2EF609";
paths = (
{
closed = 1;
nodes = (
"-161 1489 LINE",
"-1019 1856 LINE",
"-1090 1708 LINE",
"-214 1380 LINE"
);
},
{
closed = 1;
nodes = (
"-38 1600 OFFCURVE",
"3 1646 OFFCURVE",
"3 1723 CURVE SMOOTH",
"3 1800 OFFCURVE",
"-38 1843 OFFCURVE",
"-110 1843 CURVE SMOOTH",
"-181 1843 OFFCURVE",
"-220 1800 OFFCURVE",
"-220 1723 CURVE SMOOTH",
"-220 1646 OFFCURVE",
"-179 1600 OFFCURVE",
"-110 1600 CURVE SMOOTH"
);
}
);
width = 0;
}
);
note = ktVSEm;
},
{
glyphname = ktA.alt1;
lastChange = "2016-11-10 17:42:20 +0000";
layers = (
{
layerId = "CE2B0BEB-5EFE-47CF-A34E-B4149D2EF609";
paths = (
{
closed = 1;
nodes = (
"1805 0 LINE",
"1805 1274 LINE",
"1640 1274 LINE",
"1640 867 LINE",
"1575 906 OFFCURVE",
"1507 926 OFFCURVE",
"1438 926 CURVE SMOOTH",
"1350 926 OFFCURVE",
"1273 894 OFFCURVE",
"1207 829 CURVE",
"1124 894 OFFCURVE",
"1039 926 OFFCURVE",
"950 926 CURVE SMOOTH",
"861 926 OFFCURVE",
"782 892 OFFCURVE",
"715 825 CURVE",
"631 892 OFFCURVE",
"544 926 OFFCURVE",
"454 926 CURVE SMOOTH",
"391 926 OFFCURVE",
"334 910 OFFCURVE",
"283 877 CURVE SMOOTH",
"179 812 OFFCURVE",
"107 696 OFFCURVE",
"30 452 CURVE",
"180 401 LINE",
"209 481 LINE SMOOTH",
"280 681 OFFCURVE",
"371 781 OFFCURVE",
"484 781 CURVE SMOOTH",
"536 781 OFFCURVE",
"589 764 OFFCURVE",
"642 731 CURVE",
"603 668 OFFCURVE",
"571 596 OFFCURVE",
"546 513 CURVE SMOOTH",
"526 452 LINE",
"676 401 LINE",
"705 481 LINE SMOOTH",
"776 681 OFFCURVE",
"867 781 OFFCURVE",
"980 781 CURVE SMOOTH",
"1029 781 OFFCURVE",
"1080 765 OFFCURVE",
"1133 734 CURVE",
"1114 704 OFFCURVE",
"1097 671 OFFCURVE",
"1082 636 CURVE SMOOTH",
"1066 600 OFFCURVE",
"1043 539 OFFCURVE",
"1014 452 CURVE",
"1164 401 LINE",
"1193 481 LINE SMOOTH",
"1264 681 OFFCURVE",
"1355 781 OFFCURVE",
"1468 781 CURVE SMOOTH",
"1527 781 OFFCURVE",
"1584 761 OFFCURVE",
"1640 722 CURVE",
"1640 0 LINE"
);
}
);
width = 1975;
}
);
note = ktA.alt1;
},
{
glyphname = ktGII;
lastChange = "2016-11-10 17:42:20 +0000";
layers = (
{
layerId = "CE2B0BEB-5EFE-47CF-A34E-B4149D2EF609";
paths = (
{
closed = 1;
nodes = (
"1068 0 LINE",
"1068 1244 LINE SMOOTH",
"1068 1390 OFFCURVE",
"1084 1494 OFFCURVE",
"1115 1557 CURVE SMOOTH",
"1146 1620 OFFCURVE",
"1197 1651 OFFCURVE",
"1269 1651 CURVE SMOOTH",
"1337 1651 OFFCURVE",
"1385 1621 OFFCURVE",
"1412 1562 CURVE SMOOTH",
"1439 1503 OFFCURVE",
"1453 1400 OFFCURVE",
"1453 1254 CURVE SMOOTH",
"1453 0 LINE",
"1618 0 LINE",
"1618 1224 LINE SMOOTH",
"1618 1605 OFFCURVE",
"1498 1796 OFFCURVE",
"1259 1796 CURVE SMOOTH",
"1008 1796 OFFCURVE",
"903 1627 OFFCURVE",
"903 1274 CURVE SMOOTH",
"903 0 LINE"
);
},
{
closed = 1;
nodes = (
"614 268 OFFCURVE",
"735 408 OFFCURVE",
"735 605 CURVE SMOOTH",
"735 808 OFFCURVE",
"655 1031 OFFCURVE",
"495 1274 CURVE",
"368 1202 LINE",
"512 975 OFFCURVE",
"571 797 OFFCURVE",
"571 640 CURVE SMOOTH",
"571 503 OFFCURVE",
"524 413 OFFCURVE",
"421 413 CURVE SMOOTH",
"342 413 OFFCURVE",
"250 489 OFFCURVE",
"185 608 CURVE",
"80 549 LINE",
"171 372 OFFCURVE",
"306 268 OFFCURVE",
"446 268 CURVE SMOOTH"
);
}
);
width = 1788;
}
);
note = ktGII;
},
{
glyphname = ktGU;
lastChange = "2016-11-10 17:42:20 +0000";
layers = (
{
layerId = "CE2B0BEB-5EFE-47CF-A34E-B4149D2EF609";
paths = (
{
closed = 1;
nodes = (
"1171 -462 OFFCURVE",
"1297 -356 OFFCURVE",
"1297 -189 CURVE SMOOTH",
"1297 -49 OFFCURVE",
"1209 52 OFFCURVE",
"1058 76 CURVE",
"1065 118 OFFCURVE",
"1068 163 OFFCURVE",
"1068 211 CURVE SMOOTH",
"1068 1274 LINE",
"903 1274 LINE",
"903 -20 LINE",
"1050 -20 OFFCURVE",
"1132 -76 OFFCURVE",
"1132 -172 CURVE SMOOTH",
"1132 -260 OFFCURVE",
"1061 -317 OFFCURVE",
"956 -317 CURVE SMOOTH",
"906 -317 OFFCURVE",
"859 -307 OFFCURVE",
"814 -286 CURVE SMOOTH",
"725 -245 OFFCURVE",
"660 -196 OFFCURVE",
"519 -32 CURVE",
"416 -116 LINE",
"483 -200 OFFCURVE",
"545 -265 OFFCURVE",
"600 -311 CURVE SMOOTH",
"711 -404 OFFCURVE",
"833 -462 OFFCURVE",
"972 -462 CURVE SMOOTH"
);
},
{
closed = 1;
nodes = (
"614 268 OFFCURVE",
"735 408 OFFCURVE",
"735 605 CURVE SMOOTH",
"735 808 OFFCURVE",
"655 1031 OFFCURVE",
"495 1274 CURVE",
"368 1202 LINE",
"512 975 OFFCURVE",
"571 797 OFFCURVE",
"571 640 CURVE SMOOTH",
"571 503 OFFCURVE",
"524 413 OFFCURVE",
"421 413 CURVE SMOOTH",
"342 413 OFFCURVE",
"250 489 OFFCURVE",
"185 608 CURVE",
"80 549 LINE",
"171 372 OFFCURVE",
"306 268 OFFCURVE",
"446 268 CURVE SMOOTH"
);
}
);
width = 1247;
}
);
note = ktGU;
},
{
glyphname = ktGUU;
lastChange = "2016-11-10 17:42:20 +0000";
layers = (
{
layerId = "CE2B0BEB-5EFE-47CF-A34E-B4149D2EF609";
paths = (
{
closed = 1;
nodes = (
"1433 -488 LINE",
"1386 -387 OFFCURVE",
"1343 -308 OFFCURVE",
"1306 -251 CURVE SMOOTH",
"1231 -138 OFFCURVE",
"1138 -58 OFFCURVE",
"1041 -19 CURVE",
"1046 -4 LINE SMOOTH",
"1061 41 OFFCURVE",
"1068 106 OFFCURVE",
"1068 191 CURVE SMOOTH",
"1068 1274 LINE",
"903 1274 LINE",
"903 9 LINE",
"886 10 LINE",
"714 10 OFFCURVE",
"600 -85 OFFCURVE",
"600 -230 CURVE SMOOTH",
"600 -381 OFFCURVE",
"735 -491 OFFCURVE",
"920 -491 CURVE",
"944 -370 LINE",
"837 -367 OFFCURVE",
"765 -322 OFFCURVE",
"765 -247 CURVE SMOOTH",
"765 -183 OFFCURVE",
"814 -135 OFFCURVE",
"902 -135 CURVE SMOOTH",
"1045 -135 OFFCURVE",
"1173 -246 OFFCURVE",
"1286 -468 CURVE SMOOTH",
"1324 -543 LINE"
);
},
{
closed = 1;
nodes = (
"614 268 OFFCURVE",
"735 408 OFFCURVE",
"735 605 CURVE SMOOTH",
"735 808 OFFCURVE",
"655 1031 OFFCURVE",
"495 1274 CURVE",
"368 1202 LINE",
"512 975 OFFCURVE",
"571 797 OFFCURVE",
"571 640 CURVE SMOOTH",
"571 503 OFFCURVE",
"524 413 OFFCURVE",
"421 413 CURVE SMOOTH",
"342 413 OFFCURVE",
"250 489 OFFCURVE",
"185 608 CURVE",
"80 549 LINE",
"171 372 OFFCURVE",
"306 268 OFFCURVE",
"446 268 CURVE SMOOTH"
);
}
);
width = 1260;
}
);
note = ktGUU;
},
{
glyphname = ktNNa.alt1;
lastChange = "2016-11-10 17:42:20 +0000";
layers = (
{
layerId = "CE2B0BEB-5EFE-47CF-A34E-B4149D2EF609";
paths = (
{
closed = 1;
nodes = (
"962 -297 LINE",
"629 -65 OFFCURVE",
"433 129 OFFCURVE",
"314 333 CURVE",
"377 417 OFFCURVE",
"428 493 OFFCURVE",
"466 562 CURVE",
"835 562 LINE",
"835 0 LINE",
"1000 0 LINE",
"1000 562 LINE",
"1340 562 LINE",
"1340 0 LINE",
"1505 0 LINE",
"1505 1274 LINE",
"1340 1274 LINE",
"1340 707 LINE",
"1000 707 LINE",
"1000 1274 LINE",
"835 1274 LINE",
"835 707 LINE",
"526 707 LINE",
"540 756 OFFCURVE",
"547 811 OFFCURVE",
"547 872 CURVE SMOOTH",
"547 1024 OFFCURVE",
"483 1153 OFFCURVE",
"323 1284 CURVE",
"236 1186 LINE",
"348 1077 OFFCURVE",
"382 994 OFFCURVE",
"382 889 CURVE SMOOTH",
"382 785 OFFCURVE",
"348 692 OFFCURVE",
"285 597 CURVE SMOOTH",
"254 549 OFFCURVE",
"192 474 OFFCURVE",
"100 371 CURVE",
"292 48 OFFCURVE",
"511 -174 OFFCURVE",
"871 -413 CURVE"
);
}
);
width = 1675;
}
);
note = ktNNa.alt1;
},
{
glyphname = ktKHU.alt1;
lastChange = "2016-11-10 17:42:20 +0000";
layers = (
{
layerId = "CE2B0BEB-5EFE-47CF-A34E-B4149D2EF609";
paths = (
{
closed = 1;
nodes = (
"1135 -296 OFFCURVE",
"1327 -87 OFFCURVE",
"1327 261 CURVE SMOOTH",
"1327 1274 LINE",
"1162 1274 LINE",
"1162 701 LINE",
"1091 620 OFFCURVE",
"1015 579 OFFCURVE",
"932 579 CURVE SMOOTH",
"829 579 OFFCURVE",
"795 629 OFFCURVE",
"795 756 CURVE SMOOTH",
"795 1274 LINE",
"630 1274 LINE",
"630 821 LINE SMOOTH",
"630 770 OFFCURVE",
"635 723 OFFCURVE",
"644 680 CURVE",
"580 613 OFFCURVE",
"509 579 OFFCURVE",
"432 579 CURVE SMOOTH",
"341 579 OFFCURVE",
"295 638 OFFCURVE",
"295 756 CURVE SMOOTH",
"295 1274 LINE",
"130 1274 LINE",
"130 772 LINE SMOOTH",
"130 567 OFFCURVE",
"259 435 OFFCURVE",
"467 435 CURVE SMOOTH",
"567 435 OFFCURVE",
"664 471 OFFCURVE",
"720 522 CURVE",
"725 522 LINE",
"782 464 OFFCURVE",
"862 435 OFFCURVE",
"967 435 CURVE SMOOTH",
"1043 435 OFFCURVE",
"1125 467 OFFCURVE",
"1164 506 CURVE",
"1167 503 LINE",
"1164 478 OFFCURVE",
"1162 403 OFFCURVE",
"1162 278 CURVE SMOOTH",
"1162 -10 OFFCURVE",
"1045 -151 OFFCURVE",
"796 -151 CURVE SMOOTH",
"627 -151 OFFCURVE",
"437 -76 OFFCURVE",
"228 75 CURVE",
"145 -36 LINE",
"406 -219 OFFCURVE",
"621 -296 OFFCURVE",
"816 -296 CURVE SMOOTH"
);
}
);
width = 1497;
}
);
note = ktKHU.alt1;
},
{
glyphname = ktKU.alt1;
lastChange = "2016-11-10 17:37:31 +0000";
layers = (
{
layerId = "CE2B0BEB-5EFE-47CF-A34E-B4149D2EF609";
paths = (
{
closed = 1;
nodes = (
"943 -330 OFFCURVE",
"1068 -299 OFFCURVE",
"1177 -236 CURVE SMOOTH",
"1393 -112 OFFCURVE",
"1519 130 OFFCURVE",
"1519 411 CURVE SMOOTH",
"1519 714 OFFCURVE",
"1371 911 OFFCURVE",
"1131 911 CURVE SMOOTH",
"1043 911 OFFCURVE",
"963 879 OFFCURVE",
"892 815 CURVE",
"887 815 LINE",
"890 842 OFFCURVE",
"892 887 OFFCURVE",
"892 951 CURVE SMOOTH",
"892 1274 LINE",
"727 1274 LINE",
"727 904 LINE",
"644 962 OFFCURVE",
"553 991 OFFCURVE",
"452 991 CURVE SMOOTH",
"385 991 OFFCURVE",
"325 978 OFFCURVE",
"270 952 CURVE SMOOTH",
"161 900 OFFCURVE",
"95 802 OFFCURVE",
"95 683 CURVE SMOOTH",
"95 620 OFFCURVE",
"111 563 OFFCURVE",
"143 510 CURVE SMOOTH",
"206 404 OFFCURVE",
"324 340 OFFCURVE",
"459 340 CURVE SMOOTH",
"554 340 OFFCURVE",
"644 373 OFFCURVE",
"727 438 CURVE",
"732 438 LINE",
"729 427 OFFCURVE",
"727 388 OFFCURVE",
"727 322 CURVE SMOOTH",
"727 0 LINE",
"892 0 LINE",
"892 603 LINE",
"995 720 OFFCURVE",
"1070 766 OFFCURVE",
"1146 766 CURVE SMOOTH",
"1282 766 OFFCURVE",
"1354 644 OFFCURVE",
"1354 421 CURVE SMOOTH",
"1354 302 OFFCURVE",
"1331 197 OFFCURVE",
"1285 105 CURVE SMOOTH",
"1193 -80 OFFCURVE",
"1015 -185 OFFCURVE",
"791 -185 CURVE SMOOTH",
"615 -185 OFFCURVE",
"452 -121 OFFCURVE",
"205 78 CURVE",
"120 -25 LINE",
"329 -221 OFFCURVE",
"569 -330 OFFCURVE",
"801 -330 CURVE SMOOTH"
);
},
{
closed = 1;
nodes = (
"328 484 OFFCURVE",
"260 555 OFFCURVE",
"260 663 CURVE SMOOTH",
"260 770 OFFCURVE",
"347 846 OFFCURVE",
"472 846 CURVE SMOOTH",
"556 846 OFFCURVE",
"641 824 OFFCURVE",
"727 779 CURVE",
"727 637 LINE",
"620 522 OFFCURVE",
"539 484 OFFCURVE",
"439 484 CURVE SMOOTH"
);
}
);
width = 1639;
}
);
note = ktKU.alt1;
},
{
glyphname = ktGU.alt1;
lastChange = "2016-11-10 17:42:20 +0000";
layers = (
{
layerId = "CE2B0BEB-5EFE-47CF-A34E-B4149D2EF609";
paths = (
{
closed = 1;
nodes = (
"925 -420 OFFCURVE",
"1075 -253 OFFCURVE",
"1075 80 CURVE SMOOTH",
"1075 1274 LINE",
"910 1274 LINE",
"910 100 LINE SMOOTH",
"910 -152 OFFCURVE",
"819 -275 OFFCURVE",
"615 -275 CURVE SMOOTH",
"479 -275 OFFCURVE",
"347 -218 OFFCURVE",
"187 -91 CURVE",
"101 -194 LINE",
"298 -353 OFFCURVE",
"461 -420 OFFCURVE",
"625 -420 CURVE SMOOTH"
);
},
{
closed = 1;
nodes = (
"506 268 OFFCURVE",
"554 282 OFFCURVE",
"599 309 CURVE SMOOTH",
"688 364 OFFCURVE",
"742 470 OFFCURVE",
"742 605 CURVE SMOOTH",
"742 821 OFFCURVE",
"663 1048 OFFCURVE",
"506 1287 CURVE",
"375 1212 LINE",
"428 1128 OFFCURVE",
"468 1058 OFFCURVE",
"493 1002 CURVE SMOOTH",
"544 889 OFFCURVE",
"578 767 OFFCURVE",
"578 640 CURVE SMOOTH",
"578 501 OFFCURVE",
"528 413 OFFCURVE",
"436 413 CURVE SMOOTH",
"360 413 OFFCURVE",
"278 480 OFFCURVE",
"190 614 CURVE",
"80 542 LINE",
"179 374 OFFCURVE",
"318 268 OFFCURVE",
"453 268 CURVE SMOOTH"
);
}
);
width = 1245;
}
);
note = ktGU.alt1;
},
{
glyphname = ktKHII;
lastChange = "2016-11-10 17:42:20 +0000";
layers = (
{
layerId = "CE2B0BEB-5EFE-47CF-A34E-B4149D2EF609";
paths = (
{
closed = 1;
nodes = (
"1327 0 LINE",
"1327 1244 LINE SMOOTH",
"1327 1523 OFFCURVE",
"1391 1651 OFFCURVE",
"1528 1651 CURVE SMOOTH",
"1595 1651 OFFCURVE",
"1643 1622 OFFCURVE",
"1671 1563 CURVE SMOOTH",
"1698 1504 OFFCURVE",
"1712 1401 OFFCURVE",
"1712 1254 CURVE SMOOTH",
"1712 0 LINE",
"1877 0 LINE",
"1877 1224 LINE SMOOTH",
"1877 1617 OFFCURVE",
"1763 1796 OFFCURVE",
"1518 1796 CURVE SMOOTH",
"1281 1796 OFFCURVE",
"1162 1622 OFFCURVE",
"1162 1274 CURVE SMOOTH",
"1162 701 LINE",
"1091 620 OFFCURVE",
"1015 579 OFFCURVE",
"932 579 CURVE SMOOTH",
"829 579 OFFCURVE",
"795 629 OFFCURVE",
"795 756 CURVE SMOOTH",
"795 1274 LINE",
"630 1274 LINE",
"630 821 LINE SMOOTH",
"630 770 OFFCURVE",
"635 723 OFFCURVE",
"644 680 CURVE",
"580 613 OFFCURVE",
"509 579 OFFCURVE",
"432 579 CURVE SMOOTH",
"341 579 OFFCURVE",
"295 638 OFFCURVE",
"295 756 CURVE SMOOTH",
"295 1274 LINE",
"130 1274 LINE",
"130 772 LINE SMOOTH",
"130 567 OFFCURVE",
"259 435 OFFCURVE",
"467 435 CURVE SMOOTH",
"567 435 OFFCURVE",
"664 471 OFFCURVE",
"720 522 CURVE",
"725 522 LINE",
"782 464 OFFCURVE",
"862 435 OFFCURVE",
"967 435 CURVE SMOOTH",
"1047 435 OFFCURVE",
"1119 466 OFFCURVE",
"1162 503 CURVE",
"1167 503 LINE",
"1164 480 OFFCURVE",
"1162 423 OFFCURVE",
"1162 332 CURVE SMOOTH",
"1162 0 LINE"
);
}
);
width = 2047;
}
);
note = ktKHII;
},
{
glyphname = ktRII;
lastChange = "2016-11-10 17:42:20 +0000";
layers = (
{
layerId = "CE2B0BEB-5EFE-47CF-A34E-B4149D2EF609";
paths = (
{
closed = 1;
nodes = (
"757 0 LINE",
"757 1244 LINE SMOOTH",
"757 1390 OFFCURVE",
"773 1494 OFFCURVE",
"804 1557 CURVE SMOOTH",
"835 1620 OFFCURVE",
"886 1651 OFFCURVE",
"958 1651 CURVE SMOOTH",
"1026 1651 OFFCURVE",
"1074 1621 OFFCURVE",
"1101 1562 CURVE SMOOTH",
"1128 1503 OFFCURVE",
"1142 1400 OFFCURVE",
"1142 1254 CURVE SMOOTH",
"1142 0 LINE",
"1307 0 LINE",
"1307 1224 LINE SMOOTH",
"1307 1605 OFFCURVE",
"1187 1796 OFFCURVE",
"948 1796 CURVE SMOOTH",
"713 1796 OFFCURVE",
"610 1637 OFFCURVE",
"610 1249 CURVE",
"70 758 LINE",
"190 631 LINE",
"594 1025 LINE",
"597 1023 LINE",
"594 1006 OFFCURVE",
"592 956 OFFCURVE",
"592 873 CURVE SMOOTH",
"592 0 LINE"
);
}
);
width = 1477;
}
);
note = ktRII;
},
{
glyphname = ktJII;
lastChange = "2016-11-10 17:42:20 +0000";
layers = (
{
layerId = "CE2B0BEB-5EFE-47CF-A34E-B4149D2EF609";
paths = (
{
closed = 1;
nodes = (
"1257 0 LINE",
"1257 1244 LINE SMOOTH",
"1257 1390 OFFCURVE",
"1273 1494 OFFCURVE",
"1304 1557 CURVE SMOOTH",
"1335 1620 OFFCURVE",
"1386 1651 OFFCURVE",
"1458 1651 CURVE SMOOTH",
"1526 1651 OFFCURVE",
"1574 1621 OFFCURVE",
"1601 1562 CURVE SMOOTH",
"1628 1503 OFFCURVE",
"1642 1400 OFFCURVE",
"1642 1254 CURVE SMOOTH",
"1642 0 LINE",
"1807 0 LINE",
"1807 1224 LINE SMOOTH",
"1807 1605 OFFCURVE",
"1687 1796 OFFCURVE",
"1448 1796 CURVE SMOOTH",
"1197 1796 OFFCURVE",
"1092 1627 OFFCURVE",
"1092 1274 CURVE SMOOTH",
"1092 1255 OFFCURVE",
"1094 1236 OFFCURVE",
"1098 1218 CURVE",
"1045 1262 OFFCURVE",
"985 1284 OFFCURVE",
"917 1284 CURVE SMOOTH",
"711 1284 OFFCURVE",
"608 1160 OFFCURVE",
"608 913 CURVE SMOOTH",
"608 468 LINE SMOOTH",
"608 315 OFFCURVE",
"548 240 OFFCURVE",
"443 240 CURVE SMOOTH",
"345 240 OFFCURVE",
"296 316 OFFCURVE",
"296 467 CURVE SMOOTH",
"296 1274 LINE",
"131 1274 LINE",
"130 477 LINE SMOOTH",
"130 238 OFFCURVE",
"254 95 OFFCURVE",
"453 95 CURVE SMOOTH",
"650 95 OFFCURVE",
"773 235 OFFCURVE",
"773 458 CURVE SMOOTH",
"773 903 LINE SMOOTH",
"773 1055 OFFCURVE",
"828 1139 OFFCURVE",
"927 1139 CURVE SMOOTH",
"1035 1139 OFFCURVE",
"1092 1062 OFFCURVE",
"1092 882 CURVE SMOOTH",
"1092 0 LINE"
);
}
);
width = 1977;
}
);
note = ktJII;
},
{
glyphname = ktCHII;
lastChange = "2016-11-10 17:42:20 +0000";
layers = (
{
layerId = "CE2B0BEB-5EFE-47CF-A34E-B4149D2EF609";
paths = (
{
closed = 1;
nodes = (
"1423 88 LINE",
"1342 159 OFFCURVE",
"1274 226 OFFCURVE",
"1217 289 CURVE",
"1336 448 OFFCURVE",
"1402 659 OFFCURVE",
"1402 863 CURVE SMOOTH",
"1402 960 OFFCURVE",
"1381 1039 OFFCURVE",
"1360 1117 CURVE SMOOTH",
"1339 1195 OFFCURVE",
"1318 1273 OFFCURVE",
"1318 1374 CURVE SMOOTH",
"1318 1546 OFFCURVE",
"1383 1651 OFFCURVE",
"1499 1651 CURVE SMOOTH",
"1571 1651 OFFCURVE",
"1621 1622 OFFCURVE",
"1650 1564 CURVE SMOOTH",
"1679 1506 OFFCURVE",
"1693 1403 OFFCURVE",
"1693 1254 CURVE SMOOTH",
"1693 0 LINE",
"1858 0 LINE",
"1858 1224 LINE SMOOTH",
"1858 1600 OFFCURVE",
"1742 1796 OFFCURVE",
"1489 1796 CURVE SMOOTH",
"1293 1796 OFFCURVE",
"1171 1642 OFFCURVE",
"1171 1397 CURVE SMOOTH",
"1171 1341 OFFCURVE",
"1176 1296 OFFCURVE",
"1187 1261 CURVE",
"1150 1276 OFFCURVE",
"1111 1284 OFFCURVE",
"1069 1284 CURVE SMOOTH",
"881 1284 OFFCURVE",
"768 1149 OFFCURVE",
"768 914 CURVE SMOOTH",
"768 719 OFFCURVE",
"853 514 OFFCURVE",
"1023 301 CURVE",
"909 190 OFFCURVE",
"767 134 OFFCURVE",
"598 134 CURVE SMOOTH",
"415 134 OFFCURVE",
"295 224 OFFCURVE",
"295 364 CURVE SMOOTH",
"295 512 OFFCURVE",
"428 597 OFFCURVE",
"672 597 CURVE",
"652 762 LINE",
"559 762 OFFCURVE",
"475 749 OFFCURVE",
"400 722 CURVE",
"346 776 OFFCURVE",
"319 840 OFFCURVE",
"319 913 CURVE SMOOTH",
"319 1061 OFFCURVE",
"421 1139 OFFCURVE",
"617 1139 CURVE",
"606 1284 LINE",
"317 1284 OFFCURVE",
"153 1158 OFFCURVE",
"153 943 CURVE SMOOTH",
"153 840 OFFCURVE",
"203 742 OFFCURVE",
"287 665 CURVE",
"182 594 OFFCURVE",
"130 501 OFFCURVE",
"130 385 CURVE SMOOTH",
"130 146 OFFCURVE",
"333 -10 OFFCURVE",
"620 -10 CURVE SMOOTH",
"818 -10 OFFCURVE",
"986 55 OFFCURVE",
"1124 184 CURVE",
"1193 112 OFFCURVE",
"1262 47 OFFCURVE",
"1331 -11 CURVE"
);
},
{
closed = 1;
nodes = (
"993 575 OFFCURVE",
"933 731 OFFCURVE",
"933 904 CURVE SMOOTH",
"933 1055 OFFCURVE",
"987 1139 OFFCURVE",
"1079 1139 CURVE SMOOTH",
"1179 1139 OFFCURVE",
"1237 1040 OFFCURVE",
"1237 863 CURVE SMOOTH",
"1237 690 OFFCURVE",
"1196 539 OFFCURVE",
"1114 412 CURVE"
);
}
);
width = 2028;
}
);
note = ktCHII;
},
{
glyphname = ktHU;
lastChange = "2016-11-10 17:42:20 +0000";
layers = (
{
layerId = "CE2B0BEB-5EFE-47CF-A34E-B4149D2EF609";
paths = (
{
closed = 1;
nodes = (
"789 -481 OFFCURVE",
"929 -368 OFFCURVE",
"929 -203 CURVE SMOOTH",
"929 -122 OFFCURVE",
"890 -62 OFFCURVE",
"832 -13 CURVE SMOOTH",
"774 36 OFFCURVE",
"695 74 OFFCURVE",
"617 114 CURVE SMOOTH",
"539 153 OFFCURVE",
"461 193 OFFCURVE",
"403 245 CURVE SMOOTH",
"345 296 OFFCURVE",
"305 359 OFFCURVE",
"305 444 CURVE SMOOTH",
"305 605 OFFCURVE",
"420 705 OFFCURVE",
"605 705 CURVE SMOOTH",
"729 705 OFFCURVE",
"802 648 OFFCURVE",
"802 563 CURVE SMOOTH",
"802 487 OFFCURVE",
"750 424 OFFCURVE",
"679 424 CURVE SMOOTH",
"628 424 OFFCURVE",
"584 438 OFFCURVE",
"546 466 CURVE",
"482 373 LINE",
"546 310 OFFCURVE",
"618 279 OFFCURVE",
"699 279 CURVE SMOOTH",
"850 279 OFFCURVE",
"966 387 OFFCURVE",
"966 543 CURVE SMOOTH",
"966 602 OFFCURVE",
"950 655 OFFCURVE",
"919 702 CURVE SMOOTH",
"855 797 OFFCURVE",
"739 850 OFFCURVE",
"595 850 CURVE SMOOTH",
"531 850 OFFCURVE",
"468 839 OFFCURVE",
"407 818 CURVE",
"386 856 OFFCURVE",
"376 898 OFFCURVE",
"376 944 CURVE SMOOTH",
"376 1080 OFFCURVE",
"487 1139 OFFCURVE",
"724 1139 CURVE",
"713 1284 LINE",
"386 1284 OFFCURVE",
"210 1174 OFFCURVE",
"210 974 CURVE SMOOTH",
"210 899 OFFCURVE",
"237 826 OFFCURVE",
"290 755 CURVE",
"198 686 OFFCURVE",
"140 582 OFFCURVE",
"140 454 CURVE SMOOTH",
"140 391 OFFCURVE",
"154 333 OFFCURVE",
"182 282 CURVE SMOOTH",
"237 178 OFFCURVE",
"318 111 OFFCURVE",
"567 -8 CURVE SMOOTH",
"637 -42 OFFCURVE",
"687 -73 OFFCURVE",
"718 -102 CURVE SMOOTH",
"749 -131 OFFCURVE",
"764 -161 OFFCURVE",
"764 -193 CURVE SMOOTH",
"764 -292 OFFCURVE",
"691 -336 OFFCURVE",
"582 -336 CURVE SMOOTH",
"463 -336 OFFCURVE",
"339 -269 OFFCURVE",
"209 -134 CURVE",
"120 -214 LINE",
"240 -377 OFFCURVE",
"419 -481 OFFCURVE",
"592 -481 CURVE SMOOTH"
);
}
);
width = 1076;
}
);
note = ktHU;
},
{
glyphname = ktHUU;
lastChange = "2016-11-10 17:42:20 +0000";
layers = (
{
layerId = "CE2B0BEB-5EFE-47CF-A34E-B4149D2EF609";
paths = (
{
closed = 1;
nodes = (
"517 -483 OFFCURVE",
"591 -460 OFFCURVE",
"658 -414 CURVE",
"595 -284 LINE",
"540 -317 OFFCURVE",
"490 -338 OFFCURVE",
"415 -338 CURVE SMOOTH",
"335 -338 OFFCURVE",
"285 -306 OFFCURVE",
"285 -242 CURVE SMOOTH",
"285 -170 OFFCURVE",
"347 -125 OFFCURVE",
"452 -125 CURVE SMOOTH",
"555 -125 OFFCURVE",
"686 -184 OFFCURVE",
"844 -303 CURVE SMOOTH",
"948 -381 LINE",
"1027 -293 LINE",
"978 -253 OFFCURVE",
"926 -214 OFFCURVE",
"871 -177 CURVE SMOOTH",
"815 -140 OFFCURVE",
"760 -102 OFFCURVE",
"705 -65 CURVE SMOOTH",
"595 9 OFFCURVE",
"491 83 OFFCURVE",
"413 165 CURVE SMOOTH",
"335 247 OFFCURVE",
"285 337 OFFCURVE",
"285 444 CURVE SMOOTH",
"285 605 OFFCURVE",
"400 705 OFFCURVE",
"585 705 CURVE SMOOTH",
"709 705 OFFCURVE",
"782 648 OFFCURVE",
"782 563 CURVE SMOOTH",
"782 487 OFFCURVE",
"730 424 OFFCURVE",
"659 424 CURVE SMOOTH",
"608 424 OFFCURVE",
"564 438 OFFCURVE",
"526 466 CURVE",
"462 373 LINE",
"526 310 OFFCURVE",
"598 279 OFFCURVE",
"679 279 CURVE SMOOTH",
"830 279 OFFCURVE",
"946 387 OFFCURVE",
"946 543 CURVE SMOOTH",
"946 602 OFFCURVE",
"930 655 OFFCURVE",
"899 702 CURVE SMOOTH",
"835 797 OFFCURVE",
"719 850 OFFCURVE",
"575 850 CURVE SMOOTH",
"511 850 OFFCURVE",
"448 839 OFFCURVE",
"387 818 CURVE",
"366 856 OFFCURVE",
"356 898 OFFCURVE",
"356 944 CURVE SMOOTH",
"356 1080 OFFCURVE",
"467 1139 OFFCURVE",
"704 1139 CURVE",
"693 1284 LINE",
"366 1284 OFFCURVE",
"190 1174 OFFCURVE",
"190 974 CURVE SMOOTH",
"190 899 OFFCURVE",
"217 826 OFFCURVE",
"270 755 CURVE",
"178 686 OFFCURVE",
"120 582 OFFCURVE",
"120 454 CURVE SMOOTH",
"120 299 OFFCURVE",
"212 154 OFFCURVE",
"395 19 CURVE",
"228 7 OFFCURVE",
"120 -88 OFFCURVE",
"120 -228 CURVE SMOOTH",
"120 -377 OFFCURVE",
"251 -483 OFFCURVE",
"435 -483 CURVE SMOOTH"
);
}
);
width = 1057;
}
);
note = ktHUU;
},
{
glyphname = ktSII;
lastChange = "2016-11-10 17:42:20 +0000";
layers = (
{
layerId = "CE2B0BEB-5EFE-47CF-A34E-B4149D2EF609";
paths = (
{
closed = 1;
nodes = (
"853 57 LINE",
"707 277 LINE SMOOTH",
"650 364 OFFCURVE",
"600 434 OFFCURVE",
"559 487 CURVE",
"646 521 OFFCURVE",
"714 569 OFFCURVE",
"763 630 CURVE",
"831 597 OFFCURVE",
"903 580 OFFCURVE",
"978 580 CURVE SMOOTH",
"1029 580 OFFCURVE",
"1072 585 OFFCURVE",
"1106 595 CURVE",
"1106 0 LINE",
"1271 0 LINE",
"1271 1244 LINE SMOOTH",
"1271 1520 OFFCURVE",
"1338 1651 OFFCURVE",
"1479 1651 CURVE SMOOTH",
"1542 1651 OFFCURVE",
"1587 1621 OFFCURVE",
"1615 1560 CURVE SMOOTH",
"1642 1499 OFFCURVE",
"1656 1397 OFFCURVE",
"1656 1254 CURVE SMOOTH",
"1656 0 LINE",
"1821 0 LINE",
"1821 1224 LINE SMOOTH",
"1821 1600 OFFCURVE",
"1713 1796 OFFCURVE",
"1469 1796 CURVE SMOOTH",
"1236 1796 OFFCURVE",
"1106 1615 OFFCURVE",
"1106 1274 CURVE SMOOTH",
"1106 750 LINE",
"1063 730 OFFCURVE",
"1016 720 OFFCURVE",
"963 720 CURVE SMOOTH",
"917 720 OFFCURVE",
"871 728 OFFCURVE",
"826 744 CURVE",
"841 785 OFFCURVE",
"848 830 OFFCURVE",
"848 879 CURVE SMOOTH",
"848 953 OFFCURVE",
"831 1021 OFFCURVE",
"797 1084 CURVE SMOOTH",
"729 1208 OFFCURVE",
"602 1284 OFFCURVE",
"445 1284 CURVE SMOOTH",
"336 1284 OFFCURVE",
"233 1243 OFFCURVE",
"136 1162 CURVE",
"224 1039 LINE",
"265 1071 OFFCURVE",
"295 1092 OFFCURVE",
"316 1103 CURVE SMOOTH",
"357 1124 OFFCURVE",
"404 1139 OFFCURVE",
"456 1139 CURVE SMOOTH",
"593 1139 OFFCURVE",
"683 1048 OFFCURVE",
"683 897 CURVE SMOOTH",
"683 766 OFFCURVE",
"607 661 OFFCURVE",
"452 608 CURVE",
"379 677 OFFCURVE",
"310 712 OFFCURVE",
"246 712 CURVE SMOOTH",
"165 712 OFFCURVE",
"120 667 OFFCURVE",
"120 603 CURVE SMOOTH",
"120 515 OFFCURVE",
"217 447 OFFCURVE",
"342 447 CURVE",
"422 452 LINE",
"709 -22 LINE"
);
}
);
width = 1991;
}
);
note = ktSII;
},
{
glyphname = ktCU;
lastChange = "2016-11-10 17:42:20 +0000";
layers = (
{
layerId = "CE2B0BEB-5EFE-47CF-A34E-B4149D2EF609";
paths = (
{
closed = 1;
nodes = (
"1081 -460 OFFCURVE",
"1208 -351 OFFCURVE",
"1208 -180 CURVE SMOOTH",
"1208 -40 OFFCURVE",
"1128 54 OFFCURVE",
"969 77 CURVE",
"976 119 OFFCURVE",
"979 164 OFFCURVE",
"979 211 CURVE SMOOTH",
"979 1274 LINE",
"814 1274 LINE",
"814 495 LINE",
"742 440 OFFCURVE",
"654 413 OFFCURVE",
"549 413 CURVE SMOOTH",
"442 413 OFFCURVE",
"350 453 OFFCURVE",
"274 533 CURVE",
"349 596 OFFCURVE",
"403 648 OFFCURVE",
"438 689 CURVE SMOOTH",
"506 769 OFFCURVE",
"547 850 OFFCURVE",
"547 942 CURVE SMOOTH",
"547 1066 OFFCURVE",
"488 1167 OFFCURVE",
"323 1284 CURVE",
"236 1186 LINE",
"325 1118 OFFCURVE",
"382 1052 OFFCURVE",
"382 959 CURVE SMOOTH",
"382 870 OFFCURVE",
"315 775 OFFCURVE",
"174 663 CURVE SMOOTH",
"60 571 LINE",
"219 362 OFFCURVE",
"391 268 OFFCURVE",
"570 268 CURVE SMOOTH",
"663 268 OFFCURVE",
"745 285 OFFCURVE",
"814 318 CURVE",
"814 -20 LINE",
"967 -20 OFFCURVE",
"1043 -68 OFFCURVE",
"1043 -163 CURVE SMOOTH",
"1043 -252 OFFCURVE",
"978 -315 OFFCURVE",
"857 -315 CURVE SMOOTH",
"710 -315 OFFCURVE",
"566 -261 OFFCURVE",
"354 -106 CURVE",
"276 -209 LINE",
"463 -365 OFFCURVE",
"684 -460 OFFCURVE",
"873 -460 CURVE SMOOTH"
);
}
);
width = 1158;
}
);
note = ktCU;
},
{
glyphname = ktBU;
lastChange = "2016-11-10 17:42:20 +0000";
layers = (
{
layerId = "CE2B0BEB-5EFE-47CF-A34E-B4149D2EF609";
paths = (
{
closed = 1;
nodes = (
"1096 -462 OFFCURVE",
"1222 -356 OFFCURVE",
"1222 -189 CURVE SMOOTH",
"1222 -49 OFFCURVE",
"1134 52 OFFCURVE",
"983 76 CURVE",
"990 118 OFFCURVE",
"993 163 OFFCURVE",
"993 211 CURVE SMOOTH",
"993 1274 LINE",
"828 1274 LINE",
"828 588 LINE",
"741 513 OFFCURVE",
"642 476 OFFCURVE",
"530 476 CURVE SMOOTH",
"370 476 OFFCURVE",
"255 581 OFFCURVE",
"255 742 CURVE SMOOTH",
"255 895 OFFCURVE",
"368 1002 OFFCURVE",
"524 1002 CURVE SMOOTH",
"570 1002 OFFCURVE",
"614 993 OFFCURVE",
"657 975 CURVE",
"712 1105 LINE",
"632 1146 OFFCURVE",
"577 1159 OFFCURVE",
"506 1159 CURVE SMOOTH",
"433 1159 OFFCURVE",
"364 1141 OFFCURVE",
"300 1104 CURVE SMOOTH",
"171 1031 OFFCURVE",
"90 897 OFFCURVE",
"90 757 CURVE SMOOTH",
"90 678 OFFCURVE",
"110 606 OFFCURVE",
"149 541 CURVE SMOOTH",
"227 409 OFFCURVE",
"375 331 OFFCURVE",
"550 331 CURVE SMOOTH",
"653 331 OFFCURVE",
"745 354 OFFCURVE",
"828 399 CURVE",
"828 -20 LINE",
"975 -20 OFFCURVE",
"1057 -76 OFFCURVE",
"1057 -172 CURVE SMOOTH",
"1057 -260 OFFCURVE",
"986 -317 OFFCURVE",
"881 -317 CURVE SMOOTH",
"831 -317 OFFCURVE",
"784 -307 OFFCURVE",
"739 -286 CURVE SMOOTH",
"650 -245 OFFCURVE",
"585 -196 OFFCURVE",
"444 -32 CURVE",
"341 -116 LINE",
"408 -200 OFFCURVE",
"470 -265 OFFCURVE",
"525 -311 CURVE SMOOTH",
"636 -404 OFFCURVE",
"758 -462 OFFCURVE",
"897 -462 CURVE SMOOTH"
);
}
);
width = 1172;
}
);
note = ktBU;
},
{
glyphname = ktHII;
lastChange = "2016-11-10 17:42:20 +0000";
layers = (
{
layerId = "CE2B0BEB-5EFE-47CF-A34E-B4149D2EF609";
paths = (
{
closed = 1;
nodes = (
"758 -75 LINE",
"623 8 OFFCURVE",
"525 76 OFFCURVE",
"463 130 CURVE SMOOTH",
"338 238 OFFCURVE",
"285 337 OFFCURVE",
"285 444 CURVE SMOOTH",
"285 605 OFFCURVE",
"400 705 OFFCURVE",
"585 705 CURVE SMOOTH",
"709 705 OFFCURVE",
"782 648 OFFCURVE",
"782 563 CURVE SMOOTH",
"782 487 OFFCURVE",
"730 424 OFFCURVE",
"659 424 CURVE SMOOTH",
"608 424 OFFCURVE",
"564 438 OFFCURVE",
"526 466 CURVE",
"462 373 LINE",
"526 310 OFFCURVE",
"598 279 OFFCURVE",
"679 279 CURVE SMOOTH",
"830 279 OFFCURVE",
"946 387 OFFCURVE",
"946 543 CURVE SMOOTH",
"946 602 OFFCURVE",
"930 655 OFFCURVE",
"899 702 CURVE SMOOTH",
"835 797 OFFCURVE",
"719 850 OFFCURVE",
"575 850 CURVE SMOOTH",
"511 850 OFFCURVE",
"448 839 OFFCURVE",
"387 818 CURVE",
"366 856 OFFCURVE",
"356 898 OFFCURVE",
"356 944 CURVE SMOOTH",
"356 1080 OFFCURVE",
"467 1139 OFFCURVE",
"704 1139 CURVE",
"693 1200 OFFCURVE",
"688 1269 OFFCURVE",
"688 1344 CURVE SMOOTH",
"688 1539 OFFCURVE",
"777 1651 OFFCURVE",
"929 1651 CURVE SMOOTH",
"1090 1651 OFFCURVE",
"1163 1527 OFFCURVE",
"1163 1254 CURVE SMOOTH",
"1163 0 LINE",
"1328 0 LINE",
"1328 1224 LINE SMOOTH",
"1328 1587 OFFCURVE",
"1176 1796 OFFCURVE",
"919 1796 CURVE SMOOTH",
"687 1796 OFFCURVE",
"541 1628 OFFCURVE",
"541 1367 CURVE SMOOTH",
"541 1337 OFFCURVE",
"545 1307 OFFCURVE",
"552 1276 CURVE",
"304 1245 OFFCURVE",
"190 1134 OFFCURVE",
"190 974 CURVE SMOOTH",
"190 899 OFFCURVE",
"217 826 OFFCURVE",
"270 755 CURVE",
"178 686 OFFCURVE",
"120 582 OFFCURVE",
"120 454 CURVE SMOOTH",
"120 386 OFFCURVE",
"138 319 OFFCURVE",
"173 254 CURVE SMOOTH",
"243 122 OFFCURVE",
"368 7 OFFCURVE",
"684 -185 CURVE"
);
}
);
width = 1498;
}
);
note = ktHII;
},
{
glyphname = ktZero;
lastChange = "2016-11-10 17:42:20 +0000";
layers = (
{
layerId = "CE2B0BEB-5EFE-47CF-A34E-B4149D2EF609";
paths = (
{
closed = 1;
nodes = (
"613 204 OFFCURVE",
"684 223 OFFCURVE",
"747 261 CURVE SMOOTH",
"872 337 OFFCURVE",
"946 479 OFFCURVE",
"946 642 CURVE SMOOTH",
"946 726 OFFCURVE",
"928 803 OFFCURVE",
"891 873 CURVE SMOOTH",
"818 1013 OFFCURVE",
"677 1098 OFFCURVE",
"513 1098 CURVE SMOOTH",
"436 1098 OFFCURVE",
"365 1079 OFFCURVE",
"300 1040 CURVE SMOOTH",
"168 963 OFFCURVE",
"90 819 OFFCURVE",
"90 654 CURVE SMOOTH",
"90 567 OFFCURVE",
"109 490 OFFCURVE",
"148 421 CURVE SMOOTH",
"225 283 OFFCURVE",
"368 204 OFFCURVE",
"533 204 CURVE SMOOTH"
);
},
{
closed = 1;
nodes = (
"362 349 OFFCURVE",
"257 465 OFFCURVE",
"257 644 CURVE SMOOTH",
"257 833 OFFCURVE",
"359 953 OFFCURVE",
"522 953 CURVE SMOOTH",
"679 953 OFFCURVE",
"779 832 OFFCURVE",
"779 652 CURVE SMOOTH",
"779 469 OFFCURVE",
"680 349 OFFCURVE",
"523 349 CURVE SMOOTH"
);
}
);
width = 1046;
}
);
note = ktZero;
unicode = 0966;
},
{
glyphname = ktOne;
lastChange = "2016-11-10 17:42:20 +0000";
layers = (
{
layerId = "CE2B0BEB-5EFE-47CF-A34E-B4149D2EF609";
paths = (
{
closed = 1;
nodes = (
"858 0 LINE",
"858 885 LINE SMOOTH",
"858 1132 OFFCURVE",
"718 1284 OFFCURVE",
"497 1284 CURVE SMOOTH",
"302 1284 OFFCURVE",
"160 1151 OFFCURVE",
"160 968 CURVE SMOOTH",
"160 908 OFFCURVE",
"176 852 OFFCURVE",
"208 801 CURVE SMOOTH",
"272 698 OFFCURVE",
"391 634 OFFCURVE",
"516 634 CURVE SMOOTH",
"581 634 OFFCURVE",
"640 647 OFFCURVE",
"693 672 CURVE",
"693 0 LINE"
);
},
{
closed = 1;
nodes = (
"403 780 OFFCURVE",
"325 853 OFFCURVE",
"325 958 CURVE SMOOTH",
"325 1062 OFFCURVE",
"396 1139 OFFCURVE",
"507 1139 CURVE SMOOTH",
"624 1139 OFFCURVE",
"693 1060 OFFCURVE",
"693 919 CURVE SMOOTH",
"693 853 LINE",
"640 802 OFFCURVE",
"586 780 OFFCURVE",
"506 780 CURVE SMOOTH"
);
}
);
width = 1028;
}
);
note = ktOne;
unicode = 0967;
},
{
glyphname = ktTwo;
lastChange = "2016-11-10 17:42:20 +0000";
layers = (
{
layerId = "CE2B0BEB-5EFE-47CF-A34E-B4149D2EF609";
paths = (
{
closed = 1;
nodes = (
"945 55 LINE",
"917 120 OFFCURVE",
"889 187 OFFCURVE",
"861 256 CURVE SMOOTH",
"832 324 OFFCURVE",
"802 390 OFFCURVE",
"770 454 CURVE",
"882 542 OFFCURVE",
"952 681 OFFCURVE",
"952 845 CURVE SMOOTH",
"952 926 OFFCURVE",
"935 1001 OFFCURVE",
"900 1068 CURVE SMOOTH",
"830 1203 OFFCURVE",
"698 1284 OFFCURVE",
"531 1284 CURVE SMOOTH",
"395 1284 OFFCURVE",
"292 1241 OFFCURVE",
"197 1145 CURVE",
"298 1031 LINE",
"370 1103 OFFCURVE",
"442 1139 OFFCURVE",
"541 1139 CURVE SMOOTH",
"692 1139 OFFCURVE",
"787 1028 OFFCURVE",
"787 855 CURVE SMOOTH",
"787 759 OFFCURVE",
"752 666 OFFCURVE",
"691 598 CURVE",
"589 761 OFFCURVE",
"479 842 OFFCURVE",
"360 842 CURVE SMOOTH",
"231 842 OFFCURVE",
"130 755 OFFCURVE",
"130 634 CURVE SMOOTH",
"130 479 OFFCURVE",
"288 357 OFFCURVE",
"485 357 CURVE SMOOTH",
"534 357 OFFCURVE",
"583 365 OFFCURVE",
"630 380 CURVE",
"709 193 LINE",
"792 -10 LINE"
);
},
{
closed = 1;
nodes = (
"367 502 OFFCURVE",
"295 549 OFFCURVE",
"295 618 CURVE SMOOTH",
"295 674 OFFCURVE",
"335 697 OFFCURVE",
"376 697 CURVE SMOOTH",
"443 697 OFFCURVE",
"503 627 OFFCURVE",
"564 515 CURVE",
"537 506 OFFCURVE",
"508 502 OFFCURVE",
"475 502 CURVE SMOOTH"
);
}
);
width = 1122;
}
);
note = ktTwo;
unicode = 0968;
},
{
glyphname = ktThree;
lastChange = "2016-11-10 17:42:20 +0000";
layers = (
{
layerId = "CE2B0BEB-5EFE-47CF-A34E-B4149D2EF609";
paths = (
{
closed = 1;
nodes = (
"907 -227 LINE",
"860 -109 OFFCURVE",
"817 -13 OFFCURVE",
"777 61 CURVE",
"877 122 OFFCURVE",
"948 218 OFFCURVE",
"948 345 CURVE SMOOTH",
"948 481 OFFCURVE",
"869 591 OFFCURVE",
"736 696 CURVE",
"841 759 OFFCURVE",
"893 846 OFFCURVE",
"893 959 CURVE SMOOTH",
"893 1147 OFFCURVE",
"750 1284 OFFCURVE",
"539 1284 CURVE SMOOTH",
"439 1284 OFFCURVE",
"335 1245 OFFCURVE",
"227 1168 CURVE",
"302 1048 LINE",
"425 1131 OFFCURVE",
"476 1148 OFFCURVE",
"551 1148 CURVE SMOOTH",
"658 1148 OFFCURVE",
"728 1083 OFFCURVE",
"728 984 CURVE SMOOTH",
"728 848 OFFCURVE",
"645 777 OFFCURVE",
"370 724 CURVE",
"414 589 LINE",
"481 601 OFFCURVE",
"545 617 OFFCURVE",
"606 637 CURVE",
"722 556 OFFCURVE",
"782 470 OFFCURVE",
"782 365 CURVE SMOOTH",
"782 293 OFFCURVE",
"754 236 OFFCURVE",
"698 193 CURVE",
"577 370 OFFCURVE",
"446 459 OFFCURVE",
"305 459 CURVE SMOOTH",
"185 459 OFFCURVE",
"100 382 OFFCURVE",
"100 266 CURVE SMOOTH",
"100 107 OFFCURVE",
"278 -10 OFFCURVE",
"509 -10 CURVE SMOOTH",
"555 -10 OFFCURVE",
"599 -5 OFFCURVE",
"642 6 CURVE",
"682 -67 OFFCURVE",
"726 -163 OFFCURVE",
"775 -282 CURVE"
);
},
{
closed = 1;
nodes = (
"360 135 OFFCURVE",
"265 178 OFFCURVE",
"265 246 CURVE SMOOTH",
"265 279 OFFCURVE",
"286 304 OFFCURVE",
"326 304 CURVE SMOOTH",
"401 304 OFFCURVE",
"479 249 OFFCURVE",
"559 139 CURVE",
"540 136 OFFCURVE",
"520 135 OFFCURVE",
"499 135 CURVE SMOOTH"
);
}
);
width = 1068;
}
);
note = ktThree;
unicode = 0969;
},
{
glyphname = ktFour;
lastChange = "2016-11-10 17:42:20 +0000";
layers = (
{
layerId = "CE2B0BEB-5EFE-47CF-A34E-B4149D2EF609";
paths = (
{
closed = 1;
nodes = (
"749 -10 OFFCURVE",
"878 127 OFFCURVE",
"878 303 CURVE SMOOTH",
"878 447 OFFCURVE",
"802 594 OFFCURVE",
"681 750 CURVE",
"765 837 OFFCURVE",
"916 974 OFFCURVE",
"1134 1162 CURVE",
"1026 1284 LINE",
"805 1081 OFFCURVE",
"657 941 OFFCURVE",
"584 866 CURVE",
"506 955 OFFCURVE",
"369 1094 OFFCURVE",
"174 1284 CURVE",
"65 1185 LINE",
"266 993 OFFCURVE",
"407 851 OFFCURVE",
"487 759 CURVE",
"344 594 OFFCURVE",
"267 451 OFFCURVE",
"267 302 CURVE SMOOTH",
"267 119 OFFCURVE",
"403 -10 OFFCURVE",
"576 -10 CURVE SMOOTH"
);
},
{
closed = 1;
nodes = (
"485 135 OFFCURVE",
"432 200 OFFCURVE",
"432 292 CURVE SMOOTH",
"432 408 OFFCURVE",
"480 515 OFFCURVE",
"583 640 CURVE",
"670 521 OFFCURVE",
"713 412 OFFCURVE",
"713 313 CURVE SMOOTH",
"713 209 OFFCURVE",
"653 135 OFFCURVE",
"566 135 CURVE SMOOTH"
);
}
);
width = 1189;
}
);
note = ktFour;
unicode = 096A;
},
{
glyphname = ktFive;
lastChange = "2016-11-10 17:42:20 +0000";
layers = (
{
layerId = "CE2B0BEB-5EFE-47CF-A34E-B4149D2EF609";
paths = (
{
closed = 1;
nodes = (
"971 0 LINE",
"971 1274 LINE",
"817 1274 LINE",
"805 1059 OFFCURVE",
"789 907 OFFCURVE",
"770 819 CURVE SMOOTH",
"731 642 OFFCURVE",
"664 558 OFFCURVE",
"544 558 CURVE SMOOTH",
"429 558 OFFCURVE",
"371 630 OFFCURVE",
"345 804 CURVE SMOOTH",
"332 891 OFFCURVE",
"325 1047 OFFCURVE",
"325 1274 CURVE",
"160 1274 LINE",
"160 1033 OFFCURVE",
"173 856 OFFCURVE",
"198 745 CURVE SMOOTH",
"249 521 OFFCURVE",
"357 413 OFFCURVE",
"554 413 CURVE SMOOTH",
"659 413 OFFCURVE",
"743 451 OFFCURVE",
"806 528 CURVE",
"806 0 LINE"
);
}
);
width = 1141;
}
);
note = ktFive;
unicode = 096B;
},
{
glyphname = ktSix;
lastChange = "2016-11-10 17:42:20 +0000";
layers = (
{
layerId = "CE2B0BEB-5EFE-47CF-A34E-B4149D2EF609";
paths = (
{
closed = 1;
nodes = (
"941 -252 LINE",
"862 -172 OFFCURVE",
"786 -93 OFFCURVE",
"739 3 CURVE",
"907 38 OFFCURVE",
"1012 133 OFFCURVE",
"1012 248 CURVE SMOOTH",
"1012 371 OFFCURVE",
"908 467 OFFCURVE",
"772 467 CURVE SMOOTH",
"632 467 OFFCURVE",
"531 362 OFFCURVE",
"531 210 CURVE SMOOTH",
"531 186 OFFCURVE",
"533 162 OFFCURVE",
"537 138 CURVE",
"397 157 OFFCURVE",
"305 246 OFFCURVE",
"305 375 CURVE SMOOTH",
"305 548 OFFCURVE",
"475 647 OFFCURVE",
"772 647 CURVE",
"752 812 LINE",
"623 812 OFFCURVE",
"508 791 OFFCURVE",
"407 749 CURVE",
"369 796 OFFCURVE",
"350 851 OFFCURVE",
"350 913 CURVE SMOOTH",
"350 1064 OFFCURVE",
"473 1139 OFFCURVE",
"718 1139 CURVE",
"707 1284 LINE",
"364 1284 OFFCURVE",
"184 1164 OFFCURVE",
"184 943 CURVE SMOOTH",
"184 852 OFFCURVE",
"221 766 OFFCURVE",
"296 687 CURVE",
"192 612 OFFCURVE",
"140 515 OFFCURVE",
"140 396 CURVE SMOOTH",
"140 167 OFFCURVE",
"320 2 OFFCURVE",
"583 -9 CURVE",
"629 -107 OFFCURVE",
"714 -218 OFFCURVE",
"837 -341 CURVE"
);
},
{
closed = 1;
nodes = (
"696 190 LINE",
"696 270 OFFCURVE",
"731 322 OFFCURVE",
"782 322 CURVE SMOOTH",
"818 322 OFFCURVE",
"847 293 OFFCURVE",
"847 258 CURVE SMOOTH",
"847 197 OFFCURVE",
"797 159 OFFCURVE",
"698 143 CURVE"
);
}
);
width = 1072;
}
);
note = ktSix;
unicode = 096C;
},
{
glyphname = ktSeven;
lastChange = "2016-11-10 17:42:20 +0000";
layers = (
{
layerId = "CE2B0BEB-5EFE-47CF-A34E-B4149D2EF609";
paths = (
{
closed = 1;
nodes = (
"783 -10 OFFCURVE",
"880 16 OFFCURVE",
"966 68 CURVE SMOOTH",
"1137 172 OFFCURVE",
"1233 365 OFFCURVE",
"1233 594 CURVE SMOOTH",
"1233 715 OFFCURVE",
"1205 830 OFFCURVE",
"1149 939 CURVE SMOOTH",
"1036 1156 OFFCURVE",
"841 1284 OFFCURVE",
"632 1284 CURVE SMOOTH",
"437 1284 OFFCURVE",
"304 1165 OFFCURVE",
"304 990 CURVE SMOOTH",
"304 826 OFFCURVE",
"461 685 OFFCURVE",
"641 685 CURVE SMOOTH",
"795 685 OFFCURVE",
"903 772 OFFCURVE",
"965 947 CURVE",
"1030 847 OFFCURVE",
"1063 733 OFFCURVE",
"1063 604 CURVE SMOOTH",
"1063 323 OFFCURVE",
"903 140 OFFCURVE",
"666 140 CURVE SMOOTH",
"447 140 OFFCURVE",
"285 268 OFFCURVE",
"169 559 CURVE",
"40 509 LINE",
"157 172 OFFCURVE",
"387 -10 OFFCURVE",
"676 -10 CURVE SMOOTH"
);
},
{
closed = 1;
nodes = (
"536 830 OFFCURVE",
"469 895 OFFCURVE",
"469 980 CURVE SMOOTH",
"469 1075 OFFCURVE",
"538 1139 OFFCURVE",
"642 1139 CURVE SMOOTH",
"712 1139 OFFCURVE",
"779 1117 OFFCURVE",
"844 1073 CURVE",
"800 902 OFFCURVE",
"730 830 OFFCURVE",
"631 830 CURVE SMOOTH"
);
}
);
width = 1363;
}
);
note = ktSeven;
unicode = 096D;
},
{
glyphname = ktEight;
lastChange = "2016-11-10 17:42:20 +0000";
layers = (
{
layerId = "CE2B0BEB-5EFE-47CF-A34E-B4149D2EF609";
paths = (
{
closed = 1;
nodes = (
"1349 71 LINE",
"1178 223 OFFCURVE",
"1085 262 OFFCURVE",
"977 262 CURVE SMOOTH",
"922 262 OFFCURVE",
"861 243 OFFCURVE",
"792 204 CURVE SMOOTH",
"723 165 OFFCURVE",
"657 145 OFFCURVE",
"595 145 CURVE SMOOTH",
"439 145 OFFCURVE",
"340 241 OFFCURVE",
"340 386 CURVE SMOOTH",
"340 464 OFFCURVE",
"367 534 OFFCURVE",
"422 596 CURVE SMOOTH",
"530 719 OFFCURVE",
"743 791 OFFCURVE",
"1023 791 CURVE SMOOTH",
"1235 791 LINE",
"1225 936 LINE",
"120 936 LINE",
"130 791 LINE",
"279 791 LINE SMOOTH",
"341 791 OFFCURVE",
"393 793 OFFCURVE",
"435 798 CURVE",
"437 793 LINE",
"276 713 OFFCURVE",
"175 580 OFFCURVE",
"175 404 CURVE SMOOTH",
"175 327 OFFCURVE",
"194 258 OFFCURVE",
"232 197 CURVE SMOOTH",
"307 73 OFFCURVE",
"448 0 OFFCURVE",
"605 0 CURVE SMOOTH",
"677 0 OFFCURVE",
"748 20 OFFCURVE",
"817 59 CURVE SMOOTH",
"893 102 OFFCURVE",
"936 117 OFFCURVE",
"987 117 CURVE SMOOTH",
"1050 117 OFFCURVE",
"1119 87 OFFCURVE",
"1194 28 CURVE SMOOTH",
"1266 -29 LINE"
);
}
);
width = 1429;
}
);
note = ktEight;
unicode = 096E;
},
{
glyphname = ktNine;
lastChange = "2016-11-10 17:42:20 +0000";
layers = (
{
layerId = "CE2B0BEB-5EFE-47CF-A34E-B4149D2EF609";
paths = (
{
closed = 1;
nodes = (
"1349 71 LINE",
"1178 223 OFFCURVE",
"1085 262 OFFCURVE",
"977 262 CURVE SMOOTH",
"922 262 OFFCURVE",
"861 243 OFFCURVE",
"792 204 CURVE SMOOTH",
"723 165 OFFCURVE",
"657 145 OFFCURVE",
"595 145 CURVE SMOOTH",
"439 145 OFFCURVE",
"340 241 OFFCURVE",
"340 386 CURVE SMOOTH",
"340 464 OFFCURVE",
"367 534 OFFCURVE",
"422 596 CURVE SMOOTH",
"530 719 OFFCURVE",
"743 791 OFFCURVE",
"1023 791 CURVE SMOOTH",
"1235 791 LINE",
"1225 936 LINE",
"1042 995 OFFCURVE",
"930 1081 OFFCURVE",
"930 1164 CURVE SMOOTH",
"930 1211 OFFCURVE",
"966 1240 OFFCURVE",
"1019 1240 CURVE SMOOTH",
"1083 1240 OFFCURVE",
"1136 1219 OFFCURVE",
"1247 1132 CURVE",
"1326 1228 LINE",
"1208 1333 OFFCURVE",
"1096 1385 OFFCURVE",
"989 1385 CURVE SMOOTH",
"861 1385 OFFCURVE",
"765 1304 OFFCURVE",
"765 1184 CURVE SMOOTH",
"765 1079 OFFCURVE",
"839 1001 OFFCURVE",
"948 936 CURVE",
"120 936 LINE",
"130 791 LINE",
"279 791 LINE SMOOTH",
"341 791 OFFCURVE",
"393 793 OFFCURVE",
"435 798 CURVE",
"437 793 LINE",
"276 713 OFFCURVE",
"175 580 OFFCURVE",
"175 404 CURVE SMOOTH",
"175 327 OFFCURVE",
"194 258 OFFCURVE",
"232 197 CURVE SMOOTH",
"307 73 OFFCURVE",
"448 0 OFFCURVE",
"605 0 CURVE SMOOTH",
"677 0 OFFCURVE",
"748 20 OFFCURVE",
"817 59 CURVE SMOOTH",
"893 102 OFFCURVE",
"936 117 OFFCURVE",
"987 117 CURVE SMOOTH",
"1050 117 OFFCURVE",
"1119 87 OFFCURVE",
"1194 28 CURVE SMOOTH",
"1266 -29 LINE"
);
}
);
width = 1429;
}
);
note = ktNine;
unicode = 096F;
},
{
glyphname = ktPTa;
lastChange = "2016-11-10 17:42:20 +0000";
layers = (
{
layerId = "CE2B0BEB-5EFE-47CF-A34E-B4149D2EF609";
paths = (
{
closed = 1;
nodes = (
"501 -123 LINE",
"442 -46 OFFCURVE",
"402 9 OFFCURVE",
"383 42 CURVE SMOOTH",
"343 108 OFFCURVE",
"325 166 OFFCURVE",
"325 238 CURVE SMOOTH",
"325 346 OFFCURVE",
"377 417 OFFCURVE",
"490 477 CURVE SMOOTH",
"547 507 OFFCURVE",
"643 543 OFFCURVE",
"778 584 CURVE",
"782 581 LINE",
"779 561 OFFCURVE",
"777 516 OFFCURVE",
"777 446 CURVE SMOOTH",
"777 0 LINE",
"942 0 LINE",
"942 1274 LINE",
"777 1274 LINE",
"777 761 LINE",
"707 706 OFFCURVE",
"622 679 OFFCURVE",
"522 679 CURVE SMOOTH",
"399 679 OFFCURVE",
"330 757 OFFCURVE",
"330 905 CURVE SMOOTH",
"330 1274 LINE",
"165 1274 LINE",
"165 925 LINE SMOOTH",
"165 754 OFFCURVE",
"231 634 OFFCURVE",
"354 574 CURVE",
"225 502 OFFCURVE",
"160 405 OFFCURVE",
"160 265 CURVE SMOOTH",
"160 129 OFFCURVE",
"219 4 OFFCURVE",
"392 -204 CURVE"
);
}
);
width = 1112;
}
);
note = ktPTa;
},
{
glyphname = ktKKa;
lastChange = "2016-11-10 17:42:20 +0000";
layers = (
{
layerId = "CE2B0BEB-5EFE-47CF-A34E-B4149D2EF609";
paths = (
{
closed = 1;
nodes = (
"892 -398 LINE",
"892 125 LINE",
"995 242 OFFCURVE",
"1070 288 OFFCURVE",
"1146 288 CURVE SMOOTH",
"1225 288 OFFCURVE",
"1264 236 OFFCURVE",
"1264 133 CURVE SMOOTH",
"1264 14 OFFCURVE",
"1230 -123 OFFCURVE",
"1163 -276 CURVE",
"1320 -327 LINE",
"1393 -167 OFFCURVE",
"1429 -20 OFFCURVE",
"1429 113 CURVE SMOOTH",
"1429 195 OFFCURVE",
"1408 264 OFFCURVE",
"1367 320 CURVE",
"1408 418 OFFCURVE",
"1429 508 OFFCURVE",
"1429 591 CURVE SMOOTH",
"1429 783 OFFCURVE",
"1311 911 OFFCURVE",
"1131 911 CURVE SMOOTH",
"1043 911 OFFCURVE",
"963 879 OFFCURVE",
"892 815 CURVE",
"887 815 LINE",
"890 842 OFFCURVE",
"892 887 OFFCURVE",
"892 951 CURVE SMOOTH",
"892 1274 LINE",
"727 1274 LINE",
"727 904 LINE",
"641 962 OFFCURVE",
"549 991 OFFCURVE",
"452 991 CURVE SMOOTH",
"249 991 OFFCURVE",
"95 859 OFFCURVE",
"95 678 CURVE SMOOTH",
"95 574 OFFCURVE",
"141 485 OFFCURVE",
"217 424 CURVE",
"137 356 OFFCURVE",
"95 273 OFFCURVE",
"95 190 CURVE SMOOTH",
"95 1 OFFCURVE",
"252 -138 OFFCURVE",
"459 -138 CURVE SMOOTH",
"554 -138 OFFCURVE",
"644 -105 OFFCURVE",
"727 -40 CURVE",
"732 -40 LINE",
"729 -51 OFFCURVE",
"727 -90 OFFCURVE",
"727 -156 CURVE SMOOTH",
"727 -398 LINE"
);
},
{
closed = 1;
nodes = (
"330 6 OFFCURVE",
"260 71 OFFCURVE",
"260 170 CURVE SMOOTH",
"260 248 OFFCURVE",
"295 308 OFFCURVE",
"366 351 CURVE",
"397 344 OFFCURVE",
"428 340 OFFCURVE",
"459 340 CURVE SMOOTH",
"554 340 OFFCURVE",
"644 373 OFFCURVE",
"727 438 CURVE",
"732 438 LINE",
"729 427 OFFCURVE",
"727 388 OFFCURVE",
"727 322 CURVE SMOOTH",
"727 159 LINE",
"632 57 OFFCURVE",
"536 6 OFFCURVE",
"439 6 CURVE SMOOTH"
);
},
{
closed = 1;
nodes = (
"336 484 OFFCURVE",
"260 555 OFFCURVE",
"260 658 CURVE SMOOTH",
"260 767 OFFCURVE",
"349 846 OFFCURVE",
"472 846 CURVE SMOOTH",
"556 846 OFFCURVE",
"641 824 OFFCURVE",
"727 779 CURVE",
"727 637 LINE",
"632 535 OFFCURVE",
"536 484 OFFCURVE",
"439 484 CURVE SMOOTH"
);
},
{
closed = 1;
nodes = (
"890 364 OFFCURVE",
"892 409 OFFCURVE",
"892 473 CURVE SMOOTH",
"892 603 LINE",
"987 712 OFFCURVE",
"1072 766 OFFCURVE",
"1146 766 CURVE SMOOTH",
"1219 766 OFFCURVE",
"1264 708 OFFCURVE",
"1264 611 CURVE SMOOTH",
"1264 550 OFFCURVE",
"1250 487 OFFCURVE",
"1222 421 CURVE",
"1189 429 OFFCURVE",
"1158 433 OFFCURVE",
"1131 433 CURVE SMOOTH",
"1043 433 OFFCURVE",
"963 401 OFFCURVE",
"892 337 CURVE",
"887 337 LINE"
);
}
);
width = 1549;
}
);
note = ktKKa;
},
{
glyphname = ktPRa;
lastChange = "2016-11-10 17:37:31 +0000";
layers = (
{
layerId = "CE2B0BEB-5EFE-47CF-A34E-B4149D2EF609";
paths = (
{
closed = 1;
nodes = (
"776 463 LINE",
"779 463 LINE",
"776 440 OFFCURVE",
"774 383 OFFCURVE",
"774 292 CURVE SMOOTH",
"774 0 LINE",
"939 0 LINE",
"939 1274 LINE",
"774 1274 LINE",
"774 661 LINE",
"706 582 OFFCURVE",
"604 529 OFFCURVE",
"519 529 CURVE SMOOTH",
"396 529 OFFCURVE",
"327 607 OFFCURVE",
"327 755 CURVE SMOOTH",
"327 1274 LINE",
"162 1274 LINE",
"162 775 LINE SMOOTH",
"162 547 OFFCURVE",
"280 411 OFFCURVE",
"483 388 CURVE",
"160 120 LINE",
"271 -10 LINE"
);
}
);
width = 1109;
}
);
note = ktPRa;
},
{
glyphname = ktGa.half;
lastChange = "2016-11-10 17:42:20 +0000";
layers = (
{
layerId = "CE2B0BEB-5EFE-47CF-A34E-B4149D2EF609";
paths = (
{
closed = 1;
nodes = (
"622 268 OFFCURVE",
"742 405 OFFCURVE",
"742 605 CURVE SMOOTH",
"742 821 OFFCURVE",
"663 1048 OFFCURVE",
"506 1287 CURVE",
"375 1212 LINE",
"524 977 OFFCURVE",
"578 805 OFFCURVE",
"578 640 CURVE SMOOTH",
"578 501 OFFCURVE",
"528 413 OFFCURVE",
"436 413 CURVE SMOOTH",
"360 413 OFFCURVE",
"278 480 OFFCURVE",
"190 614 CURVE",
"80 542 LINE",
"179 374 OFFCURVE",
"318 268 OFFCURVE",
"453 268 CURVE SMOOTH"
);
}
);
width = 893;
}
);
note = ktGa.half;
},
{
glyphname = ktGHU;
lastChange = "2016-11-10 17:42:20 +0000";
layers = (
{
layerId = "CE2B0BEB-5EFE-47CF-A34E-B4149D2EF609";
paths = (
{
closed = 1;
nodes = (
"1170 -460 OFFCURVE",
"1297 -351 OFFCURVE",
"1297 -180 CURVE SMOOTH",
"1297 -31 OFFCURVE",
"1205 56 OFFCURVE",
"1061 76 CURVE",
"1066 112 OFFCURVE",
"1068 150 OFFCURVE",
"1068 191 CURVE SMOOTH",
"1068 1274 LINE",
"903 1274 LINE",
"903 452 LINE",
"799 380 OFFCURVE",
"684 344 OFFCURVE",
"558 344 CURVE SMOOTH",
"409 344 OFFCURVE",
"305 404 OFFCURVE",
"305 504 CURVE SMOOTH",
"305 629 OFFCURVE",
"452 697 OFFCURVE",
"712 697 CURVE",
"692 862 LINE",
"592 862 OFFCURVE",
"501 849 OFFCURVE",
"420 824 CURVE",
"366 873 OFFCURVE",
"339 923 OFFCURVE",
"339 973 CURVE SMOOTH",
"339 1086 OFFCURVE",
"440 1139 OFFCURVE",
"657 1139 CURVE",
"646 1284 LINE",
"331 1284 OFFCURVE",
"173 1190 OFFCURVE",
"173 1003 CURVE SMOOTH",
"173 923 OFFCURVE",
"217 847 OFFCURVE",
"305 776 CURVE",
"195 713 OFFCURVE",
"140 630 OFFCURVE",
"140 525 CURVE SMOOTH",
"140 332 OFFCURVE",
"323 200 OFFCURVE",
"580 200 CURVE SMOOTH",
"699 200 OFFCURVE",
"807 226 OFFCURVE",
"903 277 CURVE",
"903 -20 LINE",
"1056 -20 OFFCURVE",
"1132 -68 OFFCURVE",
"1132 -163 CURVE SMOOTH",
"1132 -252 OFFCURVE",
"1067 -315 OFFCURVE",
"946 -315 CURVE SMOOTH",
"799 -315 OFFCURVE",
"655 -261 OFFCURVE",
"443 -106 CURVE",
"365 -209 LINE",
"552 -365 OFFCURVE",
"773 -460 OFFCURVE",
"962 -460 CURVE SMOOTH"
);
}
);
width = 1247;
}
);
note = ktGHU;
},
{
glyphname = ktGHUU;
lastChange = "2016-11-10 17:42:20 +0000";
layers = (
{
layerId = "CE2B0BEB-5EFE-47CF-A34E-B4149D2EF609";
paths = (
{
closed = 1;
nodes = (
"1432 -488 LINE",
"1383 -384 OFFCURVE",
"1342 -306 OFFCURVE",
"1308 -255 CURVE SMOOTH",
"1239 -153 OFFCURVE",
"1152 -64 OFFCURVE",
"1041 -20 CURVE",
"1059 37 OFFCURVE",
"1068 107 OFFCURVE",
"1068 191 CURVE SMOOTH",
"1068 1274 LINE",
"903 1274 LINE",
"903 452 LINE",
"799 380 OFFCURVE",
"684 344 OFFCURVE",
"558 344 CURVE SMOOTH",
"409 344 OFFCURVE",
"305 404 OFFCURVE",
"305 504 CURVE SMOOTH",
"305 629 OFFCURVE",
"452 697 OFFCURVE",
"712 697 CURVE",
"692 862 LINE",
"592 862 OFFCURVE",
"501 849 OFFCURVE",
"420 824 CURVE",
"366 873 OFFCURVE",
"339 923 OFFCURVE",
"339 973 CURVE SMOOTH",
"339 1086 OFFCURVE",
"440 1139 OFFCURVE",
"657 1139 CURVE",
"646 1284 LINE",
"331 1284 OFFCURVE",
"173 1190 OFFCURVE",
"173 1003 CURVE SMOOTH",
"173 923 OFFCURVE",
"217 847 OFFCURVE",
"305 776 CURVE",
"195 713 OFFCURVE",
"140 630 OFFCURVE",
"140 525 CURVE SMOOTH",
"140 332 OFFCURVE",
"323 200 OFFCURVE",
"580 200 CURVE SMOOTH",
"699 200 OFFCURVE",
"807 226 OFFCURVE",
"903 277 CURVE",
"903 9 LINE",
"885 10 LINE",
"713 10 OFFCURVE",
"599 -85 OFFCURVE",
"599 -230 CURVE SMOOTH",
"599 -381 OFFCURVE",
"734 -491 OFFCURVE",
"919 -491 CURVE",
"943 -370 LINE",
"836 -367 OFFCURVE",
"764 -322 OFFCURVE",
"764 -247 CURVE SMOOTH",
"764 -183 OFFCURVE",
"813 -135 OFFCURVE",
"901 -135 CURVE SMOOTH",
"1044 -135 OFFCURVE",
"1172 -246 OFFCURVE",
"1285 -468 CURVE SMOOTH",
"1323 -543 LINE"
);
}
);
width = 1259;
}
);
note = ktGHUU;
},
{
glyphname = ktGHII;
lastChange = "2016-11-10 17:42:20 +0000";
layers = (
{
layerId = "CE2B0BEB-5EFE-47CF-A34E-B4149D2EF609";
paths = (
{
closed = 1;
nodes = (
"1068 0 LINE",
"1068 1244 LINE SMOOTH",
"1068 1390 OFFCURVE",
"1084 1494 OFFCURVE",
"1115 1557 CURVE SMOOTH",
"1146 1620 OFFCURVE",
"1197 1651 OFFCURVE",
"1269 1651 CURVE SMOOTH",
"1337 1651 OFFCURVE",
"1385 1621 OFFCURVE",
"1412 1562 CURVE SMOOTH",
"1439 1503 OFFCURVE",
"1453 1400 OFFCURVE",
"1453 1254 CURVE SMOOTH",
"1453 0 LINE",
"1618 0 LINE",
"1618 1224 LINE SMOOTH",
"1618 1605 OFFCURVE",
"1498 1796 OFFCURVE",
"1259 1796 CURVE SMOOTH",
"1008 1796 OFFCURVE",
"903 1627 OFFCURVE",
"903 1274 CURVE SMOOTH",
"903 452 LINE",
"799 380 OFFCURVE",
"684 344 OFFCURVE",
"558 344 CURVE SMOOTH",
"409 344 OFFCURVE",
"305 404 OFFCURVE",
"305 504 CURVE SMOOTH",
"305 629 OFFCURVE",
"452 697 OFFCURVE",
"712 697 CURVE",
"692 862 LINE",
"592 862 OFFCURVE",
"501 849 OFFCURVE",
"420 824 CURVE",
"366 873 OFFCURVE",
"339 923 OFFCURVE",
"339 973 CURVE SMOOTH",
"339 1086 OFFCURVE",
"440 1139 OFFCURVE",
"657 1139 CURVE",
"646 1284 LINE",
"331 1284 OFFCURVE",
"173 1190 OFFCURVE",
"173 1003 CURVE SMOOTH",
"173 923 OFFCURVE",
"217 847 OFFCURVE",
"305 776 CURVE",
"195 713 OFFCURVE",
"140 630 OFFCURVE",
"140 525 CURVE SMOOTH",
"140 332 OFFCURVE",
"323 200 OFFCURVE",
"580 200 CURVE SMOOTH",
"699 200 OFFCURVE",
"807 226 OFFCURVE",
"903 277 CURVE",
"903 0 LINE"
);
}
);
width = 1788;
}
);
note = ktGHII;
},
{
glyphname = ktGHU.alt1;
lastChange = "2016-11-10 17:42:20 +0000";
layers = (
{
layerId = "CE2B0BEB-5EFE-47CF-A34E-B4149D2EF609";
paths = (
{
closed = 1;
nodes = (
"964 -420 OFFCURVE",
"1114 -253 OFFCURVE",
"1114 80 CURVE SMOOTH",
"1114 1274 LINE",
"949 1274 LINE",
"949 452 LINE",
"845 380 OFFCURVE",
"730 344 OFFCURVE",
"604 344 CURVE SMOOTH",
"455 344 OFFCURVE",
"351 404 OFFCURVE",
"351 504 CURVE SMOOTH",
"351 629 OFFCURVE",
"498 697 OFFCURVE",
"758 697 CURVE",
"738 862 LINE",
"638 862 OFFCURVE",
"547 849 OFFCURVE",
"466 824 CURVE",
"412 873 OFFCURVE",
"385 923 OFFCURVE",
"385 973 CURVE SMOOTH",
"385 1086 OFFCURVE",
"486 1139 OFFCURVE",
"703 1139 CURVE",
"692 1284 LINE",
"377 1284 OFFCURVE",
"219 1190 OFFCURVE",
"219 1003 CURVE SMOOTH",
"219 923 OFFCURVE",
"263 847 OFFCURVE",
"351 776 CURVE",
"241 713 OFFCURVE",
"186 630 OFFCURVE",
"186 525 CURVE SMOOTH",
"186 332 OFFCURVE",
"369 200 OFFCURVE",
"626 200 CURVE SMOOTH",
"745 200 OFFCURVE",
"853 226 OFFCURVE",
"949 277 CURVE",
"949 100 LINE SMOOTH",
"949 -152 OFFCURVE",
"858 -275 OFFCURVE",
"654 -275 CURVE SMOOTH",
"518 -275 OFFCURVE",
"386 -218 OFFCURVE",
"226 -91 CURVE",
"140 -194 LINE",
"337 -353 OFFCURVE",
"500 -420 OFFCURVE",
"664 -420 CURVE SMOOTH"
);
}
);
width = 1284;
}
);
note = ktGHU.alt1;
},
{
glyphname = ktCUU;
lastChange = "2016-11-10 17:42:20 +0000";
layers = (
{
layerId = "CE2B0BEB-5EFE-47CF-A34E-B4149D2EF609";
paths = (
{
closed = 1;
nodes = (
"1343 -488 LINE",
"1294 -384 OFFCURVE",
"1253 -306 OFFCURVE",
"1219 -255 CURVE SMOOTH",
"1150 -153 OFFCURVE",
"1063 -64 OFFCURVE",
"952 -20 CURVE",
"970 37 OFFCURVE",
"979 107 OFFCURVE",
"979 191 CURVE SMOOTH",
"979 1274 LINE",
"814 1274 LINE",
"814 495 LINE",
"742 440 OFFCURVE",
"654 413 OFFCURVE",
"549 413 CURVE SMOOTH",
"442 413 OFFCURVE",
"350 453 OFFCURVE",
"274 533 CURVE",
"349 596 OFFCURVE",
"403 648 OFFCURVE",
"438 689 CURVE SMOOTH",
"506 769 OFFCURVE",
"547 850 OFFCURVE",
"547 942 CURVE SMOOTH",
"547 1066 OFFCURVE",
"488 1167 OFFCURVE",
"323 1284 CURVE",
"236 1186 LINE",
"325 1118 OFFCURVE",
"382 1052 OFFCURVE",
"382 959 CURVE SMOOTH",
"382 872 OFFCURVE",
"313 773 OFFCURVE",
"174 663 CURVE SMOOTH",
"60 571 LINE",
"213 369 OFFCURVE",
"383 268 OFFCURVE",
"570 268 CURVE SMOOTH",
"663 268 OFFCURVE",
"745 285 OFFCURVE",
"814 318 CURVE",
"814 9 LINE",
"796 10 LINE",
"624 10 OFFCURVE",
"510 -85 OFFCURVE",
"510 -230 CURVE SMOOTH",
"510 -381 OFFCURVE",
"645 -491 OFFCURVE",
"830 -491 CURVE",
"854 -370 LINE",
"747 -367 OFFCURVE",
"675 -322 OFFCURVE",
"675 -247 CURVE SMOOTH",
"675 -183 OFFCURVE",
"724 -135 OFFCURVE",
"812 -135 CURVE SMOOTH",
"955 -135 OFFCURVE",
"1083 -246 OFFCURVE",
"1196 -468 CURVE SMOOTH",
"1234 -543 LINE"
);
}
);
width = 1170;
}
);
note = ktCUU;
},
{
glyphname = ktCII;
lastChange = "2016-11-10 17:42:20 +0000";
layers = (
{
layerId = "CE2B0BEB-5EFE-47CF-A34E-B4149D2EF609";
paths = (
{
closed = 1;
nodes = (
"979 0 LINE",
"979 1244 LINE SMOOTH",
"979 1390 OFFCURVE",
"995 1494 OFFCURVE",
"1026 1557 CURVE SMOOTH",
"1057 1620 OFFCURVE",
"1108 1651 OFFCURVE",
"1180 1651 CURVE SMOOTH",
"1248 1651 OFFCURVE",
"1296 1621 OFFCURVE",
"1323 1562 CURVE SMOOTH",
"1350 1503 OFFCURVE",
"1364 1400 OFFCURVE",
"1364 1254 CURVE SMOOTH",
"1364 0 LINE",
"1529 0 LINE",
"1529 1224 LINE SMOOTH",
"1529 1605 OFFCURVE",
"1409 1796 OFFCURVE",
"1170 1796 CURVE SMOOTH",
"919 1796 OFFCURVE",
"814 1627 OFFCURVE",
"814 1274 CURVE SMOOTH",
"814 495 LINE",
"742 440 OFFCURVE",
"654 413 OFFCURVE",
"549 413 CURVE SMOOTH",
"442 413 OFFCURVE",
"350 453 OFFCURVE",
"274 533 CURVE",
"349 596 OFFCURVE",
"403 648 OFFCURVE",
"438 689 CURVE SMOOTH",
"506 769 OFFCURVE",
"547 850 OFFCURVE",
"547 942 CURVE SMOOTH",
"547 1066 OFFCURVE",
"488 1167 OFFCURVE",
"323 1284 CURVE",
"236 1186 LINE",
"325 1118 OFFCURVE",
"382 1052 OFFCURVE",
"382 959 CURVE SMOOTH",
"382 870 OFFCURVE",
"315 775 OFFCURVE",
"174 663 CURVE SMOOTH",
"60 571 LINE",
"219 362 OFFCURVE",
"391 268 OFFCURVE",
"570 268 CURVE SMOOTH",
"663 268 OFFCURVE",
"745 285 OFFCURVE",
"814 318 CURVE",
"814 0 LINE"
);
}
);
width = 1699;
}
);
note = ktCII;
},
{
glyphname = ktJU;
lastChange = "2016-11-10 17:42:20 +0000";
layers = (
{
layerId = "CE2B0BEB-5EFE-47CF-A34E-B4149D2EF609";
paths = (
{
closed = 1;
nodes = (
"1359 -460 OFFCURVE",
"1486 -351 OFFCURVE",
"1486 -180 CURVE SMOOTH",
"1486 -40 OFFCURVE",
"1406 54 OFFCURVE",
"1247 77 CURVE",
"1254 119 OFFCURVE",
"1257 164 OFFCURVE",
"1257 211 CURVE SMOOTH",
"1257 872 LINE SMOOTH",
"1257 1111 OFFCURVE",
"1117 1284 OFFCURVE",
"917 1284 CURVE SMOOTH",
"711 1284 OFFCURVE",
"608 1160 OFFCURVE",
"608 913 CURVE SMOOTH",
"608 468 LINE SMOOTH",
"608 315 OFFCURVE",
"548 240 OFFCURVE",
"443 240 CURVE SMOOTH",
"345 240 OFFCURVE",
"296 316 OFFCURVE",
"296 467 CURVE SMOOTH",
"296 1274 LINE",
"131 1274 LINE",
"130 477 LINE SMOOTH",
"130 238 OFFCURVE",
"254 95 OFFCURVE",
"453 95 CURVE SMOOTH",
"650 95 OFFCURVE",
"773 235 OFFCURVE",
"773 458 CURVE SMOOTH",
"773 903 LINE SMOOTH",
"773 1055 OFFCURVE",
"828 1139 OFFCURVE",
"927 1139 CURVE SMOOTH",
"1035 1139 OFFCURVE",
"1092 1062 OFFCURVE",
"1092 882 CURVE SMOOTH",
"1092 -20 LINE",
"1245 -20 OFFCURVE",
"1321 -68 OFFCURVE",
"1321 -163 CURVE SMOOTH",
"1321 -252 OFFCURVE",
"1256 -315 OFFCURVE",
"1135 -315 CURVE SMOOTH",
"988 -315 OFFCURVE",
"844 -261 OFFCURVE",
"632 -106 CURVE",
"554 -209 LINE",
"741 -365 OFFCURVE",
"962 -460 OFFCURVE",
"1151 -460 CURVE SMOOTH"
);
}
);
width = 1436;
}
);
note = ktJU;
},
{
glyphname = ktJUU;
lastChange = "2016-11-10 17:42:20 +0000";
layers = (
{
layerId = "CE2B0BEB-5EFE-47CF-A34E-B4149D2EF609";
paths = (
{
closed = 1;
nodes = (
"1621 -488 LINE",
"1572 -384 OFFCURVE",
"1531 -306 OFFCURVE",
"1497 -255 CURVE SMOOTH",
"1428 -153 OFFCURVE",
"1341 -64 OFFCURVE",
"1230 -20 CURVE",
"1248 37 OFFCURVE",
"1257 107 OFFCURVE",
"1257 191 CURVE SMOOTH",
"1257 872 LINE SMOOTH",
"1257 1111 OFFCURVE",
"1117 1284 OFFCURVE",
"917 1284 CURVE SMOOTH",
"711 1284 OFFCURVE",
"608 1160 OFFCURVE",
"608 913 CURVE SMOOTH",
"608 468 LINE SMOOTH",
"608 315 OFFCURVE",
"548 240 OFFCURVE",
"443 240 CURVE SMOOTH",
"345 240 OFFCURVE",
"296 316 OFFCURVE",
"296 467 CURVE SMOOTH",
"296 1274 LINE",
"131 1274 LINE",
"130 477 LINE SMOOTH",
"130 238 OFFCURVE",
"254 95 OFFCURVE",
"453 95 CURVE SMOOTH",
"650 95 OFFCURVE",
"773 235 OFFCURVE",
"773 458 CURVE SMOOTH",
"773 903 LINE SMOOTH",
"773 1055 OFFCURVE",
"828 1139 OFFCURVE",
"927 1139 CURVE SMOOTH",
"1035 1139 OFFCURVE",
"1092 1062 OFFCURVE",
"1092 882 CURVE SMOOTH",
"1092 9 LINE",
"1074 10 LINE",
"902 10 OFFCURVE",
"788 -85 OFFCURVE",
"788 -230 CURVE SMOOTH",
"788 -381 OFFCURVE",
"923 -491 OFFCURVE",
"1108 -491 CURVE",
"1132 -370 LINE",
"1025 -367 OFFCURVE",
"953 -322 OFFCURVE",
"953 -247 CURVE SMOOTH",
"953 -183 OFFCURVE",
"1002 -135 OFFCURVE",
"1090 -135 CURVE SMOOTH",
"1233 -135 OFFCURVE",
"1361 -246 OFFCURVE",
"1474 -468 CURVE SMOOTH",
"1512 -543 LINE"
);
}
);
width = 1448;
}
);
note = ktJUU;
},
{
glyphname = ktJU.alt1;
lastChange = "2016-11-10 17:42:20 +0000";
layers = (
{
layerId = "CE2B0BEB-5EFE-47CF-A34E-B4149D2EF609";
paths = (
{
closed = 1;
nodes = (
"1120 -476 OFFCURVE",
"1312 -267 OFFCURVE",
"1312 81 CURVE SMOOTH",
"1312 872 LINE SMOOTH",
"1312 1111 OFFCURVE",
"1172 1284 OFFCURVE",
"972 1284 CURVE SMOOTH",
"766 1284 OFFCURVE",
"663 1160 OFFCURVE",
"663 913 CURVE SMOOTH",
"663 468 LINE SMOOTH",
"663 315 OFFCURVE",
"603 240 OFFCURVE",
"498 240 CURVE SMOOTH",
"400 240 OFFCURVE",
"351 316 OFFCURVE",
"351 467 CURVE SMOOTH",
"351 1274 LINE",
"186 1274 LINE",
"185 477 LINE SMOOTH",
"185 238 OFFCURVE",
"309 95 OFFCURVE",
"508 95 CURVE SMOOTH",
"705 95 OFFCURVE",
"828 235 OFFCURVE",
"828 458 CURVE SMOOTH",
"828 903 LINE SMOOTH",
"828 1055 OFFCURVE",
"883 1139 OFFCURVE",
"982 1139 CURVE SMOOTH",
"1090 1139 OFFCURVE",
"1147 1062 OFFCURVE",
"1147 882 CURVE SMOOTH",
"1147 98 LINE SMOOTH",
"1147 -190 OFFCURVE",
"1030 -331 OFFCURVE",
"781 -331 CURVE SMOOTH",
"612 -331 OFFCURVE",
"422 -256 OFFCURVE",
"213 -105 CURVE",
"130 -216 LINE",
"378 -389 OFFCURVE",
"602 -476 OFFCURVE",
"801 -476 CURVE SMOOTH"
);
}
);
width = 1482;
}
);
note = ktJU.alt1;
},
{
glyphname = ktJHU;
lastChange = "2016-11-10 17:42:20 +0000";
layers = (
{
layerId = "CE2B0BEB-5EFE-47CF-A34E-B4149D2EF609";
paths = (
{
closed = 1;
nodes = (
"1113 -700 OFFCURVE",
"1250 -594 OFFCURVE",
"1250 -445 CURVE SMOOTH",
"1250 -254 OFFCURVE",
"1128 -170 OFFCURVE",
"865 -170 CURVE SMOOTH",
"513 -170 OFFCURVE",
"295 -39 OFFCURVE",
"295 188 CURVE SMOOTH",
"295 317 OFFCURVE",
"355 427 OFFCURVE",
"471 498 CURVE",
"441 461 OFFCURVE",
"426 417 OFFCURVE",
"426 364 CURVE SMOOTH",
"426 133 OFFCURVE",
"591 -10 OFFCURVE",
"846 -10 CURVE SMOOTH",
"967 -10 OFFCURVE",
"1080 22 OFFCURVE",
"1185 87 CURVE",
"1135 234 LINE",
"1037 167 OFFCURVE",
"933 134 OFFCURVE",
"824 134 CURVE SMOOTH",
"672 134 OFFCURVE",
"581 211 OFFCURVE",
"581 354 CURVE SMOOTH",
"581 523 OFFCURVE",
"709 597 OFFCURVE",
"1038 597 CURVE",
"1018 762 LINE",
"911 762 OFFCURVE",
"802 750 OFFCURVE",
"692 726 CURVE",
"641 777 OFFCURVE",
"615 840 OFFCURVE",
"615 913 CURVE SMOOTH",
"615 1064 OFFCURVE",
"738 1139 OFFCURVE",
"983 1139 CURVE",
"972 1284 LINE",
"629 1284 OFFCURVE",
"449 1164 OFFCURVE",
"449 943 CURVE SMOOTH",
"449 854 OFFCURVE",
"486 769 OFFCURVE",
"560 688 CURVE",
"288 593 OFFCURVE",
"130 416 OFFCURVE",
"130 208 CURVE SMOOTH",
"130 103 OFFCURVE",
"161 11 OFFCURVE",
"224 -67 CURVE SMOOTH",
"348 -223 OFFCURVE",
"598 -315 OFFCURVE",
"905 -315 CURVE SMOOTH",
"1036 -315 OFFCURVE",
"1085 -351 OFFCURVE",
"1085 -428 CURVE SMOOTH",
"1085 -511 OFFCURVE",
"1019 -555 OFFCURVE",
"899 -555 CURVE SMOOTH",
"751 -555 OFFCURVE",
"592 -496 OFFCURVE",
"422 -379 CURVE",
"347 -477 LINE",
"514 -616 OFFCURVE",
"726 -700 OFFCURVE",
"925 -700 CURVE SMOOTH"
);
}
);
width = 1290;
}
);
note = ktJHU;
},
{
glyphname = ktJHUU;
lastChange = "2016-11-10 17:42:20 +0000";
layers = (
{
layerId = "CE2B0BEB-5EFE-47CF-A34E-B4149D2EF609";
paths = (
{
closed = 1;
nodes = (
"1213 -628 LINE",
"1202 -604 OFFCURVE",
"1188 -575 OFFCURVE",
"1172 -541 CURVE SMOOTH",
"1156 -507 OFFCURVE",
"1137 -472 OFFCURVE",
"1114 -435 CURVE SMOOTH",
"1069 -362 OFFCURVE",
"1010 -284 OFFCURVE",
"937 -227 CURVE SMOOTH",
"864 -170 OFFCURVE",
"774 -130 OFFCURVE",
"666 -130 CURVE SMOOTH",
"494 -130 OFFCURVE",
"380 -225 OFFCURVE",
"380 -370 CURVE SMOOTH",
"380 -379 LINE",
"381 -389 LINE",
"253 -294 OFFCURVE",
"175 -137 OFFCURVE",
"175 38 CURVE SMOOTH",
"175 197 OFFCURVE",
"236 348 OFFCURVE",
"344 448 CURVE",
"339 432 OFFCURVE",
"336 407 OFFCURVE",
"336 374 CURVE SMOOTH",
"336 143 OFFCURVE",
"508 -10 OFFCURVE",
"756 -10 CURVE SMOOTH",
"877 -10 OFFCURVE",
"990 22 OFFCURVE",
"1095 87 CURVE",
"1045 234 LINE",
"945 167 OFFCURVE",
"841 134 OFFCURVE",
"734 134 CURVE SMOOTH",
"589 134 OFFCURVE",
"491 219 OFFCURVE",
"491 354 CURVE SMOOTH",
"491 523 OFFCURVE",
"619 597 OFFCURVE",
"948 597 CURVE",
"928 762 LINE",
"817 762 OFFCURVE",
"710 748 OFFCURVE",
"607 721 CURVE",
"552 774 OFFCURVE",
"525 838 OFFCURVE",
"525 913 CURVE SMOOTH",
"525 1064 OFFCURVE",
"648 1139 OFFCURVE",
"893 1139 CURVE",
"882 1284 LINE",
"539 1284 OFFCURVE",
"359 1164 OFFCURVE",
"359 943 CURVE SMOOTH",
"359 847 OFFCURVE",
"399 759 OFFCURVE",
"480 678 CURVE",
"187 559 OFFCURVE",
"10 325 OFFCURVE",
"10 48 CURVE SMOOTH",
"10 -69 OFFCURVE",
"41 -180 OFFCURVE",
"103 -284 CURVE SMOOTH",
"227 -493 OFFCURVE",
"460 -631 OFFCURVE",
"700 -631 CURVE",
"724 -510 LINE",
"617 -507 OFFCURVE",
"545 -462 OFFCURVE",
"545 -387 CURVE SMOOTH",
"545 -323 OFFCURVE",
"594 -275 OFFCURVE",
"682 -275 CURVE SMOOTH",
"825 -275 OFFCURVE",
"953 -386 OFFCURVE",
"1066 -608 CURVE SMOOTH",
"1104 -683 LINE"
);
}
);
width = 1134;
}
);
note = ktJHUU;
},
{
glyphname = ktJHII;
lastChange = "2016-11-10 17:42:20 +0000";
layers = (
{
layerId = "CE2B0BEB-5EFE-47CF-A34E-B4149D2EF609";
paths = (
{
closed = 1;
nodes = (
"806 -405 OFFCURVE",
"950 -376 OFFCURVE",
"1114 -300 CURVE",
"1065 -161 LINE",
"930 -228 OFFCURVE",
"783 -260 OFFCURVE",
"655 -260 CURVE SMOOTH",
"383 -260 OFFCURVE",
"205 -100 OFFCURVE",
"205 128 CURVE SMOOTH",
"205 259 OFFCURVE",
"252 358 OFFCURVE",
"345 423 CURVE",
"345 160 OFFCURVE",
"504 -10 OFFCURVE",
"756 -10 CURVE SMOOTH",
"877 -10 OFFCURVE",
"990 22 OFFCURVE",
"1095 87 CURVE",
"1045 234 LINE",
"947 167 OFFCURVE",
"843 134 OFFCURVE",
"734 134 CURVE SMOOTH",
"589 134 OFFCURVE",
"491 221 OFFCURVE",
"491 354 CURVE SMOOTH",
"491 523 OFFCURVE",
"619 597 OFFCURVE",
"948 597 CURVE",
"928 762 LINE",
"815 762 OFFCURVE",
"708 748 OFFCURVE",
"607 721 CURVE",
"552 774 OFFCURVE",
"525 838 OFFCURVE",
"525 913 CURVE SMOOTH",
"525 1069 OFFCURVE",
"653 1139 OFFCURVE",
"893 1139 CURVE",
"882 1200 OFFCURVE",
"877 1269 OFFCURVE",
"877 1344 CURVE SMOOTH",
"877 1540 OFFCURVE",
"961 1651 OFFCURVE",
"1118 1651 CURVE SMOOTH",
"1282 1651 OFFCURVE",
"1352 1533 OFFCURVE",
"1352 1254 CURVE SMOOTH",
"1352 0 LINE",
"1517 0 LINE",
"1517 1224 LINE SMOOTH",
"1517 1600 OFFCURVE",
"1372 1796 OFFCURVE",
"1108 1796 CURVE SMOOTH",
"880 1796 OFFCURVE",
"730 1626 OFFCURVE",
"730 1367 CURVE SMOOTH",
"730 1337 OFFCURVE",
"734 1307 OFFCURVE",
"741 1276 CURVE",
"489 1245 OFFCURVE",
"359 1131 OFFCURVE",
"359 943 CURVE SMOOTH",
"359 847 OFFCURVE",
"399 759 OFFCURVE",
"480 678 CURVE",
"209 569 OFFCURVE",
"40 362 OFFCURVE",
"40 138 CURVE SMOOTH",
"40 38 OFFCURVE",
"68 -54 OFFCURVE",
"123 -137 CURVE SMOOTH",
"233 -305 OFFCURVE",
"436 -405 OFFCURVE",
"665 -405 CURVE SMOOTH"
);
}
);
width = 1687;
}
);
note = ktJHII;
},
{
glyphname = ktTTII;
lastChange = "2016-11-10 17:42:20 +0000";
layers = (
{
layerId = "CE2B0BEB-5EFE-47CF-A34E-B4149D2EF609";
paths = (
{
closed = 1;
nodes = (
"748 -10 OFFCURVE",
"926 62 OFFCURVE",
"1091 206 CURVE",
"986 331 LINE",
"818 187 OFFCURVE",
"683 135 OFFCURVE",
"543 135 CURVE SMOOTH",
"380 135 OFFCURVE",
"275 212 OFFCURVE",
"275 339 CURVE SMOOTH",
"275 442 OFFCURVE",
"341 532 OFFCURVE",
"512 668 CURVE SMOOTH",
"673 796 OFFCURVE",
"749 907 OFFCURVE",
"749 1032 CURVE SMOOTH",
"749 1214 LINE SMOOTH",
"749 1567 OFFCURVE",
"833 1711 OFFCURVE",
"1038 1711 CURVE SMOOTH",
"1234 1711 OFFCURVE",
"1321 1571 OFFCURVE",
"1321 1234 CURVE SMOOTH",
"1321 0 LINE",
"1486 0 LINE",
"1486 1214 LINE SMOOTH",
"1486 1642 OFFCURVE",
"1332 1856 OFFCURVE",
"1023 1856 CURVE SMOOTH",
"732 1856 OFFCURVE",
"584 1649 OFFCURVE",
"584 1244 CURVE SMOOTH",
"584 1062 LINE SMOOTH",
"584 961 OFFCURVE",
"522 876 OFFCURVE",
"347 736 CURVE SMOOTH",
"183 604 OFFCURVE",
"110 492 OFFCURVE",
"110 364 CURVE SMOOTH",
"110 297 OFFCURVE",
"130 234 OFFCURVE",
"171 176 CURVE SMOOTH",
"251 60 OFFCURVE",
"398 -10 OFFCURVE",
"558 -10 CURVE SMOOTH"
);
}
);
width = 1656;
}
);
note = ktTTII;
},
{
glyphname = ktTTHII;
lastChange = "2016-11-10 17:42:20 +0000";
layers = (
{
layerId = "CE2B0BEB-5EFE-47CF-A34E-B4149D2EF609";
paths = (
{
closed = 1;
nodes = (
"648 -10 OFFCURVE",
"722 4 OFFCURVE",
"787 32 CURVE SMOOTH",
"918 88 OFFCURVE",
"994 196 OFFCURVE",
"994 336 CURVE SMOOTH",
"994 370 OFFCURVE",
"989 401 OFFCURVE",
"979 428 CURVE SMOOTH",
"959 483 OFFCURVE",
"919 536 OFFCURVE",
"852 587 CURVE SMOOTH",
"818 612 OFFCURVE",
"734 661 OFFCURVE",
"601 732 CURVE SMOOTH",
"478 799 OFFCURVE",
"419 865 OFFCURVE",
"419 942 CURVE SMOOTH",
"419 1075 OFFCURVE",
"526 1139 OFFCURVE",
"754 1139 CURVE",
"743 1200 OFFCURVE",
"738 1269 OFFCURVE",
"738 1344 CURVE SMOOTH",
"738 1544 OFFCURVE",
"832 1651 OFFCURVE",
"995 1651 CURVE SMOOTH",
"1167 1651 OFFCURVE",
"1253 1519 OFFCURVE",
"1253 1254 CURVE SMOOTH",
"1253 0 LINE",
"1418 0 LINE",
"1418 1224 LINE SMOOTH",
"1418 1583 OFFCURVE",
"1261 1796 OFFCURVE",
"985 1796 CURVE SMOOTH",
"742 1796 OFFCURVE",
"591 1626 OFFCURVE",
"591 1367 CURVE SMOOTH",
"591 1336 OFFCURVE",
"595 1305 OFFCURVE",
"602 1274 CURVE",
"386 1242 OFFCURVE",
"254 1126 OFFCURVE",
"254 957 CURVE SMOOTH",
"254 924 OFFCURVE",
"259 894 OFFCURVE",
"268 867 CURVE SMOOTH",
"286 813 OFFCURVE",
"326 758 OFFCURVE",
"391 710 CURVE SMOOTH",
"424 685 OFFCURVE",
"509 637 OFFCURVE",
"647 565 CURVE SMOOTH",
"768 501 OFFCURVE",
"829 431 OFFCURVE",
"829 346 CURVE SMOOTH",
"829 218 OFFCURVE",
"725 135 OFFCURVE",
"557 135 CURVE SMOOTH",
"401 135 OFFCURVE",
"265 212 OFFCURVE",
"265 317 CURVE SMOOTH",
"265 364 OFFCURVE",
"294 398 OFFCURVE",
"351 398 CURVE SMOOTH",
"400 398 OFFCURVE",
"444 366 OFFCURVE",
"485 303 CURVE",
"600 374 LINE",
"529 494 OFFCURVE",
"442 543 OFFCURVE",
"331 543 CURVE SMOOTH",
"199 543 OFFCURVE",
"100 457 OFFCURVE",
"100 337 CURVE SMOOTH",
"100 274 OFFCURVE",
"121 215 OFFCURVE",
"163 162 CURVE SMOOTH",
"247 54 OFFCURVE",
"399 -10 OFFCURVE",
"567 -10 CURVE SMOOTH"
);
}
);
width = 1588;
}
);
note = ktTTHII;
},
{
glyphname = ktDDII;
lastChange = "2016-11-10 17:42:20 +0000";
layers = (
{
layerId = "CE2B0BEB-5EFE-47CF-A34E-B4149D2EF609";
paths = (
{
closed = 1;
nodes = (
"954 -10 OFFCURVE",
"1116 150 OFFCURVE",
"1116 378 CURVE SMOOTH",
"1116 593 OFFCURVE",
"985 758 OFFCURVE",
"806 758 CURVE SMOOTH",
"772 758 OFFCURVE",
"713 750 OFFCURVE",
"630 734 CURVE SMOOTH",
"547 718 OFFCURVE",
"481 710 OFFCURVE",
"433 710 CURVE",
"417 747 OFFCURVE",
"409 791 OFFCURVE",
"409 842 CURVE SMOOTH",
"409 1038 OFFCURVE",
"550 1139 OFFCURVE",
"809 1139 CURVE",
"798 1200 OFFCURVE",
"793 1269 OFFCURVE",
"793 1344 CURVE SMOOTH",
"793 1539 OFFCURVE",
"896 1651 OFFCURVE",
"1075 1651 CURVE SMOOTH",
"1256 1651 OFFCURVE",
"1358 1522 OFFCURVE",
"1358 1254 CURVE SMOOTH",
"1358 0 LINE",
"1523 0 LINE",
"1523 1224 LINE SMOOTH",
"1523 1583 OFFCURVE",
"1354 1796 OFFCURVE",
"1065 1796 CURVE SMOOTH",
"809 1796 OFFCURVE",
"646 1627 OFFCURVE",
"646 1367 CURVE SMOOTH",
"646 1334 OFFCURVE",
"650 1303 OFFCURVE",
"658 1273 CURVE",
"394 1232 OFFCURVE",
"244 1079 OFFCURVE",
"244 852 CURVE SMOOTH",
"244 683 OFFCURVE",
"364 565 OFFCURVE",
"543 565 CURVE SMOOTH",
"572 565 OFFCURVE",
"623 571 OFFCURVE",
"697 584 CURVE SMOOTH",
"771 597 OFFCURVE",
"824 603 OFFCURVE",
"857 603 CURVE",
"920 559 OFFCURVE",
"951 491 OFFCURVE",
"951 398 CURVE SMOOTH",
"951 234 OFFCURVE",
"849 135 OFFCURVE",
"685 135 CURVE SMOOTH",
"526 135 OFFCURVE",
"402 225 OFFCURVE",
"218 502 CURVE",
"100 427 LINE",
"295 108 OFFCURVE",
"481 -10 OFFCURVE",
"706 -10 CURVE SMOOTH"
);
}
);
width = 1693;
}
);
note = ktDDII;
},
{
glyphname = ktDDHII;
lastChange = "2016-11-10 17:42:20 +0000";
layers = (
{
layerId = "CE2B0BEB-5EFE-47CF-A34E-B4149D2EF609";
paths = (
{
closed = 1;
nodes = (
"700 -10 OFFCURVE",
"781 4 OFFCURVE",
"854 32 CURVE SMOOTH",
"1001 88 OFFCURVE",
"1091 193 OFFCURVE",
"1091 321 CURVE SMOOTH",
"1091 364 OFFCURVE",
"1079 406 OFFCURVE",
"1056 445 CURVE SMOOTH",
"1008 524 OFFCURVE",
"922 572 OFFCURVE",
"819 572 CURVE SMOOTH",
"670 572 OFFCURVE",
"557 476 OFFCURVE",
"557 347 CURVE SMOOTH",
"557 273 OFFCURVE",
"596 204 OFFCURVE",
"674 140 CURVE",
"593 135 LINE",
"397 135 OFFCURVE",
"265 225 OFFCURVE",
"265 369 CURVE SMOOTH",
"265 473 OFFCURVE",
"327 555 OFFCURVE",
"502 688 CURVE SMOOTH",
"662 809 OFFCURVE",
"739 925 OFFCURVE",
"739 1062 CURVE SMOOTH",
"739 1214 LINE SMOOTH",
"739 1567 OFFCURVE",
"823 1711 OFFCURVE",
"1028 1711 CURVE SMOOTH",
"1224 1711 OFFCURVE",
"1311 1571 OFFCURVE",
"1311 1234 CURVE SMOOTH",
"1311 0 LINE",
"1476 0 LINE",
"1476 1214 LINE SMOOTH",
"1476 1642 OFFCURVE",
"1322 1856 OFFCURVE",
"1013 1856 CURVE SMOOTH",
"722 1856 OFFCURVE",
"574 1649 OFFCURVE",
"574 1244 CURVE SMOOTH",
"574 1102 LINE SMOOTH",
"574 979 OFFCURVE",
"501 878 OFFCURVE",
"337 751 CURVE SMOOTH",
"172 623 OFFCURVE",
"100 518 OFFCURVE",
"100 389 CURVE SMOOTH",
"100 315 OFFCURVE",
"123 248 OFFCURVE",
"168 187 CURVE SMOOTH",
"259 65 OFFCURVE",
"428 -10 OFFCURVE",
"613 -10 CURVE SMOOTH"
);
},
{
closed = 1;
nodes = (
"744 217 OFFCURVE",
"722 267 OFFCURVE",
"722 318 CURVE SMOOTH",
"722 379 OFFCURVE",
"768 427 OFFCURVE",
"829 427 CURVE SMOOTH",
"889 427 OFFCURVE",
"926 383 OFFCURVE",
"926 331 CURVE SMOOTH",
"926 256 OFFCURVE",
"871 201 OFFCURVE",
"787 169 CURVE"
);
}
);
width = 1646;
}
);
note = ktDDHII;
},
{
glyphname = ktTII;
lastChange = "2016-11-10 17:42:20 +0000";
layers = (
{
layerId = "CE2B0BEB-5EFE-47CF-A34E-B4149D2EF609";
paths = (
{
closed = 1;
nodes = (
"982 0 LINE",
"982 1244 LINE SMOOTH",
"982 1390 OFFCURVE",
"998 1494 OFFCURVE",
"1029 1557 CURVE SMOOTH",
"1060 1620 OFFCURVE",
"1111 1651 OFFCURVE",
"1183 1651 CURVE SMOOTH",
"1251 1651 OFFCURVE",
"1299 1621 OFFCURVE",
"1326 1562 CURVE SMOOTH",
"1353 1503 OFFCURVE",
"1367 1400 OFFCURVE",
"1367 1254 CURVE SMOOTH",
"1367 0 LINE",
"1532 0 LINE",
"1532 1224 LINE SMOOTH",
"1532 1605 OFFCURVE",
"1412 1796 OFFCURVE",
"1173 1796 CURVE SMOOTH",
"942 1796 OFFCURVE",
"838 1641 OFFCURVE",
"835 1265 CURVE",
"612 1190 OFFCURVE",
"458 1129 OFFCURVE",
"372 1081 CURVE SMOOTH",
"200 985 OFFCURVE",
"120 875 OFFCURVE",
"120 718 CURVE SMOOTH",
"120 583 OFFCURVE",
"194 410 OFFCURVE",
"342 199 CURVE",
"457 273 LINE",
"398 367 OFFCURVE",
"359 433 OFFCURVE",
"341 470 CURVE SMOOTH",
"305 545 OFFCURVE",
"285 614 OFFCURVE",
"285 691 CURVE SMOOTH",
"285 806 OFFCURVE",
"344 881 OFFCURVE",
"440 939 CURVE SMOOTH",
"536 997 OFFCURVE",
"670 1037 OFFCURVE",
"819 1082 CURVE",
"822 1079 LINE",
"819 1066 OFFCURVE",
"817 1021 OFFCURVE",
"817 944 CURVE SMOOTH",
"817 0 LINE"
);
}
);
width = 1702;
}
);
note = ktTII;
},
{
glyphname = ktTHII;
lastChange = "2016-11-10 17:42:20 +0000";
layers = (
{
layerId = "CE2B0BEB-5EFE-47CF-A34E-B4149D2EF609";
paths = (
{
closed = 1;
nodes = (
"1029 0 LINE",
"1029 1244 LINE SMOOTH",
"1029 1390 OFFCURVE",
"1045 1494 OFFCURVE",
"1076 1557 CURVE SMOOTH",
"1107 1620 OFFCURVE",
"1158 1651 OFFCURVE",
"1230 1651 CURVE SMOOTH",
"1298 1651 OFFCURVE",
"1346 1621 OFFCURVE",
"1373 1562 CURVE SMOOTH",
"1400 1503 OFFCURVE",
"1414 1400 OFFCURVE",
"1414 1254 CURVE SMOOTH",
"1414 0 LINE",
"1579 0 LINE",
"1579 1224 LINE SMOOTH",
"1579 1605 OFFCURVE",
"1459 1796 OFFCURVE",
"1220 1796 CURVE SMOOTH",
"969 1796 OFFCURVE",
"864 1627 OFFCURVE",
"864 1274 CURVE SMOOTH",
"864 507 LINE",
"791 444 OFFCURVE",
"699 413 OFFCURVE",
"589 413 CURVE SMOOTH",
"476 413 OFFCURVE",
"372 460 OFFCURVE",
"304 533 CURVE",
"381 587 LINE SMOOTH",
"600 738 OFFCURVE",
"687 869 OFFCURVE",
"687 1022 CURVE SMOOTH",
"687 1171 OFFCURVE",
"573 1284 OFFCURVE",
"416 1284 CURVE SMOOTH",
"287 1284 OFFCURVE",
"198 1198 OFFCURVE",
"198 1077 CURVE SMOOTH",
"198 966 OFFCURVE",
"258 875 OFFCURVE",
"383 779 CURVE",
"333 732 OFFCURVE",
"259 678 OFFCURVE",
"160 616 CURVE SMOOTH",
"90 571 LINE",
"246 366 OFFCURVE",
"425 268 OFFCURVE",
"610 268 CURVE SMOOTH",
"706 268 OFFCURVE",
"791 288 OFFCURVE",
"864 327 CURVE",
"864 0 LINE"
);
},
{
closed = 1;
nodes = (
"388 933 OFFCURVE",
"353 990 OFFCURVE",
"353 1057 CURVE SMOOTH",
"353 1108 OFFCURVE",
"380 1149 OFFCURVE",
"431 1149 CURVE SMOOTH",
"482 1149 OFFCURVE",
"522 1102 OFFCURVE",
"522 1039 CURVE SMOOTH",
"522 982 OFFCURVE",
"503 926 OFFCURVE",
"464 869 CURVE"
);
}
);
width = 1749;
}
);
note = ktTHII;
},
{
glyphname = ktDII;
lastChange = "2016-11-10 17:42:20 +0000";
layers = (
{
layerId = "CE2B0BEB-5EFE-47CF-A34E-B4149D2EF609";
paths = (
{
closed = 1;
nodes = (
"671 -10 OFFCURVE",
"784 22 OFFCURVE",
"889 87 CURVE",
"839 234 LINE",
"741 167 OFFCURVE",
"637 134 OFFCURVE",
"528 134 CURVE SMOOTH",
"383 134 OFFCURVE",
"285 221 OFFCURVE",
"285 354 CURVE SMOOTH",
"285 523 OFFCURVE",
"413 597 OFFCURVE",
"742 597 CURVE",
"722 762 LINE",
"596 762 OFFCURVE",
"489 748 OFFCURVE",
"401 720 CURVE",
"346 775 OFFCURVE",
"319 839 OFFCURVE",
"319 913 CURVE SMOOTH",
"319 1069 OFFCURVE",
"447 1139 OFFCURVE",
"687 1139 CURVE",
"676 1200 OFFCURVE",
"671 1269 OFFCURVE",
"671 1344 CURVE SMOOTH",
"671 1540 OFFCURVE",
"755 1651 OFFCURVE",
"912 1651 CURVE SMOOTH",
"1076 1651 OFFCURVE",
"1146 1533 OFFCURVE",
"1146 1254 CURVE SMOOTH",
"1146 0 LINE",
"1311 0 LINE",
"1311 1224 LINE SMOOTH",
"1311 1600 OFFCURVE",
"1166 1796 OFFCURVE",
"902 1796 CURVE SMOOTH",
"674 1796 OFFCURVE",
"524 1626 OFFCURVE",
"524 1367 CURVE SMOOTH",
"524 1337 OFFCURVE",
"528 1307 OFFCURVE",
"535 1276 CURVE",
"283 1245 OFFCURVE",
"153 1131 OFFCURVE",
"153 943 CURVE SMOOTH",
"153 844 OFFCURVE",
"196 752 OFFCURVE",
"283 669 CURVE",
"174 602 OFFCURVE",
"120 504 OFFCURVE",
"120 375 CURVE SMOOTH",
"120 150 OFFCURVE",
"295 -10 OFFCURVE",
"550 -10 CURVE SMOOTH"
);
}
);
width = 1481;
}
);
note = ktDII;
},
{
glyphname = ktDHII;
lastChange = "2016-11-10 17:42:20 +0000";
layers = (
{
layerId = "CE2B0BEB-5EFE-47CF-A34E-B4149D2EF609";
paths = (
{
closed = 1;
nodes = (
"1048 0 LINE",
"1048 1244 LINE SMOOTH",
"1048 1390 OFFCURVE",
"1064 1494 OFFCURVE",
"1095 1557 CURVE SMOOTH",
"1126 1620 OFFCURVE",
"1177 1651 OFFCURVE",
"1249 1651 CURVE SMOOTH",
"1317 1651 OFFCURVE",
"1365 1621 OFFCURVE",
"1392 1562 CURVE SMOOTH",
"1419 1503 OFFCURVE",
"1433 1400 OFFCURVE",
"1433 1254 CURVE SMOOTH",
"1433 0 LINE",
"1598 0 LINE",
"1598 1224 LINE SMOOTH",
"1598 1605 OFFCURVE",
"1478 1796 OFFCURVE",
"1239 1796 CURVE SMOOTH",
"988 1796 OFFCURVE",
"883 1627 OFFCURVE",
"883 1274 CURVE SMOOTH",
"883 512 LINE",
"779 440 OFFCURVE",
"664 404 OFFCURVE",
"538 404 CURVE SMOOTH",
"389 404 OFFCURVE",
"285 464 OFFCURVE",
"285 564 CURVE SMOOTH",
"285 689 OFFCURVE",
"432 757 OFFCURVE",
"692 757 CURVE",
"395 1284 LINE",
"261 1208 LINE",
"459 900 LINE",
"244 851 OFFCURVE",
"120 737 OFFCURVE",
"120 585 CURVE SMOOTH",
"120 392 OFFCURVE",
"303 260 OFFCURVE",
"560 260 CURVE SMOOTH",
"679 260 OFFCURVE",
"787 286 OFFCURVE",
"883 337 CURVE",
"883 0 LINE"
);
}
);
width = 1768;
}
);
note = ktDHII;
},
{
glyphname = ktNII;
lastChange = "2016-11-10 17:42:20 +0000";
layers = (
{
layerId = "CE2B0BEB-5EFE-47CF-A34E-B4149D2EF609";
paths = (
{
closed = 1;
nodes = (
"1062 0 LINE",
"1062 1244 LINE SMOOTH",
"1062 1390 OFFCURVE",
"1078 1494 OFFCURVE",
"1109 1557 CURVE SMOOTH",
"1140 1620 OFFCURVE",
"1191 1651 OFFCURVE",
"1263 1651 CURVE SMOOTH",
"1331 1651 OFFCURVE",
"1379 1621 OFFCURVE",
"1406 1562 CURVE SMOOTH",
"1433 1503 OFFCURVE",
"1447 1400 OFFCURVE",
"1447 1254 CURVE SMOOTH",
"1447 0 LINE",
"1612 0 LINE",
"1612 1224 LINE SMOOTH",
"1612 1605 OFFCURVE",
"1492 1796 OFFCURVE",
"1253 1796 CURVE SMOOTH",
"1022 1796 OFFCURVE",
"918 1641 OFFCURVE",
"915 1264 CURVE",
"411 1075 OFFCURVE",
"90 793 OFFCURVE",
"90 525 CURVE SMOOTH",
"90 357 OFFCURVE",
"199 244 OFFCURVE",
"363 244 CURVE SMOOTH",
"515 244 OFFCURVE",
"618 356 OFFCURVE",
"618 512 CURVE SMOOTH",
"618 633 OFFCURVE",
"576 739 OFFCURVE",
"475 851 CURVE",
"595 948 OFFCURVE",
"736 1028 OFFCURVE",
"897 1089 CURVE",
"907 1089 LINE",
"900 1062 OFFCURVE",
"897 1017 OFFCURVE",
"897 954 CURVE SMOOTH",
"897 0 LINE"
);
},
{
closed = 1;
nodes = (
"289 389 OFFCURVE",
"255 434 OFFCURVE",
"255 498 CURVE SMOOTH",
"255 583 OFFCURVE",
"295 669 OFFCURVE",
"375 758 CURVE",
"427 699 OFFCURVE",
"453 630 OFFCURVE",
"453 551 CURVE SMOOTH",
"453 450 OFFCURVE",
"412 389 OFFCURVE",
"345 389 CURVE SMOOTH"
);
}
);
width = 1782;
}
);
note = ktNII;
},
{
glyphname = ktBHII;
lastChange = "2016-11-10 17:42:20 +0000";
layers = (
{
layerId = "CE2B0BEB-5EFE-47CF-A34E-B4149D2EF609";
paths = (
{
closed = 1;
nodes = (
"1141 0 LINE",
"1141 1244 LINE SMOOTH",
"1141 1390 OFFCURVE",
"1157 1494 OFFCURVE",
"1188 1557 CURVE SMOOTH",
"1219 1620 OFFCURVE",
"1270 1651 OFFCURVE",
"1342 1651 CURVE SMOOTH",
"1410 1651 OFFCURVE",
"1458 1621 OFFCURVE",
"1485 1562 CURVE SMOOTH",
"1512 1503 OFFCURVE",
"1526 1400 OFFCURVE",
"1526 1254 CURVE SMOOTH",
"1526 0 LINE",
"1691 0 LINE",
"1691 1224 LINE SMOOTH",
"1691 1605 OFFCURVE",
"1571 1796 OFFCURVE",
"1332 1796 CURVE SMOOTH",
"1100 1796 OFFCURVE",
"997 1640 OFFCURVE",
"994 1260 CURVE",
"829 1174 OFFCURVE",
"700 1100 OFFCURVE",
"607 1037 CURVE",
"572 1112 OFFCURVE",
"525 1194 OFFCURVE",
"467 1284 CURVE",
"365 1275 OFFCURVE",
"246 1247 OFFCURVE",
"110 1201 CURVE",
"150 1073 LINE",
"238 1106 OFFCURVE",
"315 1128 OFFCURVE",
"382 1140 CURVE",
"422 1079 OFFCURVE",
"456 1016 OFFCURVE",
"485 950 CURVE",
"294 801 OFFCURVE",
"199 653 OFFCURVE",
"199 505 CURVE SMOOTH",
"199 340 OFFCURVE",
"315 214 OFFCURVE",
"472 214 CURVE SMOOTH",
"632 214 OFFCURVE",
"737 334 OFFCURVE",
"737 522 CURVE SMOOTH",
"737 639 OFFCURVE",
"713 764 OFFCURVE",
"666 895 CURVE",
"745 950 OFFCURVE",
"849 1011 OFFCURVE",
"978 1077 CURVE",
"981 1074 LINE",
"978 1049 OFFCURVE",
"976 999 OFFCURVE",
"976 924 CURVE SMOOTH",
"976 0 LINE"
);
},
{
closed = 1;
nodes = (
"398 359 OFFCURVE",
"364 402 OFFCURVE",
"364 478 CURVE SMOOTH",
"364 583 OFFCURVE",
"423 688 OFFCURVE",
"540 795 CURVE",
"561 711 OFFCURVE",
"572 633 OFFCURVE",
"572 561 CURVE SMOOTH",
"572 437 OFFCURVE",
"527 359 OFFCURVE",
"455 359 CURVE SMOOTH"
);
}
);
width = 1861;
}
);
note = ktBHII;
},
{
glyphname = ktMII;
lastChange = "2016-11-10 17:42:20 +0000";
layers = (
{
layerId = "CE2B0BEB-5EFE-47CF-A34E-B4149D2EF609";
paths = (
{
closed = 1;
nodes = (
"1056 0 LINE",
"1056 1231 LINE SMOOTH",
"1056 1378 OFFCURVE",
"1072 1485 OFFCURVE",
"1103 1552 CURVE SMOOTH",
"1134 1618 OFFCURVE",
"1186 1651 OFFCURVE",
"1257 1651 CURVE SMOOTH",
"1325 1651 OFFCURVE",
"1373 1621 OFFCURVE",
"1400 1562 CURVE SMOOTH",
"1427 1503 OFFCURVE",
"1441 1400 OFFCURVE",
"1441 1254 CURVE SMOOTH",
"1441 0 LINE",
"1606 0 LINE",
"1606 1224 LINE SMOOTH",
"1606 1605 OFFCURVE",
"1486 1796 OFFCURVE",
"1247 1796 CURVE SMOOTH",
"1016 1796 OFFCURVE",
"909 1629 OFFCURVE",
"909 1240 CURVE",
"822 1133 OFFCURVE",
"732 1061 OFFCURVE",
"492 941 CURVE",
"430 1053 OFFCURVE",
"353 1167 OFFCURVE",
"262 1284 CURVE",
"145 1198 LINE",
"238 1080 OFFCURVE",
"313 970 OFFCURVE",
"370 869 CURVE",
"223 770 OFFCURVE",
"149 657 OFFCURVE",
"149 530 CURVE SMOOTH",
"149 377 OFFCURVE",
"256 274 OFFCURVE",
"397 274 CURVE SMOOTH",
"541 274 OFFCURVE",
"632 369 OFFCURVE",
"632 522 CURVE SMOOTH",
"632 602 OFFCURVE",
"608 695 OFFCURVE",
"561 802 CURVE",
"611 829 LINE SMOOTH",
"767 908 OFFCURVE",
"826 948 OFFCURVE",
"893 1017 CURVE",
"896 1014 LINE",
"893 996 OFFCURVE",
"891 951 OFFCURVE",
"891 879 CURVE SMOOTH",
"891 0 LINE"
);
},
{
closed = 1;
nodes = (
"343 419 OFFCURVE",
"314 453 OFFCURVE",
"314 513 CURVE SMOOTH",
"314 587 OFFCURVE",
"356 657 OFFCURVE",
"439 722 CURVE",
"464 653 OFFCURVE",
"477 595 OFFCURVE",
"477 546 CURVE SMOOTH",
"477 474 OFFCURVE",
"446 419 OFFCURVE",
"390 419 CURVE SMOOTH"
);
}
);
width = 1776;
}
);
note = ktMII;
},
{
glyphname = ktYII;
lastChange = "2016-11-10 17:42:20 +0000";
layers = (
{
layerId = "CE2B0BEB-5EFE-47CF-A34E-B4149D2EF609";
paths = (
{
closed = 1;
nodes = (
"965 0 LINE",
"965 1244 LINE SMOOTH",
"965 1390 OFFCURVE",
"981 1494 OFFCURVE",
"1012 1557 CURVE SMOOTH",
"1043 1620 OFFCURVE",
"1094 1651 OFFCURVE",
"1166 1651 CURVE SMOOTH",
"1234 1651 OFFCURVE",
"1282 1621 OFFCURVE",
"1309 1562 CURVE SMOOTH",
"1336 1503 OFFCURVE",
"1350 1400 OFFCURVE",
"1350 1254 CURVE SMOOTH",
"1350 0 LINE",
"1515 0 LINE",
"1515 1224 LINE SMOOTH",
"1515 1605 OFFCURVE",
"1395 1796 OFFCURVE",
"1156 1796 CURVE SMOOTH",
"905 1796 OFFCURVE",
"800 1627 OFFCURVE",
"800 1274 CURVE SMOOTH",
"800 484 LINE",
"705 423 OFFCURVE",
"602 393 OFFCURVE",
"493 393 CURVE SMOOTH",
"342 393 OFFCURVE",
"255 445 OFFCURVE",
"255 538 CURVE SMOOTH",
"255 603 OFFCURVE",
"307 665 OFFCURVE",
"416 742 CURVE SMOOTH",
"524 819 OFFCURVE",
"577 888 OFFCURVE",
"577 961 CURVE SMOOTH",
"577 1061 OFFCURVE",
"540 1133 OFFCURVE",
"383 1284 CURVE",
"285 1196 LINE",
"342 1139 OFFCURVE",
"378 1098 OFFCURVE",
"392 1073 CURVE",
"405 1047 OFFCURVE",
"412 1019 OFFCURVE",
"412 988 CURVE SMOOTH",
"412 960 OFFCURVE",
"400 932 OFFCURVE",
"376 904 CURVE SMOOTH",
"352 875 OFFCURVE",
"310 839 OFFCURVE",
"251 795 CURVE SMOOTH",
"142 712 OFFCURVE",
"90 640 OFFCURVE",
"90 563 CURVE SMOOTH",
"90 386 OFFCURVE",
"278 248 OFFCURVE",
"514 248 CURVE SMOOTH",
"609 248 OFFCURVE",
"705 268 OFFCURVE",
"800 309 CURVE",
"800 0 LINE"
);
},
{
closed = 1;
nodes = (
"552 -169 OFFCURVE",
"593 -123 OFFCURVE",
"593 -46 CURVE SMOOTH",
"593 31 OFFCURVE",
"552 74 OFFCURVE",
"480 74 CURVE SMOOTH",
"409 74 OFFCURVE",
"370 31 OFFCURVE",
"370 -46 CURVE SMOOTH",
"370 -123 OFFCURVE",
"411 -169 OFFCURVE",
"480 -169 CURVE SMOOTH"
);
}
);
width = 1685;
}
);
note = ktYII;
},
{
glyphname = ktLII;
lastChange = "2016-11-10 17:42:20 +0000";
layers = (
{
layerId = "CE2B0BEB-5EFE-47CF-A34E-B4149D2EF609";
paths = (
{
closed = 1;
nodes = (
"922 -10 OFFCURVE",
"1090 219 OFFCURVE",
"1090 620 CURVE SMOOTH",
"1090 751 OFFCURVE",
"1074 854 OFFCURVE",
"1035 993 CURVE SMOOTH",
"995 1129 OFFCURVE",
"979 1238 OFFCURVE",
"979 1374 CURVE SMOOTH",
"979 1546 OFFCURVE",
"1044 1651 OFFCURVE",
"1160 1651 CURVE SMOOTH",
"1232 1651 OFFCURVE",
"1282 1622 OFFCURVE",
"1311 1564 CURVE SMOOTH",
"1340 1506 OFFCURVE",
"1354 1403 OFFCURVE",
"1354 1254 CURVE SMOOTH",
"1354 0 LINE",
"1519 0 LINE",
"1519 1224 LINE SMOOTH",
"1519 1600 OFFCURVE",
"1403 1796 OFFCURVE",
"1150 1796 CURVE SMOOTH",
"954 1796 OFFCURVE",
"832 1642 OFFCURVE",
"832 1397 CURVE SMOOTH",
"832 1324 OFFCURVE",
"844 1260 OFFCURVE",
"867 1207 CURVE",
"795 1258 OFFCURVE",
"709 1284 OFFCURVE",
"609 1284 CURVE SMOOTH",
"512 1284 OFFCURVE",
"427 1259 OFFCURVE",
"352 1210 CURVE SMOOTH",
"202 1110 OFFCURVE",
"110 907 OFFCURVE",
"110 675 CURVE SMOOTH",
"110 250 OFFCURVE",
"302 -10 OFFCURVE",
"622 -10 CURVE SMOOTH"
);
},
{
closed = 1;
nodes = (
"445 135 OFFCURVE",
"319 260 OFFCURVE",
"292 452 CURVE",
"383 507 OFFCURVE",
"509 544 OFFCURVE",
"616 544 CURVE SMOOTH",
"719 544 OFFCURVE",
"819 519 OFFCURVE",
"915 469 CURVE",
"915 257 OFFCURVE",
"799 135 OFFCURVE",
"602 135 CURVE SMOOTH"
);
},
{
closed = 1;
nodes = (
"791 667 OFFCURVE",
"701 688 OFFCURVE",
"596 688 CURVE SMOOTH",
"495 688 OFFCURVE",
"365 657 OFFCURVE",
"276 609 CURVE",
"275 613 LINE",
"275 624 LINE SMOOTH",
"275 945 OFFCURVE",
"410 1139 OFFCURVE",
"626 1139 CURVE SMOOTH",
"827 1139 OFFCURVE",
"925 978 OFFCURVE",
"925 639 CURVE",
"924 613 LINE",
"924 598 LINE"
);
}
);
width = 1689;
}
);
note = ktLII;
},
{
glyphname = ktVII;
lastChange = "2016-11-10 17:42:20 +0000";
layers = (
{
layerId = "CE2B0BEB-5EFE-47CF-A34E-B4149D2EF609";
paths = (
{
closed = 1;
nodes = (
"1003 0 LINE",
"1003 1244 LINE SMOOTH",
"1003 1390 OFFCURVE",
"1019 1494 OFFCURVE",
"1050 1557 CURVE SMOOTH",
"1081 1620 OFFCURVE",
"1132 1651 OFFCURVE",
"1204 1651 CURVE SMOOTH",
"1272 1651 OFFCURVE",
"1320 1621 OFFCURVE",
"1347 1562 CURVE SMOOTH",
"1374 1503 OFFCURVE",
"1388 1400 OFFCURVE",
"1388 1254 CURVE SMOOTH",
"1388 0 LINE",
"1553 0 LINE",
"1553 1224 LINE SMOOTH",
"1553 1605 OFFCURVE",
"1433 1796 OFFCURVE",
"1194 1796 CURVE SMOOTH",
"943 1796 OFFCURVE",
"838 1627 OFFCURVE",
"838 1274 CURVE SMOOTH",
"838 588 LINE",
"751 513 OFFCURVE",
"652 476 OFFCURVE",
"540 476 CURVE SMOOTH",
"380 476 OFFCURVE",
"265 581 OFFCURVE",
"265 742 CURVE SMOOTH",
"265 895 OFFCURVE",
"378 1002 OFFCURVE",
"534 1002 CURVE SMOOTH",
"580 1002 OFFCURVE",
"624 993 OFFCURVE",
"667 975 CURVE",
"722 1105 LINE",
"642 1146 OFFCURVE",
"587 1159 OFFCURVE",
"516 1159 CURVE SMOOTH",
"443 1159 OFFCURVE",
"374 1141 OFFCURVE",
"310 1104 CURVE SMOOTH",
"181 1031 OFFCURVE",
"100 897 OFFCURVE",
"100 757 CURVE SMOOTH",
"100 678 OFFCURVE",
"120 606 OFFCURVE",
"159 541 CURVE SMOOTH",
"237 409 OFFCURVE",
"385 331 OFFCURVE",
"560 331 CURVE SMOOTH",
"663 331 OFFCURVE",
"755 354 OFFCURVE",
"838 399 CURVE",
"838 0 LINE"
);
},
{
closed = 1;
nodes = (
"582 -133 OFFCURVE",
"623 -87 OFFCURVE",
"623 -10 CURVE SMOOTH",
"623 67 OFFCURVE",
"582 110 OFFCURVE",
"510 110 CURVE SMOOTH",
"439 110 OFFCURVE",
"400 67 OFFCURVE",
"400 -10 CURVE SMOOTH",
"400 -87 OFFCURVE",
"441 -133 OFFCURVE",
"510 -133 CURVE SMOOTH"
);
}
);
width = 1723;
}
);
note = ktVII;
},
{
glyphname = ktSHII;
lastChange = "2016-11-10 17:42:20 +0000";
layers = (
{
layerId = "CE2B0BEB-5EFE-47CF-A34E-B4149D2EF609";
paths = (
{
closed = 1;
nodes = (
"799 76 LINE",
"688 234 OFFCURVE",
"604 346 OFFCURVE",
"547 411 CURVE",
"616 448 OFFCURVE",
"673 497 OFFCURVE",
"719 557 CURVE",
"783 528 OFFCURVE",
"882 489 OFFCURVE",
"1016 438 CURVE",
"1016 0 LINE",
"1181 0 LINE",
"1181 1244 LINE SMOOTH",
"1181 1390 OFFCURVE",
"1197 1494 OFFCURVE",
"1228 1557 CURVE SMOOTH",
"1259 1620 OFFCURVE",
"1310 1651 OFFCURVE",
"1382 1651 CURVE SMOOTH",
"1450 1651 OFFCURVE",
"1498 1621 OFFCURVE",
"1525 1562 CURVE SMOOTH",
"1552 1503 OFFCURVE",
"1566 1400 OFFCURVE",
"1566 1254 CURVE SMOOTH",
"1566 0 LINE",
"1731 0 LINE",
"1731 1224 LINE SMOOTH",
"1731 1605 OFFCURVE",
"1611 1796 OFFCURVE",
"1372 1796 CURVE SMOOTH",
"1121 1796 OFFCURVE",
"1016 1627 OFFCURVE",
"1016 1274 CURVE SMOOTH",
"1016 580 LINE",
"930 610 OFFCURVE",
"853 640 OFFCURVE",
"786 670 CURVE",
"814 736 OFFCURVE",
"828 806 OFFCURVE",
"828 879 CURVE SMOOTH",
"828 1130 OFFCURVE",
"710 1284 OFFCURVE",
"509 1284 CURVE SMOOTH",
"356 1284 OFFCURVE",
"256 1186 OFFCURVE",
"256 1046 CURVE SMOOTH",
"256 889 OFFCURVE",
"353 757 OFFCURVE",
"574 630 CURVE",
"537 583 OFFCURVE",
"490 546 OFFCURVE",
"433 519 CURVE",
"369 568 OFFCURVE",
"307 592 OFFCURVE",
"246 592 CURVE SMOOTH",
"169 592 OFFCURVE",
"120 552 OFFCURVE",
"120 488 CURVE SMOOTH",
"120 407 OFFCURVE",
"207 347 OFFCURVE",
"312 347 CURVE SMOOTH",
"343 347 OFFCURVE",
"373 350 OFFCURVE",
"402 357 CURVE",
"669 -22 LINE"
);
},
{
closed = 1;
nodes = (
"493 830 OFFCURVE",
"421 924 OFFCURVE",
"421 1026 CURVE SMOOTH",
"421 1094 OFFCURVE",
"456 1139 OFFCURVE",
"525 1139 CURVE SMOOTH",
"612 1139 OFFCURVE",
"663 1049 OFFCURVE",
"663 897 CURVE SMOOTH",
"663 842 OFFCURVE",
"655 791 OFFCURVE",
"638 745 CURVE"
);
}
);
width = 1901;
}
);
note = ktSHII;
},
{
glyphname = ktSSII;
lastChange = "2016-11-10 17:42:20 +0000";
layers = (
{
layerId = "CE2B0BEB-5EFE-47CF-A34E-B4149D2EF609";
paths = (
{
closed = 1;
nodes = (
"897 0 LINE",
"897 1244 LINE SMOOTH",
"897 1390 OFFCURVE",
"913 1494 OFFCURVE",
"944 1557 CURVE SMOOTH",
"975 1620 OFFCURVE",
"1026 1651 OFFCURVE",
"1098 1651 CURVE SMOOTH",
"1166 1651 OFFCURVE",
"1214 1621 OFFCURVE",
"1241 1562 CURVE SMOOTH",
"1268 1503 OFFCURVE",
"1282 1400 OFFCURVE",
"1282 1254 CURVE SMOOTH",
"1282 0 LINE",
"1447 0 LINE",
"1447 1224 LINE SMOOTH",
"1447 1605 OFFCURVE",
"1327 1796 OFFCURVE",
"1088 1796 CURVE SMOOTH",
"837 1796 OFFCURVE",
"732 1627 OFFCURVE",
"732 1274 CURVE SMOOTH",
"732 765 LINE",
"315 1274 LINE",
"150 1274 LINE",
"150 821 LINE SMOOTH",
"150 564 OFFCURVE",
"294 405 OFFCURVE",
"527 405 CURVE SMOOTH",
"607 405 OFFCURVE",
"689 436 OFFCURVE",
"732 473 CURVE",
"737 473 LINE",
"734 456 OFFCURVE",
"732 399 OFFCURVE",
"732 302 CURVE SMOOTH",
"732 0 LINE"
);
},
{
closed = 1;
nodes = (
"371 549 OFFCURVE",
"315 615 OFFCURVE",
"315 756 CURVE SMOOTH",
"315 1061 LINE",
"581 726 LINE SMOOTH",
"612 685 OFFCURVE",
"652 655 OFFCURVE",
"700 636 CURVE",
"639 578 OFFCURVE",
"573 549 OFFCURVE",
"502 549 CURVE SMOOTH"
);
}
);
width = 1617;
}
);
note = ktSSII;
},
{
glyphname = ktDDDHII;
lastChange = "2016-11-10 17:42:20 +0000";
layers = (
{
layerId = "CE2B0BEB-5EFE-47CF-A34E-B4149D2EF609";
paths = (
{
closed = 1;
nodes = (
"954 -10 OFFCURVE",
"1116 150 OFFCURVE",
"1116 378 CURVE SMOOTH",
"1116 593 OFFCURVE",
"985 758 OFFCURVE",
"806 758 CURVE SMOOTH",
"772 758 OFFCURVE",
"713 750 OFFCURVE",
"630 734 CURVE SMOOTH",
"547 718 OFFCURVE",
"481 710 OFFCURVE",
"433 710 CURVE",
"417 747 OFFCURVE",
"409 791 OFFCURVE",
"409 842 CURVE SMOOTH",
"409 1038 OFFCURVE",
"550 1139 OFFCURVE",
"809 1139 CURVE",
"798 1200 OFFCURVE",
"793 1269 OFFCURVE",
"793 1344 CURVE SMOOTH",
"793 1539 OFFCURVE",
"896 1651 OFFCURVE",
"1075 1651 CURVE SMOOTH",
"1256 1651 OFFCURVE",
"1358 1522 OFFCURVE",
"1358 1254 CURVE SMOOTH",
"1358 0 LINE",
"1523 0 LINE",
"1523 1224 LINE SMOOTH",
"1523 1583 OFFCURVE",
"1354 1796 OFFCURVE",
"1065 1796 CURVE SMOOTH",
"809 1796 OFFCURVE",
"646 1627 OFFCURVE",
"646 1367 CURVE SMOOTH",
"646 1334 OFFCURVE",
"650 1303 OFFCURVE",
"658 1273 CURVE",
"394 1232 OFFCURVE",
"244 1079 OFFCURVE",
"244 852 CURVE SMOOTH",
"244 683 OFFCURVE",
"364 565 OFFCURVE",
"543 565 CURVE SMOOTH",
"572 565 OFFCURVE",
"623 571 OFFCURVE",
"697 584 CURVE SMOOTH",
"771 597 OFFCURVE",
"824 603 OFFCURVE",
"857 603 CURVE",
"920 559 OFFCURVE",
"951 491 OFFCURVE",
"951 398 CURVE SMOOTH",
"951 234 OFFCURVE",
"849 135 OFFCURVE",
"685 135 CURVE SMOOTH",
"526 135 OFFCURVE",
"402 225 OFFCURVE",
"218 502 CURVE",
"100 427 LINE",
"295 108 OFFCURVE",
"481 -10 OFFCURVE",
"706 -10 CURVE SMOOTH"
);
},
{
closed = 1;
nodes = (
"708 -410 OFFCURVE",
"749 -364 OFFCURVE",
"749 -287 CURVE SMOOTH",
"749 -210 OFFCURVE",
"708 -167 OFFCURVE",
"636 -167 CURVE SMOOTH",
"565 -167 OFFCURVE",
"526 -210 OFFCURVE",
"526 -287 CURVE SMOOTH",
"526 -364 OFFCURVE",
"567 -410 OFFCURVE",
"636 -410 CURVE SMOOTH"
);
}
);
width = 1693;
}
);
note = ktDDDHII;
},
{
glyphname = ktCU.alt1;
lastChange = "2016-11-10 17:42:20 +0000";
layers = (
{
layerId = "CE2B0BEB-5EFE-47CF-A34E-B4149D2EF609";
paths = (
{
closed = 1;
nodes = (
"884 -420 OFFCURVE",
"1034 -253 OFFCURVE",
"1034 80 CURVE SMOOTH",
"1034 1274 LINE",
"869 1274 LINE",
"869 495 LINE",
"797 440 OFFCURVE",
"709 413 OFFCURVE",
"604 413 CURVE SMOOTH",
"497 413 OFFCURVE",
"405 453 OFFCURVE",
"329 533 CURVE",
"404 596 OFFCURVE",
"458 648 OFFCURVE",
"493 689 CURVE SMOOTH",
"561 769 OFFCURVE",
"602 850 OFFCURVE",
"602 942 CURVE SMOOTH",
"602 1066 OFFCURVE",
"543 1167 OFFCURVE",
"378 1284 CURVE",
"291 1186 LINE",
"380 1118 OFFCURVE",
"437 1052 OFFCURVE",
"437 959 CURVE SMOOTH",
"437 872 OFFCURVE",
"368 773 OFFCURVE",
"229 663 CURVE SMOOTH",
"115 571 LINE",
"268 369 OFFCURVE",
"438 268 OFFCURVE",
"625 268 CURVE SMOOTH",
"718 268 OFFCURVE",
"800 285 OFFCURVE",
"869 318 CURVE",
"869 100 LINE SMOOTH",
"869 -152 OFFCURVE",
"778 -275 OFFCURVE",
"574 -275 CURVE SMOOTH",
"438 -275 OFFCURVE",
"306 -218 OFFCURVE",
"146 -91 CURVE",
"60 -194 LINE",
"257 -353 OFFCURVE",
"420 -420 OFFCURVE",
"584 -420 CURVE SMOOTH"
);
}
);
width = 1204;
}
);
note = ktCU.alt1;
},
{
glyphname = ktRHII;
lastChange = "2016-11-10 17:42:20 +0000";
layers = (
{
layerId = "CE2B0BEB-5EFE-47CF-A34E-B4149D2EF609";
paths = (
{
closed = 1;
nodes = (
"700 -10 OFFCURVE",
"781 4 OFFCURVE",
"854 32 CURVE SMOOTH",
"1001 88 OFFCURVE",
"1091 193 OFFCURVE",
"1091 321 CURVE SMOOTH",
"1091 364 OFFCURVE",
"1079 406 OFFCURVE",
"1056 445 CURVE SMOOTH",
"1008 524 OFFCURVE",
"922 572 OFFCURVE",
"819 572 CURVE SMOOTH",
"670 572 OFFCURVE",
"557 476 OFFCURVE",
"557 347 CURVE SMOOTH",
"557 273 OFFCURVE",
"596 204 OFFCURVE",
"674 140 CURVE",
"593 135 LINE",
"397 135 OFFCURVE",
"265 225 OFFCURVE",
"265 369 CURVE SMOOTH",
"265 473 OFFCURVE",
"327 555 OFFCURVE",
"502 688 CURVE SMOOTH",
"662 809 OFFCURVE",
"739 925 OFFCURVE",
"739 1062 CURVE SMOOTH",
"739 1214 LINE SMOOTH",
"739 1567 OFFCURVE",
"823 1711 OFFCURVE",
"1028 1711 CURVE SMOOTH",
"1224 1711 OFFCURVE",
"1311 1571 OFFCURVE",
"1311 1234 CURVE SMOOTH",
"1311 0 LINE",
"1476 0 LINE",
"1476 1214 LINE SMOOTH",
"1476 1642 OFFCURVE",
"1322 1856 OFFCURVE",
"1013 1856 CURVE SMOOTH",
"722 1856 OFFCURVE",
"574 1649 OFFCURVE",
"574 1244 CURVE SMOOTH",
"574 1102 LINE SMOOTH",
"574 979 OFFCURVE",
"501 878 OFFCURVE",
"337 751 CURVE SMOOTH",
"172 623 OFFCURVE",
"100 518 OFFCURVE",
"100 389 CURVE SMOOTH",
"100 315 OFFCURVE",
"123 248 OFFCURVE",
"168 187 CURVE SMOOTH",
"259 65 OFFCURVE",
"428 -10 OFFCURVE",
"613 -10 CURVE SMOOTH"
);
},
{
closed = 1;
nodes = (
"702 -392 OFFCURVE",
"743 -346 OFFCURVE",
"743 -269 CURVE SMOOTH",
"743 -192 OFFCURVE",
"702 -149 OFFCURVE",
"630 -149 CURVE SMOOTH",
"559 -149 OFFCURVE",
"520 -192 OFFCURVE",
"520 -269 CURVE SMOOTH",
"520 -346 OFFCURVE",
"561 -392 OFFCURVE",
"630 -392 CURVE SMOOTH"
);
},
{
closed = 1;
nodes = (
"744 217 OFFCURVE",
"722 267 OFFCURVE",
"722 318 CURVE SMOOTH",
"722 379 OFFCURVE",
"768 427 OFFCURVE",
"829 427 CURVE SMOOTH",
"889 427 OFFCURVE",
"926 383 OFFCURVE",
"926 331 CURVE SMOOTH",
"926 256 OFFCURVE",
"871 201 OFFCURVE",
"787 169 CURVE"
);
}
);
width = 1646;
}
);
note = ktRHII;
},
{
glyphname = ktNNII;
lastChange = "2016-11-10 17:42:20 +0000";
layers = (
{
layerId = "CE2B0BEB-5EFE-47CF-A34E-B4149D2EF609";
paths = (
{
closed = 1;
nodes = (
"345 0 LINE",
"345 562 LINE",
"685 562 LINE",
"685 0 LINE",
"850 0 LINE",
"850 562 LINE",
"1190 562 LINE",
"1190 0 LINE",
"1355 0 LINE",
"1355 1194 LINE SMOOTH",
"1355 1317 OFFCURVE",
"1361 1409 OFFCURVE",
"1374 1472 CURVE SMOOTH",
"1398 1597 OFFCURVE",
"1450 1651 OFFCURVE",
"1554 1651 CURVE SMOOTH",
"1623 1651 OFFCURVE",
"1671 1622 OFFCURVE",
"1699 1564 CURVE SMOOTH",
"1726 1506 OFFCURVE",
"1740 1403 OFFCURVE",
"1740 1254 CURVE SMOOTH",
"1740 0 LINE",
"1905 0 LINE",
"1905 1224 LINE SMOOTH",
"1905 1632 OFFCURVE",
"1791 1796 OFFCURVE",
"1544 1796 CURVE SMOOTH",
"1297 1796 OFFCURVE",
"1190 1636 OFFCURVE",
"1190 1224 CURVE SMOOTH",
"1190 707 LINE",
"850 707 LINE",
"850 1274 LINE",
"685 1274 LINE",
"685 707 LINE",
"345 707 LINE",
"345 1274 LINE",
"180 1274 LINE",
"180 0 LINE"
);
}
);
width = 2075;
}
);
note = ktNNII;
},
{
glyphname = ktNNU;
lastChange = "2016-11-10 17:42:20 +0000";
layers = (
{
layerId = "CE2B0BEB-5EFE-47CF-A34E-B4149D2EF609";
paths = (
{
closed = 1;
nodes = (
"1457 -460 OFFCURVE",
"1584 -351 OFFCURVE",
"1584 -180 CURVE SMOOTH",
"1584 -40 OFFCURVE",
"1504 54 OFFCURVE",
"1345 77 CURVE",
"1350 106 OFFCURVE",
"1354 144 OFFCURVE",
"1355 190 CURVE SMOOTH",
"1355 1274 LINE",
"1190 1274 LINE",
"1190 707 LINE",
"850 707 LINE",
"850 1274 LINE",
"685 1274 LINE",
"685 707 LINE",
"345 707 LINE",
"345 1274 LINE",
"180 1274 LINE",
"180 0 LINE",
"345 0 LINE",
"345 562 LINE",
"685 562 LINE",
"685 0 LINE",
"850 0 LINE",
"850 562 LINE",
"1190 562 LINE",
"1190 -20 LINE",
"1343 -20 OFFCURVE",
"1419 -68 OFFCURVE",
"1419 -163 CURVE SMOOTH",
"1419 -252 OFFCURVE",
"1354 -315 OFFCURVE",
"1233 -315 CURVE SMOOTH",
"1086 -315 OFFCURVE",
"942 -261 OFFCURVE",
"730 -106 CURVE",
"652 -209 LINE",
"839 -365 OFFCURVE",
"1060 -460 OFFCURVE",
"1249 -460 CURVE SMOOTH"
);
}
);
width = 1534;
}
);
note = ktNNU;
},
{
glyphname = ktNNU.alt1;
lastChange = "2016-11-10 17:42:20 +0000";
layers = (
{
layerId = "CE2B0BEB-5EFE-47CF-A34E-B4149D2EF609";
paths = (
{
closed = 1;
nodes = (
"960 -442 LINE SMOOTH",
"1249 -299 OFFCURVE",
"1355 -125 OFFCURVE",
"1355 150 CURVE SMOOTH",
"1355 1274 LINE",
"1190 1274 LINE",
"1190 707 LINE",
"850 707 LINE",
"850 1274 LINE",
"685 1274 LINE",
"685 707 LINE",
"345 707 LINE",
"345 1274 LINE",
"180 1274 LINE",
"180 0 LINE",
"345 0 LINE",
"345 562 LINE",
"685 562 LINE",
"685 0 LINE",
"850 0 LINE",
"850 562 LINE",
"1190 562 LINE",
"1190 170 LINE SMOOTH",
"1190 61 OFFCURVE",
"1168 -29 OFFCURVE",
"1129 -99 CURVE SMOOTH",
"1089 -169 OFFCURVE",
"1033 -223 OFFCURVE",
"966 -267 CURVE SMOOTH",
"933 -290 OFFCURVE",
"870 -324 OFFCURVE",
"778 -370 CURVE",
"847 -500 LINE"
);
}
);
width = 1525;
}
);
note = ktNNU.alt1;
},
{
glyphname = ktNNUU;
lastChange = "2016-11-10 17:42:20 +0000";
layers = (
{
layerId = "CE2B0BEB-5EFE-47CF-A34E-B4149D2EF609";
paths = (
{
closed = 1;
nodes = (
"1721 -488 LINE",
"1672 -383 OFFCURVE",
"1628 -302 OFFCURVE",
"1591 -247 CURVE SMOOTH",
"1515 -136 OFFCURVE",
"1424 -58 OFFCURVE",
"1328 -19 CURVE",
"1333 -14 OFFCURVE",
"1338 10 OFFCURVE",
"1345 53 CURVE SMOOTH",
"1352 96 OFFCURVE",
"1355 142 OFFCURVE",
"1355 191 CURVE SMOOTH",
"1355 1274 LINE",
"1190 1274 LINE",
"1190 707 LINE",
"850 707 LINE",
"850 1274 LINE",
"685 1274 LINE",
"685 707 LINE",
"345 707 LINE",
"345 1274 LINE",
"180 1274 LINE",
"180 0 LINE",
"345 0 LINE",
"345 562 LINE",
"685 562 LINE",
"685 0 LINE",
"850 0 LINE",
"850 562 LINE",
"1190 562 LINE",
"1190 9 LINE",
"1174 10 LINE",
"1002 10 OFFCURVE",
"888 -85 OFFCURVE",
"888 -230 CURVE SMOOTH",
"888 -381 OFFCURVE",
"1023 -491 OFFCURVE",
"1208 -491 CURVE",
"1232 -370 LINE",
"1125 -367 OFFCURVE",
"1053 -322 OFFCURVE",
"1053 -247 CURVE SMOOTH",
"1053 -183 OFFCURVE",
"1102 -135 OFFCURVE",
"1190 -135 CURVE SMOOTH",
"1333 -135 OFFCURVE",
"1461 -246 OFFCURVE",
"1574 -468 CURVE SMOOTH",
"1612 -543 LINE"
);
}
);
width = 1548;
}
);
note = ktNNUU;
},
{
glyphname = ktTU;
lastChange = "2016-11-10 17:42:20 +0000";
layers = (
{
layerId = "CE2B0BEB-5EFE-47CF-A34E-B4149D2EF609";
paths = (
{
closed = 1;
nodes = (
"1084 -460 OFFCURVE",
"1211 -351 OFFCURVE",
"1211 -180 CURVE SMOOTH",
"1211 -40 OFFCURVE",
"1131 54 OFFCURVE",
"972 77 CURVE",
"979 119 OFFCURVE",
"982 164 OFFCURVE",
"982 211 CURVE SMOOTH",
"982 1274 LINE",
"862 1274 LINE",
"637 1201 OFFCURVE",
"479 1139 OFFCURVE",
"387 1090 CURVE SMOOTH",
"203 991 OFFCURVE",
"120 879 OFFCURVE",
"120 718 CURVE SMOOTH",
"120 583 OFFCURVE",
"194 410 OFFCURVE",
"342 199 CURVE",
"457 273 LINE",
"398 367 OFFCURVE",
"359 433 OFFCURVE",
"341 470 CURVE SMOOTH",
"305 545 OFFCURVE",
"285 614 OFFCURVE",
"285 691 CURVE SMOOTH",
"285 806 OFFCURVE",
"344 881 OFFCURVE",
"440 939 CURVE SMOOTH",
"536 997 OFFCURVE",
"670 1037 OFFCURVE",
"819 1082 CURVE",
"822 1079 LINE",
"819 1066 OFFCURVE",
"817 1021 OFFCURVE",
"817 944 CURVE SMOOTH",
"817 -20 LINE",
"970 -20 OFFCURVE",
"1046 -68 OFFCURVE",
"1046 -163 CURVE SMOOTH",
"1046 -252 OFFCURVE",
"981 -315 OFFCURVE",
"860 -315 CURVE SMOOTH",
"713 -315 OFFCURVE",
"569 -261 OFFCURVE",
"357 -106 CURVE",
"279 -209 LINE",
"466 -365 OFFCURVE",
"687 -460 OFFCURVE",
"876 -460 CURVE SMOOTH"
);
}
);
width = 1161;
}
);
note = ktTU;
},
{
glyphname = ktTU.alt1;
lastChange = "2016-11-10 17:37:31 +0000";
layers = (
{
layerId = "CE2B0BEB-5EFE-47CF-A34E-B4149D2EF609";
paths = (
{
closed = 1;
nodes = (
"587 -442 LINE SMOOTH",
"876 -299 OFFCURVE",
"982 -125 OFFCURVE",
"982 150 CURVE SMOOTH",
"982 1274 LINE",
"862 1274 LINE",
"637 1201 OFFCURVE",
"479 1139 OFFCURVE",
"387 1090 CURVE SMOOTH",
"203 991 OFFCURVE",
"120 879 OFFCURVE",
"120 718 CURVE SMOOTH",
"120 583 OFFCURVE",
"194 410 OFFCURVE",
"342 199 CURVE",
"457 273 LINE",
"398 367 OFFCURVE",
"359 433 OFFCURVE",
"341 470 CURVE SMOOTH",
"305 545 OFFCURVE",
"285 614 OFFCURVE",
"285 691 CURVE SMOOTH",
"285 806 OFFCURVE",
"344 881 OFFCURVE",
"440 939 CURVE SMOOTH",
"536 997 OFFCURVE",
"670 1037 OFFCURVE",
"819 1082 CURVE",
"822 1079 LINE",
"819 1066 OFFCURVE",
"817 1021 OFFCURVE",
"817 944 CURVE SMOOTH",
"817 170 LINE SMOOTH",
"817 61 OFFCURVE",
"795 -29 OFFCURVE",
"756 -99 CURVE SMOOTH",
"716 -169 OFFCURVE",
"660 -223 OFFCURVE",
"593 -267 CURVE SMOOTH",
"560 -290 OFFCURVE",
"497 -324 OFFCURVE",
"405 -370 CURVE",
"474 -500 LINE"
);
}
);
width = 1152;
}
);
note = ktTU.alt1;
},
{
glyphname = ktNU;
lastChange = "2016-11-10 17:42:20 +0000";
layers = (
{
layerId = "CE2B0BEB-5EFE-47CF-A34E-B4149D2EF609";
paths = (
{
closed = 1;
nodes = (
"1165 -462 OFFCURVE",
"1291 -356 OFFCURVE",
"1291 -189 CURVE SMOOTH",
"1291 -49 OFFCURVE",
"1203 52 OFFCURVE",
"1052 76 CURVE",
"1059 118 OFFCURVE",
"1062 163 OFFCURVE",
"1062 211 CURVE SMOOTH",
"1062 1274 LINE",
"942 1274 LINE",
"417 1081 OFFCURVE",
"90 797 OFFCURVE",
"90 525 CURVE SMOOTH",
"90 357 OFFCURVE",
"199 244 OFFCURVE",
"363 244 CURVE SMOOTH",
"515 244 OFFCURVE",
"618 356 OFFCURVE",
"618 512 CURVE SMOOTH",
"618 633 OFFCURVE",
"576 739 OFFCURVE",
"475 851 CURVE",
"595 948 OFFCURVE",
"736 1028 OFFCURVE",
"897 1089 CURVE",
"907 1089 LINE",
"900 1062 OFFCURVE",
"897 1017 OFFCURVE",
"897 954 CURVE SMOOTH",
"897 -20 LINE",
"1044 -20 OFFCURVE",
"1126 -76 OFFCURVE",
"1126 -172 CURVE SMOOTH",
"1126 -260 OFFCURVE",
"1055 -317 OFFCURVE",
"950 -317 CURVE SMOOTH",
"900 -317 OFFCURVE",
"853 -307 OFFCURVE",
"808 -286 CURVE SMOOTH",
"719 -245 OFFCURVE",
"654 -196 OFFCURVE",
"513 -32 CURVE",
"410 -116 LINE",
"477 -200 OFFCURVE",
"539 -265 OFFCURVE",
"594 -311 CURVE SMOOTH",
"705 -404 OFFCURVE",
"827 -462 OFFCURVE",
"966 -462 CURVE SMOOTH"
);
},
{
closed = 1;
nodes = (
"289 389 OFFCURVE",
"255 434 OFFCURVE",
"255 498 CURVE SMOOTH",
"255 583 OFFCURVE",
"295 669 OFFCURVE",
"375 758 CURVE",
"427 699 OFFCURVE",
"453 630 OFFCURVE",
"453 551 CURVE SMOOTH",
"453 450 OFFCURVE",
"412 389 OFFCURVE",
"345 389 CURVE SMOOTH"
);
}
);
width = 1241;
}
);
note = ktNU;
},
{
glyphname = ktDHU;
lastChange = "2016-11-10 17:42:20 +0000";
layers = (
{
layerId = "CE2B0BEB-5EFE-47CF-A34E-B4149D2EF609";
paths = (
{
closed = 1;
nodes = (
"1151 -462 OFFCURVE",
"1277 -356 OFFCURVE",
"1277 -189 CURVE SMOOTH",
"1277 -49 OFFCURVE",
"1189 52 OFFCURVE",
"1038 76 CURVE",
"1045 118 OFFCURVE",
"1048 163 OFFCURVE",
"1048 211 CURVE SMOOTH",
"1048 1274 LINE",
"883 1274 LINE",
"883 512 LINE",
"779 440 OFFCURVE",
"664 404 OFFCURVE",
"538 404 CURVE SMOOTH",
"389 404 OFFCURVE",
"285 464 OFFCURVE",
"285 564 CURVE SMOOTH",
"285 689 OFFCURVE",
"432 757 OFFCURVE",
"692 757 CURVE",
"395 1284 LINE",
"261 1208 LINE",
"459 900 LINE",
"244 851 OFFCURVE",
"120 737 OFFCURVE",
"120 585 CURVE SMOOTH",
"120 392 OFFCURVE",
"303 260 OFFCURVE",
"560 260 CURVE SMOOTH",
"679 260 OFFCURVE",
"787 286 OFFCURVE",
"883 337 CURVE",
"883 -20 LINE",
"1030 -20 OFFCURVE",
"1112 -76 OFFCURVE",
"1112 -172 CURVE SMOOTH",
"1112 -260 OFFCURVE",
"1041 -317 OFFCURVE",
"936 -317 CURVE SMOOTH",
"886 -317 OFFCURVE",
"839 -307 OFFCURVE",
"794 -286 CURVE SMOOTH",
"705 -245 OFFCURVE",
"640 -196 OFFCURVE",
"499 -32 CURVE",
"396 -116 LINE",
"463 -200 OFFCURVE",
"525 -265 OFFCURVE",
"580 -311 CURVE SMOOTH",
"691 -404 OFFCURVE",
"813 -462 OFFCURVE",
"952 -462 CURVE SMOOTH"
);
}
);
width = 1227;
}
);
note = ktDHU;
},
{
glyphname = ktNU.alt1;
lastChange = "2016-11-10 17:42:20 +0000";
layers = (
{
layerId = "CE2B0BEB-5EFE-47CF-A34E-B4149D2EF609";
paths = (
{
closed = 1;
nodes = (
"914 -420 OFFCURVE",
"1064 -253 OFFCURVE",
"1064 80 CURVE SMOOTH",
"1064 1274 LINE",
"944 1274 LINE",
"419 1081 OFFCURVE",
"92 797 OFFCURVE",
"92 525 CURVE SMOOTH",
"92 357 OFFCURVE",
"201 244 OFFCURVE",
"365 244 CURVE SMOOTH",
"517 244 OFFCURVE",
"620 356 OFFCURVE",
"620 512 CURVE SMOOTH",
"620 633 OFFCURVE",
"578 739 OFFCURVE",
"477 851 CURVE",
"597 948 OFFCURVE",
"738 1028 OFFCURVE",
"899 1089 CURVE",
"909 1089 LINE",
"902 1062 OFFCURVE",
"899 1017 OFFCURVE",
"899 954 CURVE SMOOTH",
"899 100 LINE SMOOTH",
"899 -152 OFFCURVE",
"808 -275 OFFCURVE",
"604 -275 CURVE SMOOTH",
"468 -275 OFFCURVE",
"336 -218 OFFCURVE",
"176 -91 CURVE",
"90 -194 LINE",
"287 -353 OFFCURVE",
"450 -420 OFFCURVE",
"614 -420 CURVE SMOOTH"
);
},
{
closed = 1;
nodes = (
"291 389 OFFCURVE",
"257 434 OFFCURVE",
"257 498 CURVE SMOOTH",
"257 583 OFFCURVE",
"297 669 OFFCURVE",
"377 758 CURVE",
"429 699 OFFCURVE",
"455 630 OFFCURVE",
"455 551 CURVE SMOOTH",
"455 450 OFFCURVE",
"414 389 OFFCURVE",
"347 389 CURVE SMOOTH"
);
}
);
width = 1234;
}
);
note = ktNU.alt1;
},
